CharisSIL-Italic.ufo
<glyph name="ExclamationMrk" format="1">
  <advance width="692"/>
  <unicode hex="0021"/>
  <outline>
    <contour>
      <point x="608" y="1294" type="curve"/>
      <point x="608" y="1364"/>
      <point x="575" y="1399"/>
      <point x="506" y="1399" type="curve" smooth="yes"/>
      <point x="393" y="1399"/>
      <point x="356" y="1335"/>
      <point x="342" y="1231" type="curve"/>
      <point x="238" y="346" type="line"/>
      <point x="367" y="346" type="line"/>
      <point x="403" y="492"/>
      <point x="608" y="1294"/>
    </contour>
    <contour>
      <point x="401" y="100" type="curve" smooth="yes"/>
      <point x="401" y="174"/>
      <point x="338" y="223"/>
      <point x="266" y="223" type="curve" smooth="yes"/>
      <point x="193" y="223"/>
      <point x="135" y="172"/>
      <point x="135" y="100" type="curve" smooth="yes"/>
      <point x="135" y="23"/>
      <point x="207" y="-18"/>
      <point x="266" y="-18" type="curve" smooth="yes"/>
      <point x="348" y="-18"/>
      <point x="401" y="35"/>
    </contour>
  </outline>
</glyph>
<glyph name="PercentSgn" format="2">
  <advance width="1761"/>
  <unicode hex="0025"/>
  <outline>
    <contour>
      <point x="1681" y="543" type="curve" smooth="yes"/>
      <point x="1681" y="700"/>
      <point x="1614" y="827"/>
      <point x="1440" y="827" type="curve" smooth="yes"/>
      <point x="1157" y="827"/>
      <point x="1024" y="494"/>
      <point x="1024" y="254" type="curve" smooth="yes"/>
      <point x="1024" y="96"/>
      <point x="1092" y="-33"/>
      <point x="1266" y="-33" type="curve" smooth="yes"/>
      <point x="1548" y="-33"/>
      <point x="1681" y="303"/>
    </contour>
    <contour>
      <point x="1546" y="1374" type="line"/>
      <point x="1419" y="1374" type="line"/>
      <point x="272" y="0" type="line"/>
      <point x="401" y="0" type="line"/>
    </contour>
    <contour>
      <point x="797" y="1122" type="curve" smooth="yes"/>
      <point x="797" y="1280"/>
      <point x="729" y="1407"/>
      <point x="555" y="1407" type="curve" smooth="yes"/>
      <point x="272" y="1407"/>
      <point x="137" y="1073"/>
      <point x="137" y="834" type="curve" smooth="yes"/>
      <point x="137" y="676"/>
      <point x="207" y="547"/>
      <point x="381" y="547" type="curve" smooth="yes"/>
      <point x="664" y="547"/>
      <point x="797" y="883"/>
    </contour>
    <contour>
      <point x="1532" y="582" type="curve" smooth="yes"/>
      <point x="1532" y="446"/>
      <point x="1464" y="43"/>
      <point x="1282" y="43" type="curve" smooth="yes"/>
      <point x="1188" y="43"/>
      <point x="1171" y="147"/>
      <point x="1171" y="221" type="curve" smooth="yes"/>
      <point x="1171" y="358"/>
      <point x="1239" y="750"/>
      <point x="1423" y="750" type="curve" smooth="yes"/>
      <point x="1516" y="750"/>
      <point x="1532" y="653"/>
    </contour>
    <contour>
      <point x="645" y="1161" type="curve" smooth="yes"/>
      <point x="645" y="1026"/>
      <point x="580" y="625"/>
      <point x="397" y="625" type="curve" smooth="yes"/>
      <point x="303" y="625"/>
      <point x="285" y="727"/>
      <point x="285" y="801" type="curve" smooth="yes"/>
      <point x="285" y="938"/>
      <point x="352" y="1329"/>
      <point x="539" y="1329" type="curve" smooth="yes"/>
      <point x="631" y="1329"/>
      <point x="645" y="1233"/>
    </contour>
  </outline>
</glyph>
<glyph name="Apos" format="2">
  <advance width="348"/>
  <unicode hex="0027"/>
  <outline>
    <contour>
      <point x="451" y="1384" type="curve" smooth="yes"/>
      <point x="451" y="1434"/>
      <point x="414" y="1462"/>
      <point x="362" y="1462" type="curve" smooth="yes"/>
      <point x="268" y="1462"/>
      <point x="238" y="1403"/>
      <point x="231" y="1321" type="curve"/>
      <point x="205" y="864" type="line"/>
      <point x="272" y="864" type="line"/>
      <point x="293" y="920"/>
      <point x="451" y="1341"/>
    </contour>
  </outline>
</glyph>
<glyph name="RtParen" format="2">
  <advance width="856"/>
  <unicode hex="0029"/>
  <outline>
    <contour>
      <point x="711" y="909" type="curve" smooth="yes"/>
      <point x="711" y="1018"/>
      <point x="678" y="1421"/>
      <point x="240" y="1470" type="curve"/>
      <point x="221" y="1376" type="line"/>
      <point x="475" y="1335"/>
      <point x="510" y="1065"/>
      <point x="510" y="942" type="curve" smooth="yes"/>
      <point x="510" y="680"/>
      <point x="395" y="-133"/>
      <point x="-80" y="-197" type="curve"/>
      <point x="-98" y="-295" type="line"/>
      <point x="358" y="-240"/>
      <point x="711" y="231"/>
    </contour>
  </outline>
</glyph>
<glyph name="Comma" format="2">
  <advance width="573"/>
  <unicode hex="002C"/>
  <outline>
    <contour>
      <point x="326" y="96" type="curve" smooth="yes"/>
      <point x="326" y="184"/>
      <point x="289" y="250"/>
      <point x="193" y="250" type="curve" smooth="yes"/>
      <point x="109" y="250"/>
      <point x="35" y="162"/>
      <point x="35" y="80" type="curve" smooth="yes"/>
      <point x="35" y="57"/>
      <point x="41" y="33"/>
      <point x="55" y="14" type="curve"/>
      <point x="184" y="14" type="line"/>
      <point x="154" y="-154"/>
      <point x="70" y="-238"/>
      <point x="-98" y="-274" type="curve"/>
      <point x="-113" y="-348" type="line"/>
      <point x="111" y="-328"/>
      <point x="326" y="-135"/>
    </contour>
  </outline>
</glyph>
<glyph name="FullStop" format="1">
  <advance width="573"/>
  <unicode hex="002E"/>
  <outline>
    <contour>
      <point x="311" y="113" type="curve" smooth="yes"/>
      <point x="311" y="188"/>
      <point x="248" y="250"/>
      <point x="172" y="250" type="curve" smooth="yes"/>
      <point x="96" y="250"/>
      <point x="37" y="188"/>
      <point x="37" y="113" type="curve" smooth="yes"/>
      <point x="37" y="37"/>
      <point x="96" y="-25"/>
      <point x="172" y="-25" type="curve" smooth="yes"/>
      <point x="248" y="-25"/>
      <point x="311" y="37"/>
    </contour>
  </outline>
</glyph>
<glyph name="DigitZero" format="1">
  <advance width="1139"/>
  <unicode hex="0030"/>
  <outline>
    <contour>
      <point x="1128" y="946" type="curve" smooth="yes"/>
      <point x="1128" y="1206"/>
      <point x="1006" y="1407"/>
      <point x="735" y="1407" type="curve" smooth="yes"/>
      <point x="293" y="1407"/>
      <point x="70" y="858"/>
      <point x="70" y="426" type="curve" smooth="yes"/>
      <point x="70" y="135"/>
      <point x="213" y="-33"/>
      <point x="467" y="-33" type="curve" smooth="yes"/>
      <point x="870" y="-33"/>
      <point x="1128" y="467"/>
    </contour>
    <contour>
      <point x="907" y="981" type="curve" smooth="yes"/>
      <point x="907" y="596"/>
      <point x="729" y="74"/>
      <point x="487" y="74" type="curve" smooth="yes"/>
      <point x="412" y="74"/>
      <point x="293" y="113"/>
      <point x="293" y="393" type="curve" smooth="yes"/>
      <point x="293" y="776"/>
      <point x="461" y="1303"/>
      <point x="715" y="1303" type="curve" smooth="yes"/>
      <point x="821" y="1303"/>
      <point x="907" y="1204"/>
    </contour>
    <contour>
      <point x="439" y="-100" type="move" name="L"/>
    </contour>
    <contour>
      <point x="727" y="1500" type="move" name="U"/>
    </contour>
  </outline>
</glyph>
<glyph name="DigitTwo" format="1">
  <advance width="1139"/>
  <unicode hex="0032"/>
  <outline>
    <contour>
      <point x="1096" y="1102" type="curve" smooth="yes"/>
      <point x="1096" y="1321"/>
      <point x="930" y="1407"/>
      <point x="717" y="1407" type="curve" smooth="yes"/>
      <point x="442" y="1407"/>
      <point x="211" y="1235"/>
      <point x="211" y="1083" type="curve" smooth="yes"/>
      <point x="211" y="1010"/>
      <point x="279" y="993"/>
      <point x="324" y="993" type="curve" smooth="yes"/>
      <point x="387" y="993"/>
      <point x="424" y="1020"/>
      <point x="438" y="1030" type="curve"/>
      <point x="481" y="1247" type="line"/>
      <point x="512" y="1262"/>
      <point x="578" y="1294"/>
      <point x="651" y="1294" type="curve" smooth="yes"/>
      <point x="768" y="1294"/>
      <point x="860" y="1233"/>
      <point x="860" y="1077" type="curve" smooth="yes"/>
      <point x="860" y="778"/>
      <point x="575" y="555"/>
      <point x="-16" y="133" type="curve"/>
      <point x="-43" y="0" type="line"/>
      <point x="940" y="0" type="line"/>
      <point x="1004" y="344" type="line"/>
      <point x="881" y="344" type="line"/>
      <point x="811" y="170" type="line"/>
      <point x="238" y="170" type="line"/>
      <point x="424" y="301"/>
      <point x="612" y="424"/>
      <point x="782" y="575" type="curve" smooth="yes"/>
      <point x="958" y="731"/>
      <point x="1096" y="915"/>
    </contour>
    <contour>
      <point x="717" y="1500" type="move" name="U"/>
    </contour>
    <contour>
      <point x="429" y="-100" type="move" name="L"/>
    </contour>
  </outline>
</glyph>
<glyph name="DigitFive" format="2">
  <advance width="1139"/>
  <unicode hex="0035"/>
  <anchor x="426" y="-100" name="L"/>
  <anchor x="714" y="1500" name="U"/>
  <outline>
    <contour>
      <point x="1110" y="1374" type="line"/>
      <point x="360" y="1374" type="line"/>
      <point x="223" y="700" type="line"/>
      <point x="279" y="707"/>
      <point x="387" y="719"/>
      <point x="444" y="719" type="curve" smooth="yes"/>
      <point x="614" y="719"/>
      <point x="784" y="664"/>
      <point x="784" y="459" type="curve" smooth="yes"/>
      <point x="784" y="256"/>
      <point x="616" y="72"/>
      <point x="410" y="72" type="curve" smooth="yes"/>
      <point x="360" y="72"/>
      <point x="319" y="86"/>
      <point x="276" y="100" type="curve"/>
      <point x="221" y="274" type="line"/>
      <point x="205" y="279"/>
      <point x="180" y="283"/>
      <point x="158" y="283" type="curve" smooth="yes"/>
      <point x="68" y="283"/>
      <point x="20" y="223"/>
      <point x="20" y="158" type="curve" smooth="yes"/>
      <point x="20" y="41"/>
      <point x="145" y="-33"/>
      <point x="362" y="-33" type="curve" smooth="yes"/>
      <point x="715" y="-33"/>
      <point x="1001" y="217"/>
      <point x="1001" y="512" type="curve" smooth="yes"/>
      <point x="1001" y="760"/>
      <point x="801" y="842"/>
      <point x="614" y="842" type="curve" smooth="yes"/>
      <point x="524" y="842"/>
      <point x="453" y="825"/>
      <point x="403" y="811" type="curve"/>
      <point x="483" y="1208" type="line"/>
      <point x="1079" y="1208" type="line"/>
    </contour>
  </outline>
</glyph>
<glyph name="DigitSeven" format="2">
  <advance width="1139"/>
  <unicode hex="0037"/>
  <anchor x="451" y="-100" name="L"/>
  <anchor x="739" y="1500" name="U"/>
  <outline>
    <contour>
      <point x="1237" y="1374" type="line"/>
      <point x="262" y="1374" type="line"/>
      <point x="193" y="1024" type="line"/>
      <point x="324" y="1024" type="line"/>
      <point x="389" y="1208" type="line"/>
      <point x="985" y="1208" type="line"/>
      <point x="74" y="-76" type="line"/>
      <point x="276" y="-76" type="line"/>
      <point x="289" y="-29" type="line"/>
      <point x="1221" y="1286" type="line"/>
    </contour>
  </outline>
</glyph>
<glyph name="DigitEight" format="2">
  <advance width="1139"/>
  <unicode hex="0038"/>
  <anchor x="439" y="-100" name="L"/>
  <anchor x="727" y="1500" name="U"/>
  <outline>
    <contour>
      <point x="1085" y="1118" type="curve" smooth="yes"/>
      <point x="1085" y="1280"/>
      <point x="958" y="1407"/>
      <point x="711" y="1407" type="curve" smooth="yes"/>
      <point x="401" y="1407"/>
      <point x="211" y="1204"/>
      <point x="211" y="979" type="curve" smooth="yes"/>
      <point x="211" y="897"/>
      <point x="238" y="799"/>
      <point x="377" y="725" type="curve"/>
      <point x="115" y="610"/>
      <point x="31" y="436"/>
      <point x="31" y="303" type="curve" smooth="yes"/>
      <point x="31" y="102"/>
      <point x="186" y="-33"/>
      <point x="467" y="-33" type="curve" smooth="yes"/>
      <point x="786" y="-33"/>
      <point x="1034" y="176"/>
      <point x="1034" y="428" type="curve" smooth="yes"/>
      <point x="1034" y="596"/>
      <point x="885" y="684"/>
      <point x="778" y="731" type="curve"/>
      <point x="944" y="807"/>
      <point x="1085" y="901"/>
    </contour>
    <contour>
      <point x="891" y="1100" type="curve" smooth="yes"/>
      <point x="891" y="950"/>
      <point x="805" y="842"/>
      <point x="678" y="774" type="curve"/>
      <point x="518" y="842"/>
      <point x="416" y="911"/>
      <point x="416" y="1024" type="curve" smooth="yes"/>
      <point x="416" y="1180"/>
      <point x="539" y="1309"/>
      <point x="692" y="1309" type="curve" smooth="yes"/>
      <point x="815" y="1309"/>
      <point x="891" y="1225"/>
    </contour>
    <contour>
      <point x="815" y="373" type="curve" smooth="yes"/>
      <point x="815" y="225"/>
      <point x="678" y="78"/>
      <point x="504" y="78" type="curve" smooth="yes"/>
      <point x="334" y="78"/>
      <point x="236" y="197"/>
      <point x="236" y="340" type="curve" smooth="yes"/>
      <point x="236" y="489"/>
      <point x="336" y="598"/>
      <point x="469" y="670" type="curve"/>
      <point x="643" y="590"/>
      <point x="815" y="500"/>
    </contour>
  </outline>
</glyph>
<glyph name="DigitNine" format="2">
  <advance width="1139"/>
  <unicode hex="0039"/>
  <anchor x="437" y="-100" name="L"/>
  <anchor x="725" y="1500" name="U"/>
  <outline>
    <contour>
      <point x="1141" y="979" type="curve" smooth="yes"/>
      <point x="1141" y="1360"/>
      <point x="864" y="1407"/>
      <point x="723" y="1407" type="curve" smooth="yes"/>
      <point x="389" y="1407"/>
      <point x="133" y="1149"/>
      <point x="133" y="829" type="curve" smooth="yes"/>
      <point x="133" y="565"/>
      <point x="336" y="467"/>
      <point x="506" y="467" type="curve" smooth="yes"/>
      <point x="616" y="467"/>
      <point x="731" y="510"/>
      <point x="821" y="555" type="curve"/>
      <point x="621" y="227"/>
      <point x="385" y="96"/>
      <point x="94" y="-16" type="curve"/>
      <point x="137" y="-113" type="line"/>
      <point x="594" y="31"/>
      <point x="1141" y="375"/>
    </contour>
    <contour>
      <point x="924" y="977" type="curve" smooth="yes"/>
      <point x="924" y="891"/>
      <point x="904" y="799"/>
      <point x="885" y="715" type="curve"/>
      <point x="866" y="694"/>
      <point x="745" y="590"/>
      <point x="598" y="590" type="curve" smooth="yes"/>
      <point x="492" y="590"/>
      <point x="356" y="668"/>
      <point x="356" y="870" type="curve" smooth="yes"/>
      <point x="356" y="1102"/>
      <point x="508" y="1309"/>
      <point x="688" y="1309" type="curve" smooth="yes"/>
      <point x="786" y="1309"/>
      <point x="924" y="1245"/>
    </contour>
  </outline>
</glyph>
<glyph name="Semicolon" format="2">
  <advance width="573"/>
  <unicode hex="003B"/>
  <outline>
    <contour>
      <point x="461" y="874" type="curve" smooth="yes"/>
      <point x="461" y="950"/>
      <point x="397" y="1012"/>
      <point x="322" y="1012" type="curve" smooth="yes"/>
      <point x="246" y="1012"/>
      <point x="184" y="950"/>
      <point x="184" y="874" type="curve" smooth="yes"/>
      <point x="184" y="799"/>
      <point x="246" y="737"/>
      <point x="322" y="737" type="curve" smooth="yes"/>
      <point x="397" y="737"/>
      <point x="461" y="799"/>
    </contour>
    <contour>
      <point x="326" y="98" type="curve" smooth="yes"/>
      <point x="326" y="184"/>
      <point x="287" y="250"/>
      <point x="193" y="250" type="curve" smooth="yes"/>
      <point x="111" y="250"/>
      <point x="35" y="164"/>
      <point x="35" y="84" type="curve" smooth="yes"/>
      <point x="35" y="61"/>
      <point x="41" y="33"/>
      <point x="55" y="14" type="curve"/>
      <point x="184" y="14" type="line"/>
      <point x="154" y="-156"/>
      <point x="70" y="-238"/>
      <point x="-98" y="-274" type="curve"/>
      <point x="-113" y="-348" type="line"/>
      <point x="111" y="-328"/>
      <point x="326" y="-135"/>
    </contour>
  </outline>
</glyph>
<glyph name="QstnMrk" format="2">
  <advance width="995"/>
  <unicode hex="003F"/>
  <outline>
    <contour>
      <point x="948" y="1112" type="curve" smooth="yes"/>
      <point x="948" y="1294"/>
      <point x="815" y="1407"/>
      <point x="573" y="1407" type="curve" smooth="yes"/>
      <point x="301" y="1407"/>
      <point x="215" y="1266"/>
      <point x="215" y="1186" type="curve" smooth="yes"/>
      <point x="215" y="1133"/>
      <point x="258" y="1102"/>
      <point x="328" y="1102" type="curve" smooth="yes"/>
      <point x="387" y="1102" type="line"/>
      <point x="512" y="1305" type="line"/>
      <point x="643" y="1305"/>
      <point x="725" y="1231"/>
      <point x="725" y="1092" type="curve" smooth="yes"/>
      <point x="725" y="862"/>
      <point x="539" y="711"/>
      <point x="352" y="651" type="curve"/>
      <point x="297" y="346" type="line"/>
      <point x="434" y="346" type="line"/>
      <point x="481" y="590" type="line"/>
      <point x="705" y="682"/>
      <point x="948" y="838"/>
    </contour>
    <contour>
      <point x="465" y="90" type="curve" smooth="yes"/>
      <point x="465" y="154"/>
      <point x="418" y="213"/>
      <point x="334" y="213" type="curve" smooth="yes"/>
      <point x="248" y="213"/>
      <point x="197" y="152"/>
      <point x="197" y="88" type="curve" smooth="yes"/>
      <point x="197" y="25"/>
      <point x="248" y="-33"/>
      <point x="334" y="-33" type="curve" smooth="yes"/>
      <point x="418" y="-33"/>
      <point x="465" y="27"/>
    </contour>
  </outline>
</glyph>
<glyph name="LtnCapA" format="1">
  <advance width="1378"/>
  <unicode hex="0041"/>
  <outline>
    <contour>
      <point x="1282" y="0" type="line"/>
      <point x="1282" y="86" type="line"/>
      <point x="1188" y="96" type="line" smooth="yes"/>
      <point x="1159" y="98"/>
      <point x="1151" y="109"/>
      <point x="1147" y="135" type="curve" smooth="yes"/>
      <point x="926" y="1407" type="line"/>
      <point x="762" y="1407" type="line"/>
      <point x="6" y="98" type="line"/>
      <point x="-109" y="86" type="line"/>
      <point x="-109" y="0" type="line"/>
      <point x="332" y="0" type="line"/>
      <point x="332" y="86" type="line"/>
      <point x="238" y="96" type="line" smooth="yes"/>
      <point x="199" y="100"/>
      <point x="184" y="109"/>
      <point x="199" y="135" type="curve" smooth="yes"/>
      <point x="408" y="526" type="line"/>
      <point x="872" y="526" type="line"/>
      <point x="934" y="135" type="line" smooth="yes"/>
      <point x="938" y="113"/>
      <point x="926" y="100"/>
      <point x="895" y="96" type="curve" smooth="yes"/>
      <point x="801" y="86" type="line"/>
      <point x="801" y="0" type="line"/>
    </contour>
    <contour>
      <point x="854" y="623" type="line"/>
      <point x="463" y="623" type="line"/>
      <point x="766" y="1155" type="line"/>
    </contour>
    <contour>
      <point x="839" y="1500" type="move" name="U"/>
    </contour>
    <contour>
      <point x="551" y="-100" type="move" name="L"/>
    </contour>
    <contour>
      <point x="1175" y="0" type="move" name="O"/>
    </contour>
    <contour>
      <point x="572" y="0" type="move" name="H"/>
    </contour>
  </outline>
</glyph>
<glyph name="LtnCapD" format="1">
  <advance width="1374"/>
  <unicode hex="0044"/>
  <outline>
    <contour>
      <point x="1337" y="850" type="curve" smooth="yes"/>
      <point x="1337" y="1239"/>
      <point x="1057" y="1374"/>
      <point x="684" y="1374" type="curve" smooth="yes"/>
      <point x="195" y="1374" type="line"/>
      <point x="195" y="1288" type="line"/>
      <point x="309" y="1278" type="line" smooth="yes"/>
      <point x="346" y="1276"/>
      <point x="354" y="1260"/>
      <point x="350" y="1237" type="curve" smooth="yes"/>
      <point x="137" y="135" type="line"/>
      <point x="131" y="111"/>
      <point x="123" y="98"/>
      <point x="96" y="96" type="curve" smooth="yes"/>
      <point x="-31" y="86" type="line"/>
      <point x="-31" y="0" type="line"/>
      <point x="451" y="0" type="line" smooth="yes"/>
      <point x="975" y="0"/>
      <point x="1337" y="346"/>
    </contour>
    <contour>
      <point x="1116" y="868" type="curve" smooth="yes"/>
      <point x="1116" y="479"/>
      <point x="901" y="111"/>
      <point x="487" y="106" type="curve"/>
      <point x="338" y="106" type="line"/>
      <point x="563" y="1272" type="line"/>
      <point x="637" y="1272" type="line"/>
      <point x="891" y="1264"/>
      <point x="1116" y="1210"/>
    </contour>
    <contour>
      <point x="527" y="-100" type="move" name="L"/>
    </contour>
    <contour>
      <point x="815" y="1500" type="move" name="U"/>
    </contour>
  </outline>
</glyph>
<glyph name="LtnCapV" format="1">
  <advance width="1317"/>
  <unicode hex="0056"/>
  <outline>
    <contour>
      <point x="1466" y="1288" type="line"/>
      <point x="1466" y="1374" type="line"/>
      <point x="1049" y="1374" type="line"/>
      <point x="1049" y="1288" type="line"/>
      <point x="1149" y="1284" type="line" smooth="yes"/>
      <point x="1188" y="1282"/>
      <point x="1190" y="1264"/>
      <point x="1180" y="1243" type="curve" smooth="yes"/>
      <point x="659" y="252" type="line"/>
      <point x="506" y="1243" type="line" smooth="yes"/>
      <point x="502" y="1272"/>
      <point x="516" y="1282"/>
      <point x="547" y="1284" type="curve" smooth="yes"/>
      <point x="635" y="1288" type="line"/>
      <point x="635" y="1374" type="line"/>
      <point x="170" y="1374" type="line"/>
      <point x="170" y="1288" type="line"/>
      <point x="248" y="1284" type="line" smooth="yes"/>
      <point x="274" y="1282"/>
      <point x="293" y="1270"/>
      <point x="297" y="1243" type="curve" smooth="yes"/>
      <point x="496" y="-33" type="line"/>
      <point x="651" y="-33" type="line"/>
      <point x="1358" y="1276" type="line"/>
    </contour>
    <contour>
      <point x="587" y="0" type="move" name="H"/>
    </contour>
    <contour>
      <point x="567" y="-100" type="move" name="L"/>
    </contour>
    <contour>
      <point x="693" y="0" type="move" name="O"/>
    </contour>
    <contour>
      <point x="855" y="1500" type="move" name="U"/>
    </contour>
  </outline>
</glyph>
<glyph name="LtnCapZ" format="2">
  <advance width="1153"/>
  <unicode hex="005A"/>
  <anchor x="466" y="-100" name="L"/>
  <anchor x="754" y="1500" name="U"/>
  <outline>
    <contour>
      <point x="1219" y="1374" type="line"/>
      <point x="279" y="1374" type="line"/>
      <point x="213" y="1049" type="line"/>
      <point x="354" y="1049" type="line"/>
      <point x="410" y="1229" type="line" smooth="yes"/>
      <point x="418" y="1255"/>
      <point x="430" y="1268"/>
      <point x="459" y="1268" type="curve" smooth="yes"/>
      <point x="938" y="1268" type="line"/>
      <point x="-23" y="90" type="line"/>
      <point x="-41" y="0" type="line"/>
      <point x="973" y="0" type="line"/>
      <point x="1044" y="379" type="line"/>
      <point x="905" y="379" type="line"/>
      <point x="844" y="150" type="line" smooth="yes"/>
      <point x="836" y="121"/>
      <point x="821" y="109"/>
      <point x="793" y="109" type="curve" smooth="yes"/>
      <point x="236" y="109" type="line"/>
      <point x="1200" y="1282" type="line"/>
    </contour>
  </outline>
</glyph>
<glyph name="LftSqrBrac" format="2">
  <advance width="862"/>
  <unicode hex="005B"/>
  <outline>
    <contour>
      <point x="965" y="1354" type="line"/>
      <point x="965" y="1450" type="line"/>
      <point x="455" y="1450" type="line"/>
      <point x="111" y="-270" type="line"/>
      <point x="639" y="-270" type="line"/>
      <point x="639" y="-174" type="line"/>
      <point x="326" y="-174" type="line"/>
      <point x="631" y="1354" type="line"/>
    </contour>
  </outline>
</glyph>
<glyph name="ReverseSolidus" format="2">
  <advance width="1001"/>
  <unicode hex="005C"/>
  <outline>
    <contour>
      <point x="1001" y="-190" type="line"/>
      <point x="131" y="1374" type="line"/>
      <point x="0" y="1374" type="line"/>
      <point x="870" y="-190" type="line"/>
    </contour>
  </outline>
</glyph>
<glyph name="CircumAccent" format="1">
  <advance width="702"/>
  <unicode hex="005E"/>
  <outline>
    <component base="CombCircum" xOffset="847"/>
    <contour>
      <point x="508" y="1500" type="move" name="U"/>
    </contour>
  </outline>
</glyph>
<glyph name="GraveAccent" format="1">
  <advance width="805"/>
  <unicode hex="0060"/>
  <outline>
    <component base="CombGrave" xOffset="828"/>
    <contour>
      <point x="489" y="1500" type="move" name="U"/>
    </contour>
  </outline>
</glyph>
<glyph name="LtnSmG" format="2">
  <advance width="901"/>
  <unicode hex="0067"/>
  <anchor x="293" y="-432" name="H"/>
  <anchor x="255" y="-500" name="L"/>
  <anchor x="901" y="1000" name="R"/>
  <anchor x="575" y="1100" name="U"/>
  <outline>
    <contour>
      <point x="993" y="862" type="line"/>
      <point x="993" y="958" type="line"/>
      <point x="715" y="958" type="line"/>
      <point x="690" y="973"/>
      <point x="610" y="1012"/>
      <point x="512" y="1012" type="curve" smooth="yes"/>
      <point x="252" y="1012"/>
      <point x="98" y="805"/>
      <point x="98" y="606" type="curve" smooth="yes"/>
      <point x="98" y="475"/>
      <point x="180" y="399"/>
      <point x="289" y="352" type="curve"/>
      <point x="233" y="297"/>
      <point x="197" y="176"/>
      <point x="209" y="113" type="curve"/>
      <point x="59" y="63"/>
      <point x="-63" y="-31"/>
      <point x="-63" y="-170" type="curve" smooth="yes"/>
      <point x="-63" y="-326"/>
      <point x="61" y="-469"/>
      <point x="330" y="-469" type="curve" smooth="yes"/>
      <point x="590" y="-469"/>
      <point x="848" y="-315"/>
      <point x="848" y="-139" type="curve" smooth="yes"/>
      <point x="848" y="-20"/>
      <point x="764" y="29"/>
      <point x="639" y="86" type="curve" smooth="yes"/>
      <point x="365" y="211" type="line"/>
      <point x="358" y="233"/>
      <point x="369" y="293"/>
      <point x="387" y="334" type="curve"/>
      <point x="625" y="334"/>
      <point x="831" y="465"/>
      <point x="831" y="725" type="curve" smooth="yes"/>
      <point x="831" y="780"/>
      <point x="817" y="831"/>
      <point x="805" y="862" type="curve"/>
    </contour>
    <contour>
      <point x="635" y="735" type="curve" smooth="yes"/>
      <point x="635" y="606"/>
      <point x="549" y="410"/>
      <point x="412" y="410" type="curve" smooth="yes"/>
      <point x="340" y="410"/>
      <point x="295" y="481"/>
      <point x="295" y="580" type="curve" smooth="yes"/>
      <point x="295" y="772"/>
      <point x="418" y="926"/>
      <point x="516" y="926" type="curve" smooth="yes"/>
      <point x="598" y="926"/>
      <point x="635" y="836"/>
    </contour>
    <contour>
      <point x="657" y="-180" type="curve" smooth="yes"/>
      <point x="657" y="-248"/>
      <point x="580" y="-375"/>
      <point x="383" y="-375" type="curve" smooth="yes"/>
      <point x="209" y="-375"/>
      <point x="129" y="-229"/>
      <point x="129" y="-135" type="curve" smooth="yes"/>
      <point x="129" y="-53"/>
      <point x="166" y="31"/>
      <point x="297" y="63" type="curve"/>
      <point x="553" y="-53" type="line" smooth="yes"/>
      <point x="633" y="-90"/>
      <point x="657" y="-131"/>
    </contour>
  </outline>
</glyph>
<glyph name="LtnSmH" format="2">
  <advance width="1073"/>
  <unicode hex="0068"/>
  <anchor x="131" y="0" name="H"/>
  <anchor x="431" y="-100" name="L"/>
  <anchor x="747" y="1540" name="U"/>
  <outline>
    <contour>
      <point x="1069" y="51" type="curve"/>
      <point x="1067" y="123" type="line"/>
      <point x="1020" y="103"/>
      <point x="975" y="84"/>
      <point x="938" y="84" type="curve" smooth="yes"/>
      <point x="913" y="84"/>
      <point x="836" y="106"/>
      <point x="852" y="184" type="curve" smooth="yes"/>
      <point x="965" y="735" type="line" smooth="yes"/>
      <point x="1003" y="920"/>
      <point x="920" y="1012"/>
      <point x="770" y="1012" type="curve" smooth="yes"/>
      <point x="633" y="1012"/>
      <point x="485" y="940"/>
      <point x="401" y="848" type="curve"/>
      <point x="539" y="1509" type="line"/>
      <point x="457" y="1509" type="line"/>
      <point x="137" y="1448" type="line"/>
      <point x="137" y="1386" type="line"/>
      <point x="319" y="1368" type="line"/>
      <point x="37" y="0" type="line"/>
      <point x="225" y="0" type="line"/>
      <point x="375" y="717" type="line"/>
      <point x="465" y="811"/>
      <point x="592" y="877"/>
      <point x="657" y="877" type="curve" smooth="yes"/>
      <point x="702" y="877"/>
      <point x="792" y="821"/>
      <point x="770" y="713" type="curve" smooth="yes"/>
      <point x="645" y="109" type="line" smooth="yes"/>
      <point x="622" y="-2"/>
      <point x="745" y="-25"/>
      <point x="795" y="-25" type="curve" smooth="yes"/>
      <point x="881" y="-25"/>
      <point x="1034" y="33"/>
    </contour>
  </outline>
</glyph>
<glyph name="LtnSmK" format="1">
  <advance width="1042"/>
  <unicode hex="006B"/>
  <outline>
    <contour>
      <point x="1018" y="47" type="curve"/>
      <point x="1018" y="117" type="line"/>
      <point x="983" y="100"/>
      <point x="920" y="86"/>
      <point x="891" y="86" type="curve" smooth="yes"/>
      <point x="819" y="86"/>
      <point x="741" y="190"/>
      <point x="680" y="305" type="curve" smooth="yes"/>
      <point x="618" y="416"/>
      <point x="573" y="563"/>
      <point x="537" y="633" type="curve"/>
      <point x="600" y="690"/>
      <point x="705" y="782"/>
      <point x="780" y="840" type="curve"/>
      <point x="850" y="766" type="line"/>
      <point x="946" y="799"/>
      <point x="987" y="854"/>
      <point x="987" y="901" type="curve" smooth="yes"/>
      <point x="989" y="952"/>
      <point x="946" y="1012"/>
      <point x="854" y="1012" type="curve" smooth="yes"/>
      <point x="782" y="1012"/>
      <point x="737" y="979"/>
      <point x="659" y="899" type="curve" smooth="yes"/>
      <point x="328" y="557" type="line"/>
      <point x="518" y="1509" type="line"/>
      <point x="436" y="1509" type="line"/>
      <point x="119" y="1448" type="line"/>
      <point x="119" y="1386" type="line"/>
      <point x="299" y="1368" type="line"/>
      <point x="27" y="0" type="line"/>
      <point x="215" y="0" type="line"/>
      <point x="299" y="416" type="line"/>
      <point x="393" y="500" type="line"/>
      <point x="436" y="410"/>
      <point x="545" y="156"/>
      <point x="600" y="72" type="curve" smooth="yes"/>
      <point x="633" y="23"/>
      <point x="698" y="-25"/>
      <point x="764" y="-25" type="curve" smooth="yes"/>
      <point x="829" y="-25"/>
      <point x="950" y="12"/>
    </contour>
    <contour>
      <point x="117" y="0" type="move" name="H"/>
    </contour>
    <contour>
      <point x="397" y="-100" type="move" name="L"/>
    </contour>
    <contour>
      <point x="1042" y="1000" type="move" name="R"/>
    </contour>
    <contour>
      <point x="713" y="1540" type="move" name="U"/>
    </contour>
  </outline>
</glyph>
<glyph name="LtnSmL" format="2">
  <advance width="543"/>
  <unicode hex="006C"/>
  <anchor x="182" y="0" name="H"/>
  <anchor x="162" y="-100" name="L"/>
  <anchor x="443" y="1000" name="R"/>
  <anchor x="486" y="1580" name="U"/>
  <outline>
    <contour>
      <point x="539" y="53" type="curve"/>
      <point x="539" y="131" type="line"/>
      <point x="516" y="123"/>
      <point x="412" y="90"/>
      <point x="373" y="90" type="curve" smooth="yes"/>
      <point x="321" y="90"/>
      <point x="277" y="136"/>
      <point x="277" y="176" type="curve" smooth="yes"/>
      <point x="277" y="186"/>
      <point x="277" y="192"/>
      <point x="279" y="203" type="curve" smooth="yes"/>
      <point x="528" y="1509" type="line"/>
      <point x="449" y="1509" type="line"/>
      <point x="129" y="1448" type="line"/>
      <point x="129" y="1386" type="line"/>
      <point x="311" y="1368" type="line"/>
      <point x="86" y="197" type="line" smooth="yes"/>
      <point x="81" y="170"/>
      <point x="80" y="145"/>
      <point x="80" y="125" type="curve" smooth="yes"/>
      <point x="80" y="37"/>
      <point x="129" y="-25"/>
      <point x="254" y="-25" type="curve" smooth="yes"/>
      <point x="350" y="-25"/>
      <point x="506" y="39"/>
    </contour>
  </outline>
</glyph>
<glyph name="LtnSmR" format="1">
  <advance width="766"/>
  <unicode hex="0072"/>
  <outline>
    <contour>
      <point x="838" y="874" type="curve" smooth="yes"/>
      <point x="838" y="930"/>
      <point x="805" y="1012"/>
      <point x="707" y="1012" type="curve" smooth="yes"/>
      <point x="584" y="1012"/>
      <point x="475" y="934"/>
      <point x="391" y="805" type="curve"/>
      <point x="434" y="1012" type="line"/>
      <point x="352" y="1012" type="line"/>
      <point x="43" y="948" type="line"/>
      <point x="43" y="889" type="line"/>
      <point x="215" y="870" type="line"/>
      <point x="39" y="0" type="line"/>
      <point x="229" y="0" type="line"/>
      <point x="336" y="516" type="line" smooth="yes"/>
      <point x="360" y="635"/>
      <point x="506" y="821"/>
      <point x="606" y="864" type="curve"/>
      <point x="655" y="766" type="line"/>
      <point x="766" y="766"/>
      <point x="838" y="778"/>
    </contour>
    <contour>
      <point x="121" y="0" type="move" name="H"/>
    </contour>
    <contour>
      <point x="101" y="-100" type="move" name="L"/>
    </contour>
    <contour>
      <point x="500" y="1100" type="move" name="U"/>
    </contour>
  </outline>
</glyph>
<glyph name="RtCurlyBrac" format="2">
  <advance width="995"/>
  <unicode hex="007D"/>
  <outline>
    <contour>
      <point x="897" y="641" type="line"/>
      <point x="817" y="641"/>
      <point x="729" y="635"/>
      <point x="680" y="680" type="curve" smooth="yes"/>
      <point x="539" y="805"/>
      <point x="799" y="1188"/>
      <point x="645" y="1356" type="curve" smooth="yes"/>
      <point x="575" y="1430"/>
      <point x="446" y="1440"/>
      <point x="299" y="1440" type="curve"/>
      <point x="281" y="1354" type="line"/>
      <point x="346" y="1354"/>
      <point x="418" y="1350"/>
      <point x="463" y="1313" type="curve" smooth="yes"/>
      <point x="598" y="1198"/>
      <point x="338" y="825"/>
      <point x="510" y="666" type="curve" smooth="yes"/>
      <point x="541" y="635"/>
      <point x="586" y="612"/>
      <point x="647" y="594" type="curve"/>
      <point x="543" y="565"/>
      <point x="477" y="528"/>
      <point x="432" y="483" type="curve" smooth="yes"/>
      <point x="276" y="330"/>
      <point x="350" y="39"/>
      <point x="211" y="-94" type="curve" smooth="yes"/>
      <point x="164" y="-137"/>
      <point x="94" y="-166"/>
      <point x="-16" y="-166" type="curve"/>
      <point x="-31" y="-252" type="line"/>
      <point x="135" y="-252"/>
      <point x="254" y="-236"/>
      <point x="340" y="-178" type="curve" smooth="yes"/>
      <point x="561" y="-29"/>
      <point x="469" y="340"/>
      <point x="621" y="485" type="curve" smooth="yes"/>
      <point x="680" y="545"/>
      <point x="766" y="547"/>
      <point x="879" y="547" type="curve"/>
    </contour>
  </outline>
</glyph>
<glyph name="BrokenBar" format="2">
  <advance width="707"/>
  <unicode hex="00A6"/>
  <outline>
    <contour>
      <point x="406" y="688" type="line"/>
      <point x="406" y="1507" type="line"/>
      <point x="301" y="1507" type="line"/>
      <point x="301" y="688" type="line"/>
    </contour>
    <contour>
      <point x="406" y="-406" type="line"/>
      <point x="406" y="414" type="line"/>
      <point x="301" y="414" type="line"/>
      <point x="301" y="-406" type="line"/>
    </contour>
  </outline>
</glyph>
<glyph name="SectionSgn" format="2">
  <advance width="1024"/>
  <unicode hex="00A7"/>
  <outline>
    <contour>
      <point x="1020" y="1419" type="line"/>
      <point x="942" y="1454"/>
      <point x="827" y="1470"/>
      <point x="741" y="1470" type="curve" smooth="yes"/>
      <point x="504" y="1470"/>
      <point x="268" y="1366"/>
      <point x="268" y="1122" type="curve" smooth="yes"/>
      <point x="268" y="1028"/>
      <point x="330" y="963"/>
      <point x="424" y="905" type="curve"/>
      <point x="246" y="829"/>
      <point x="119" y="707"/>
      <point x="119" y="524" type="curve" smooth="yes"/>
      <point x="119" y="426"/>
      <point x="164" y="360"/>
      <point x="227" y="307" type="curve" smooth="yes"/>
      <point x="330" y="223"/>
      <point x="596" y="143"/>
      <point x="596" y="4" type="curve" smooth="yes"/>
      <point x="596" y="-121"/>
      <point x="451" y="-186"/>
      <point x="362" y="-186" type="curve" smooth="yes"/>
      <point x="313" y="-186"/>
      <point x="252" y="-172"/>
      <point x="197" y="-135" type="curve"/>
      <point x="203" y="47" type="line"/>
      <point x="72" y="47" type="line"/>
      <point x="25" y="-219" type="line"/>
      <point x="115" y="-264"/>
      <point x="217" y="-287"/>
      <point x="326" y="-287" type="curve" smooth="yes"/>
      <point x="557" y="-287"/>
      <point x="786" y="-150"/>
      <point x="786" y="78" type="curve" smooth="yes"/>
      <point x="786" y="174"/>
      <point x="719" y="242"/>
      <point x="621" y="297" type="curve"/>
      <point x="786" y="367"/>
      <point x="938" y="512"/>
      <point x="938" y="680" type="curve" smooth="yes"/>
      <point x="938" y="774"/>
      <point x="893" y="842"/>
      <point x="829" y="895" type="curve" smooth="yes"/>
      <point x="684" y="1014"/>
      <point x="463" y="1053"/>
      <point x="463" y="1188" type="curve" smooth="yes"/>
      <point x="463" y="1311"/>
      <point x="604" y="1372"/>
      <point x="686" y="1372" type="curve" smooth="yes"/>
      <point x="739" y="1372"/>
      <point x="797" y="1356"/>
      <point x="854" y="1319" type="curve"/>
      <point x="846" y="1151" type="line"/>
      <point x="969" y="1151" type="line"/>
    </contour>
    <contour>
      <point x="741" y="625" type="curve" smooth="yes"/>
      <point x="741" y="512"/>
      <point x="653" y="412"/>
      <point x="535" y="344" type="curve"/>
      <point x="354" y="438"/>
      <point x="313" y="494"/>
      <point x="313" y="592" type="curve" smooth="yes"/>
      <point x="313" y="676"/>
      <point x="369" y="801"/>
      <point x="522" y="858" type="curve"/>
      <point x="690" y="782"/>
      <point x="741" y="713"/>
    </contour>
  </outline>
</glyph>
<glyph name="Diaer" format="1">
  <advance width="649"/>
  <unicode hex="00A8"/>
  <outline>
    <component base="CombDiaer" xOffset="822"/>
    <contour>
      <point x="483" y="1500" type="move" name="U"/>
    </contour>
  </outline>
</glyph>
<glyph name="CopyrightSgn" format="2">
  <advance width="1714"/>
  <unicode hex="00A9"/>
  <outline>
    <contour>
      <point x="1686" y="719" type="curve" smooth="yes"/>
      <point x="1686" y="1147"/>
      <point x="1339" y="1509"/>
      <point x="899" y="1509" type="curve" smooth="yes"/>
      <point x="463" y="1509"/>
      <point x="111" y="1153"/>
      <point x="111" y="717" type="curve" smooth="yes"/>
      <point x="111" y="283"/>
      <point x="465" y="-74"/>
      <point x="897" y="-74" type="curve" smooth="yes"/>
      <point x="1333" y="-74"/>
      <point x="1686" y="283"/>
    </contour>
    <contour>
      <point x="1597" y="717" type="curve" smooth="yes"/>
      <point x="1597" y="330"/>
      <point x="1282" y="12"/>
      <point x="897" y="12" type="curve" smooth="yes"/>
      <point x="512" y="12"/>
      <point x="199" y="330"/>
      <point x="199" y="717" type="curve" smooth="yes"/>
      <point x="199" y="1106"/>
      <point x="512" y="1423"/>
      <point x="899" y="1423" type="curve" smooth="yes"/>
      <point x="1286" y="1423"/>
      <point x="1597" y="1104"/>
    </contour>
    <contour>
      <point x="1221" y="283" type="curve"/>
      <point x="1221" y="541" type="line"/>
      <point x="1130" y="541" type="line"/>
      <point x="1102" y="367" type="line"/>
      <point x="1067" y="350"/>
      <point x="999" y="328"/>
      <point x="932" y="328" type="curve" smooth="yes"/>
      <point x="772" y="328"/>
      <point x="616" y="471"/>
      <point x="616" y="721" type="curve" smooth="yes"/>
      <point x="616" y="963"/>
      <point x="778" y="1102"/>
      <point x="952" y="1102" type="curve" smooth="yes"/>
      <point x="1010" y="1102"/>
      <point x="1067" y="1079"/>
      <point x="1098" y="1059" type="curve"/>
      <point x="1128" y="903" type="line"/>
      <point x="1221" y="903" type="line"/>
      <point x="1221" y="1147" type="line"/>
      <point x="1130" y="1174"/>
      <point x="1038" y="1198"/>
      <point x="932" y="1198" type="curve" smooth="yes"/>
      <point x="627" y="1198"/>
      <point x="428" y="999"/>
      <point x="428" y="717" type="curve" smooth="yes"/>
      <point x="428" y="459"/>
      <point x="608" y="233"/>
      <point x="930" y="233" type="curve" smooth="yes"/>
      <point x="1081" y="233"/>
      <point x="1214" y="280"/>
    </contour>
  </outline>
</glyph>
<glyph name="FemOrdIndicator" format="2">
  <advance width="692"/>
  <unicode hex="00AA"/>
  <outline>
    <contour>
      <point x="350" y="770" type="curve" smooth="yes"/>
      <point x="430" y="770"/>
      <point x="500" y="817"/>
      <point x="541" y="854" type="curve"/>
      <point x="545" y="799"/>
      <point x="567" y="770"/>
      <point x="633" y="770" type="curve" smooth="yes"/>
      <point x="684" y="770"/>
      <point x="784" y="809"/>
      <point x="807" y="817" type="curve"/>
      <point x="807" y="860" type="line"/>
      <point x="793" y="858"/>
      <point x="737" y="842"/>
      <point x="719" y="842" type="curve" smooth="yes"/>
      <point x="682" y="842"/>
      <point x="659" y="856"/>
      <point x="659" y="897" type="curve" smooth="yes"/>
      <point x="659" y="952"/>
      <point x="729" y="1241"/>
      <point x="745" y="1307" type="curve" smooth="yes"/>
      <point x="750" y="1319"/>
      <point x="764" y="1358"/>
      <point x="772" y="1376" type="curve"/>
      <point x="682" y="1376" type="line"/>
      <point x="662" y="1348" type="line"/>
      <point x="637" y="1368"/>
      <point x="592" y="1391"/>
      <point x="543" y="1391" type="curve" smooth="yes"/>
      <point x="293" y="1391"/>
      <point x="158" y="1180"/>
      <point x="158" y="989" type="curve" smooth="yes"/>
      <point x="158" y="901"/>
      <point x="195" y="770"/>
    </contour>
    <contour>
      <point x="86" y="627" type="line"/>
      <point x="700" y="627" type="line"/>
      <point x="715" y="700" type="line"/>
      <point x="102" y="700" type="line"/>
    </contour>
    <contour>
      <point x="393" y="850" type="curve" smooth="yes"/>
      <point x="309" y="850"/>
      <point x="291" y="928"/>
      <point x="291" y="997" type="curve" smooth="yes"/>
      <point x="291" y="1133"/>
      <point x="356" y="1331"/>
      <point x="561" y="1331" type="curve" smooth="yes"/>
      <point x="578" y="1331"/>
      <point x="612" y="1274"/>
      <point x="610" y="1266" type="curve"/>
      <point x="541" y="928" type="line"/>
      <point x="520" y="909"/>
      <point x="457" y="850"/>
    </contour>
  </outline>
</glyph>
<glyph name="Hyphen_Soft" format="1">
  <advance width="653"/>
  <unicode hex="00AD"/>
  <outline>
    <component base="HyphenMinus"/>
    <contour>
      <point x="444" y="1100" type="move" name="U"/>
    </contour>
  </outline>
</glyph>
<glyph name="SupThree" format="2">
  <advance width="739"/>
  <unicode hex="00B3"/>
  <anchor x="401" y="725" name="L"/>
  <anchor x="570" y="1650" name="U"/>
  <outline>
    <contour>
      <point x="819" y="1446" type="curve" smooth="yes"/>
      <point x="819" y="1565"/>
      <point x="725" y="1622"/>
      <point x="586" y="1622" type="curve" smooth="yes"/>
      <point x="440" y="1622"/>
      <point x="270" y="1552"/>
      <point x="270" y="1446" type="curve" smooth="yes"/>
      <point x="270" y="1399"/>
      <point x="313" y="1380"/>
      <point x="336" y="1380" type="curve" smooth="yes"/>
      <point x="362" y="1380"/>
      <point x="406" y="1399"/>
      <point x="406" y="1399" type="curve"/>
      <point x="424" y="1513" type="line"/>
      <point x="434" y="1522"/>
      <point x="479" y="1550"/>
      <point x="543" y="1550" type="curve" smooth="yes"/>
      <point x="602" y="1550"/>
      <point x="676" y="1518"/>
      <point x="676" y="1430" type="curve" smooth="yes"/>
      <point x="676" y="1325"/>
      <point x="573" y="1243"/>
      <point x="401" y="1253" type="curve"/>
      <point x="389" y="1167" type="line"/>
      <point x="389" y="1167"/>
      <point x="430" y="1174"/>
      <point x="477" y="1174" type="curve" smooth="yes"/>
      <point x="537" y="1174"/>
      <point x="627" y="1155"/>
      <point x="627" y="1051" type="curve" smooth="yes"/>
      <point x="627" y="936"/>
      <point x="526" y="844"/>
      <point x="391" y="844" type="curve" smooth="yes"/>
      <point x="342" y="844"/>
      <point x="303" y="864"/>
      <point x="291" y="870" type="curve"/>
      <point x="270" y="975" type="line"/>
      <point x="270" y="975"/>
      <point x="246" y="985"/>
      <point x="217" y="985" type="curve" smooth="yes"/>
      <point x="152" y="985"/>
      <point x="137" y="934"/>
      <point x="137" y="909" type="curve" smooth="yes"/>
      <point x="137" y="848"/>
      <point x="211" y="770"/>
      <point x="377" y="770" type="curve" smooth="yes"/>
      <point x="590" y="770"/>
      <point x="768" y="905"/>
      <point x="768" y="1067" type="curve" smooth="yes"/>
      <point x="768" y="1165"/>
      <point x="692" y="1212"/>
      <point x="606" y="1227" type="curve"/>
      <point x="743" y="1270"/>
      <point x="819" y="1356"/>
    </contour>
  </outline>
</glyph>
<glyph name="AcuteAccent" format="1">
  <advance width="598"/>
  <unicode hex="00B4"/>
  <outline>
    <component base="CombAcute" xOffset="819"/>
    <contour>
      <point x="480" y="1500" type="move" name="U"/>
    </contour>
  </outline>
</glyph>
<glyph name="PilcrowSgn" format="2">
  <advance width="995"/>
  <unicode hex="00B6"/>
  <outline>
    <contour>
      <point x="989" y="1300" type="line"/>
      <point x="989" y="1374" type="line"/>
      <point x="586" y="1374" type="line" smooth="yes"/>
      <point x="281" y="1374"/>
      <point x="104" y="1274"/>
      <point x="104" y="973" type="curve" smooth="yes"/>
      <point x="104" y="655"/>
      <point x="311" y="575"/>
      <point x="606" y="575" type="curve"/>
      <point x="606" y="1290" type="line"/>
      <point x="764" y="1290" type="line"/>
      <point x="764" y="-162" type="line"/>
      <point x="862" y="-162" type="line"/>
      <point x="862" y="1280" type="line"/>
    </contour>
  </outline>
</glyph>
<glyph name="MiddleDot" format="2">
  <advance width="385"/>
  <unicode hex="00B7"/>
  <outline>
    <contour>
      <point x="313" y="696" type="curve" smooth="yes"/>
      <point x="313" y="764"/>
      <point x="260" y="817"/>
      <point x="193" y="817" type="curve" smooth="yes"/>
      <point x="125" y="817"/>
      <point x="72" y="764"/>
      <point x="72" y="696" type="curve" smooth="yes"/>
      <point x="72" y="629"/>
      <point x="125" y="575"/>
      <point x="193" y="575" type="curve" smooth="yes"/>
      <point x="260" y="575"/>
      <point x="313" y="629"/>
    </contour>
  </outline>
</glyph>
<glyph name="Cedilla" format="1">
  <advance width="487"/>
  <unicode hex="00B8"/>
  <outline>
    <component base="CombCedilla" xOffset="751"/>
    <contour>
      <point x="38" y="-500" type="move" name="L"/>
    </contour>
  </outline>
</glyph>
<glyph name="MascOrdIndicator" format="2">
  <advance width="674"/>
  <unicode hex="00BA"/>
  <outline>
    <contour>
      <point x="739" y="1153" type="curve" smooth="yes"/>
      <point x="739" y="1319"/>
      <point x="631" y="1391"/>
      <point x="502" y="1391" type="curve" smooth="yes"/>
      <point x="293" y="1391"/>
      <point x="150" y="1200"/>
      <point x="150" y="1001" type="curve" smooth="yes"/>
      <point x="150" y="858"/>
      <point x="240" y="770"/>
      <point x="385" y="770" type="curve" smooth="yes"/>
      <point x="592" y="770"/>
      <point x="739" y="954"/>
    </contour>
    <contour>
      <point x="674" y="692" type="line"/>
      <point x="86" y="692" type="line"/>
      <point x="72" y="627" type="line"/>
      <point x="659" y="627" type="line"/>
    </contour>
    <contour>
      <point x="604" y="1157" type="curve" smooth="yes"/>
      <point x="604" y="1012"/>
      <point x="528" y="825"/>
      <point x="401" y="825" type="curve" smooth="yes"/>
      <point x="336" y="825"/>
      <point x="285" y="885"/>
      <point x="285" y="1008" type="curve" smooth="yes"/>
      <point x="285" y="1167"/>
      <point x="373" y="1337"/>
      <point x="487" y="1337" type="curve" smooth="yes"/>
      <point x="555" y="1337"/>
      <point x="604" y="1274"/>
    </contour>
  </outline>
</glyph>
<glyph name="LtnCapAAcute" format="1">
  <advance width="1378"/>
  <unicode hex="00C1"/>
  <outline>
    <component base="LtnCapA"/>
    <component base="CombAcute" xOffset="1222" yOffset="400"/>
    <contour>
      <point x="572" y="0" type="move" name="H"/>
    </contour>
    <contour>
      <point x="883" y="1900" type="move" name="U"/>
    </contour>
    <contour>
      <point x="551" y="-100" type="move" name="L"/>
    </contour>
    <contour>
      <point x="1175" y="0" type="move" name="O"/>
    </contour>
  </outline>
</glyph>
<glyph name="LtnCapACircum" format="1">
  <advance width="1378"/>
  <unicode hex="00C2"/>
  <outline>
    <component base="LtnCapA"/>
    <component base="CombCircum" xOffset="1222" yOffset="400"/>
    <contour>
      <point x="572" y="0" type="move" name="H"/>
    </contour>
    <contour>
      <point x="883" y="1900" type="move" name="U"/>
    </contour>
    <contour>
      <point x="551" y="-100" type="move" name="L"/>
    </contour>
    <contour>
      <point x="1175" y="0" type="move" name="O"/>
    </contour>
  </outline>
</glyph>
<glyph name="LtnCapADiaer" format="1">
  <advance width="1378"/>
  <unicode hex="00C4"/>
  <outline>
    <component base="LtnCapA"/>
    <component base="CombDiaer" xOffset="1222" yOffset="400"/>
    <contour>
      <point x="572" y="0" type="move" name="H"/>
    </contour>
    <contour>
      <point x="883" y="1900" type="move" name="U"/>
    </contour>
    <contour>
      <point x="551" y="-100" type="move" name="L"/>
    </contour>
    <contour>
      <point x="1175" y="0" type="move" name="O"/>
    </contour>
  </outline>
</glyph>
<glyph name="LtnCapARingAbv" format="1">
  <advance width="1378"/>
  <unicode hex="00C5"/>
  <outline>
    <component base="LtnCapA"/>
    <component base="RingAbv" xOffset="483" yOffset="400"/>
    <contour>
      <point x="572" y="0" type="move" name="H"/>
    </contour>
    <contour>
      <point x="913" y="2060" type="move" name="U"/>
    </contour>
    <contour>
      <point x="551" y="-100" type="move" name="L"/>
    </contour>
    <contour>
      <point x="1175" y="0" type="move" name="O"/>
    </contour>
  </outline>
</glyph>
<glyph name="LtnCapAe" format="2">
  <advance width="1917"/>
  <unicode hex="00C6"/>
  <anchor x="981" y="-100" name="L"/>
  <anchor x="1269" y="1500" name="U"/>
  <outline>
    <contour>
      <point x="-109" y="0" type="line"/>
      <point x="358" y="0" type="line"/>
      <point x="358" y="86" type="line"/>
      <point x="270" y="96" type="line" smooth="yes"/>
      <point x="236" y="100"/>
      <point x="217" y="119"/>
      <point x="231" y="135" type="curve" smooth="yes"/>
      <point x="547" y="518" type="line"/>
      <point x="1008" y="518" type="line"/>
      <point x="932" y="135" type="line" smooth="yes"/>
      <point x="930" y="121"/>
      <point x="918" y="98"/>
      <point x="893" y="96" type="curve" smooth="yes"/>
      <point x="768" y="86" type="line"/>
      <point x="768" y="0" type="line"/>
      <point x="1769" y="0" type="line"/>
      <point x="1835" y="340" type="line"/>
      <point x="1710" y="340" type="line"/>
      <point x="1647" y="143" type="line" smooth="yes"/>
      <point x="1638" y="119"/>
      <point x="1624" y="102"/>
      <point x="1597" y="102" type="curve" smooth="yes"/>
      <point x="1135" y="102" type="line"/>
      <point x="1243" y="662" type="line"/>
      <point x="1497" y="662" type="line" smooth="yes"/>
      <point x="1526" y="662"/>
      <point x="1540" y="647"/>
      <point x="1536" y="621" type="curve" smooth="yes"/>
      <point x="1518" y="475" type="line"/>
      <point x="1632" y="475" type="line"/>
      <point x="1724" y="944" type="line"/>
      <point x="1608" y="944" type="line"/>
      <point x="1569" y="807" type="line" smooth="yes"/>
      <point x="1561" y="778"/>
      <point x="1548" y="768"/>
      <point x="1520" y="768" type="curve" smooth="yes"/>
      <point x="1264" y="768" type="line"/>
      <point x="1362" y="1272" type="line"/>
      <point x="1731" y="1272" type="line" smooth="yes"/>
      <point x="1761" y="1272"/>
      <point x="1769" y="1262"/>
      <point x="1769" y="1233" type="curve" smooth="yes"/>
      <point x="1769" y="1067" type="line"/>
      <point x="1901" y="1067" type="line"/>
      <point x="1962" y="1374" type="line"/>
      <point x="819" y="1374" type="line"/>
      <point x="819" y="1288" type="line"/>
      <point x="934" y="1278" type="line" smooth="yes"/>
      <point x="950" y="1276"/>
      <point x="954" y="1253"/>
      <point x="940" y="1237" type="curve" smooth="yes"/>
      <point x="41" y="135" type="line" smooth="yes"/>
      <point x="23" y="115"/>
      <point x="8" y="98"/>
      <point x="-10" y="96" type="curve" smooth="yes"/>
      <point x="-109" y="86" type="line"/>
    </contour>
    <contour>
      <point x="633" y="627" type="line"/>
      <point x="1149" y="1253" type="line"/>
      <point x="1028" y="627" type="line"/>
    </contour>
  </outline>
</glyph>
<glyph name="LtnCapCCedilla" format="1">
  <advance width="1290"/>
  <unicode hex="00C7"/>
  <outline>
    <component base="LtnCapC"/>
    <component base="CombCedilla" xOffset="1232"/>
    <contour>
      <point x="499" y="-600" type="move" name="L"/>
    </contour>
    <contour>
      <point x="902" y="1500" type="move" name="U"/>
    </contour>
  </outline>
</glyph>
<glyph name="LtnCapIGrave" format="1">
  <advance width="643"/>
  <unicode hex="00CC"/>
  <outline>
    <component base="LtnCapI"/>
    <component base="CombGrave" xOffset="871" yOffset="400"/>
    <contour>
      <point x="220" y="0" type="move" name="H"/>
    </contour>
    <contour>
      <point x="200" y="-100" type="move" name="L"/>
    </contour>
    <contour>
      <point x="384" y="0" type="move" name="O"/>
    </contour>
    <contour>
      <point x="767" y="1200" type="move" name="R"/>
    </contour>
    <contour>
      <point x="532" y="1900" type="move" name="U"/>
    </contour>
  </outline>
</glyph>
<glyph name="LtnCapEth" format="1">
  <advance width="1374"/>
  <unicode hex="00D0"/>
  <outline>
    <contour>
      <point x="59" y="668" type="line"/>
      <point x="711" y="668" type="line"/>
      <point x="711" y="776" type="line"/>
      <point x="59" y="776" type="line"/>
    </contour>
    <component base="LtnCapD"/>
    <contour>
      <point x="532" y="-100" type="move" name="L"/>
    </contour>
    <contour>
      <point x="820" y="1500" type="move" name="U"/>
    </contour>
  </outline>
</glyph>
<glyph name="LtnCapUAcute" format="1">
  <advance width="1448"/>
  <unicode hex="00DA"/>
  <outline>
    <component base="LtnCapU"/>
    <component base="CombAcute" xOffset="1283" yOffset="400"/>
    <contour>
      <point x="615" y="0" type="move" name="H"/>
    </contour>
    <contour>
      <point x="1540" y="1350" type="move" name="R"/>
    </contour>
    <contour>
      <point x="944" y="1900" type="move" name="U"/>
    </contour>
    <contour>
      <point x="612" y="-100" type="move" name="L"/>
    </contour>
    <contour>
      <point x="908" y="0" type="move" name="O"/>
    </contour>
  </outline>
</glyph>
<glyph name="LtnSmATilde" format="1">
  <advance width="1067"/>
  <unicode hex="00E3"/>
  <outline>
    <component base="LtnSmA"/>
    <component base="SmTilde" xOffset="222"/>
    <contour>
      <point x="483" y="0" type="move" name="H"/>
    </contour>
    <contour>
      <point x="1067" y="1000" type="move" name="R"/>
    </contour>
    <contour>
      <point x="749" y="1500" type="move" name="U"/>
    </contour>
    <contour>
      <point x="461" y="-100" type="move" name="L"/>
    </contour>
    <contour>
      <point x="930" y="0" type="move" name="O"/>
    </contour>
  </outline>
</glyph>
<glyph name="LtnSmAe" format="2">
  <advance width="1526"/>
  <unicode hex="00E6"/>
  <anchor x="711" y="0" name="H"/>
  <anchor x="691" y="-100" name="L"/>
  <anchor x="1183" y="0" name="O"/>
  <anchor x="1526" y="1000" name="R"/>
  <anchor x="935" y="1100" name="U"/>
  <outline>
    <contour>
      <point x="362" y="-25" type="curve" smooth="yes"/>
      <point x="473" y="-25"/>
      <point x="612" y="39"/>
      <point x="702" y="166" type="curve"/>
      <point x="743" y="-2"/>
      <point x="838" y="-25"/>
      <point x="997" y="-25" type="curve" smooth="yes"/>
      <point x="1184" y="-25"/>
      <point x="1337" y="94"/>
      <point x="1411" y="168" type="curve"/>
      <point x="1411" y="297" type="line"/>
      <point x="1264" y="166"/>
      <point x="1157" y="98"/>
      <point x="1065" y="98" type="curve" smooth="yes"/>
      <point x="887" y="98"/>
      <point x="870" y="176"/>
      <point x="870" y="356" type="curve" smooth="yes"/>
      <point x="870" y="381"/>
      <point x="885" y="424"/>
      <point x="889" y="451" type="curve"/>
      <point x="1133" y="465"/>
      <point x="1489" y="582"/>
      <point x="1489" y="805" type="curve" smooth="yes"/>
      <point x="1489" y="864"/>
      <point x="1432" y="1010"/>
      <point x="1243" y="1010" type="curve" smooth="yes"/>
      <point x="1137" y="1010"/>
      <point x="1034" y="956"/>
      <point x="946" y="885" type="curve"/>
      <point x="956" y="913"/>
      <point x="971" y="965"/>
      <point x="979" y="987" type="curve"/>
      <point x="842" y="987" type="line"/>
      <point x="809" y="938" type="line"/>
      <point x="772" y="975"/>
      <point x="731" y="1012"/>
      <point x="655" y="1012" type="curve" smooth="yes"/>
      <point x="272" y="1012"/>
      <point x="66" y="659"/>
      <point x="66" y="342" type="curve" smooth="yes"/>
      <point x="66" y="195"/>
      <point x="121" y="-25"/>
    </contour>
    <contour>
      <point x="426" y="111" type="curve" smooth="yes"/>
      <point x="299" y="111"/>
      <point x="268" y="240"/>
      <point x="268" y="354" type="curve" smooth="yes"/>
      <point x="268" y="580"/>
      <point x="371" y="913"/>
      <point x="684" y="913" type="curve"/>
      <point x="760" y="801" type="line"/>
      <point x="655" y="240" type="line"/>
      <point x="618" y="190"/>
      <point x="506" y="111"/>
    </contour>
    <contour>
      <point x="897" y="528" type="curve"/>
      <point x="932" y="684"/>
      <point x="1063" y="905"/>
      <point x="1196" y="905" type="curve" smooth="yes"/>
      <point x="1266" y="905"/>
      <point x="1309" y="860"/>
      <point x="1309" y="807" type="curve" smooth="yes"/>
      <point x="1309" y="662"/>
      <point x="1071" y="545"/>
    </contour>
  </outline>
</glyph>
<glyph name="LtnSmCCedilla" format="1">
  <advance width="891"/>
  <unicode hex="00E7"/>
  <outline>
    <component base="LtnSmC"/>
    <component base="CombCedilla" xOffset="1023"/>
    <contour>
      <point x="891" y="1000" type="move" name="R"/>
    </contour>
    <contour>
      <point x="615" y="1100" type="move" name="U"/>
    </contour>
    <contour>
      <point x="290" y="-600" type="move" name="L"/>
    </contour>
  </outline>
</glyph>
<glyph name="LtnSmICircum" format="1">
  <advance width="545"/>
  <unicode hex="00EE"/>
  <outline>
    <component base="LtnSmDotlessI"/>
    <component base="CombCircum" xOffset="763"/>
    <contour>
      <point x="194" y="0" type="move" name="H"/>
    </contour>
    <contour>
      <point x="150" y="-100" type="move" name="L"/>
    </contour>
    <contour>
      <point x="410" y="0" type="move" name="O"/>
    </contour>
    <contour>
      <point x="545" y="1000" type="move" name="R"/>
    </contour>
    <contour>
      <point x="424" y="1500" type="move" name="U"/>
    </contour>
  </outline>
</glyph>
<glyph name="LtnSmEth" format="2">
  <advance width="1036"/>
  <unicode hex="00F0"/>
  <anchor x="393" y="-100" name="L"/>
  <anchor x="709" y="1540" name="U"/>
  <outline>
    <contour>
      <point x="993" y="1346" type="line"/>
      <point x="954" y="1432" type="line"/>
      <point x="713" y="1335" type="line"/>
      <point x="590" y="1509" type="line"/>
      <point x="324" y="1470" type="line"/>
      <point x="315" y="1409" type="line"/>
      <point x="473" y="1368" type="line"/>
      <point x="545" y="1268" type="line"/>
      <point x="276" y="1165" type="line"/>
      <point x="313" y="1073" type="line"/>
      <point x="598" y="1190" type="line"/>
      <point x="616" y="1151"/>
      <point x="662" y="1055"/>
      <point x="690" y="981" type="curve"/>
      <point x="659" y="999"/>
      <point x="627" y="1012"/>
      <point x="592" y="1012" type="curve" smooth="yes"/>
      <point x="283" y="1012"/>
      <point x="66" y="705"/>
      <point x="66" y="367" type="curve" smooth="yes"/>
      <point x="66" y="123"/>
      <point x="215" y="-25"/>
      <point x="430" y="-25" type="curve" smooth="yes"/>
      <point x="823" y="-25"/>
      <point x="958" y="358"/>
      <point x="958" y="602" type="curve" smooth="yes"/>
      <point x="958" y="819"/>
      <point x="860" y="1083"/>
      <point x="764" y="1253" type="curve"/>
    </contour>
    <contour>
      <point x="758" y="596" type="curve" smooth="yes"/>
      <point x="758" y="354"/>
      <point x="653" y="70"/>
      <point x="455" y="70" type="curve" smooth="yes"/>
      <point x="365" y="70"/>
      <point x="272" y="162"/>
      <point x="272" y="375" type="curve" smooth="yes"/>
      <point x="272" y="608"/>
      <point x="371" y="924"/>
      <point x="614" y="924" type="curve" smooth="yes"/>
      <point x="662" y="924"/>
      <point x="694" y="909"/>
      <point x="717" y="891" type="curve"/>
      <point x="741" y="807"/>
      <point x="758" y="725"/>
    </contour>
  </outline>
</glyph>
<glyph name="LtnSmOGrave" format="1">
  <advance width="1036"/>
  <unicode hex="00F2"/>
  <outline>
    <component base="LtnSmO"/>
    <component base="CombGrave" xOffset="1026"/>
    <contour>
      <point x="419" y="0" type="move" name="H"/>
    </contour>
    <contour>
      <point x="996" y="900" type="move" name="R"/>
    </contour>
    <contour>
      <point x="687" y="1500" type="move" name="U"/>
    </contour>
    <contour>
      <point x="399" y="-100" type="move" name="L"/>
    </contour>
    <contour>
      <point x="625" y="0" type="move" name="O"/>
    </contour>
  </outline>
</glyph>
<glyph name="LtnSmOAcute" format="1">
  <advance width="1036"/>
  <unicode hex="00F3"/>
  <outline>
    <component base="LtnSmO"/>
    <component base="CombAcute" xOffset="1026"/>
    <contour>
      <point x="419" y="0" type="move" name="H"/>
    </contour>
    <contour>
      <point x="399" y="-100" type="move" name="L"/>
    </contour>
    <contour>
      <point x="625" y="0" type="move" name="O"/>
    </contour>
    <contour>
      <point x="996" y="900" type="move" name="R"/>
    </contour>
    <contour>
      <point x="687" y="1500" type="move" name="U"/>
    </contour>
  </outline>
</glyph>
<glyph name="LtnSmOTilde" format="1">
  <advance width="1036"/>
  <unicode hex="00F5"/>
  <outline>
    <component base="LtnSmO"/>
    <component base="SmTilde" xOffset="160"/>
    <contour>
      <point x="419" y="0" type="move" name="H"/>
    </contour>
    <contour>
      <point x="399" y="-100" type="move" name="L"/>
    </contour>
    <contour>
      <point x="625" y="0" type="move" name="O"/>
    </contour>
    <contour>
      <point x="996" y="900" type="move" name="R"/>
    </contour>
    <contour>
      <point x="687" y="1500" type="move" name="U"/>
    </contour>
  </outline>
</glyph>
<glyph name="LtnSmODiaer" format="1">
  <advance width="1036"/>
  <unicode hex="00F6"/>
  <outline>
    <component base="LtnSmO"/>
    <component base="CombDiaer" xOffset="1026"/>
    <contour>
      <point x="419" y="0" type="move" name="H"/>
    </contour>
    <contour>
      <point x="996" y="900" type="move" name="R"/>
    </contour>
    <contour>
      <point x="687" y="1500" type="move" name="U"/>
    </contour>
    <contour>
      <point x="399" y="-100" type="move" name="L"/>
    </contour>
    <contour>
      <point x="625" y="0" type="move" name="O"/>
    </contour>
  </outline>
</glyph>
<glyph name="LtnSmUGrave" format="1">
  <advance width="1079"/>
  <unicode hex="00F9"/>
  <outline>
    <component base="LtnSmU"/>
    <component base="CombGrave" xOffset="1039"/>
    <contour>
      <point x="459" y="0" type="move" name="H"/>
    </contour>
    <contour>
      <point x="442" y="-100" type="move" name="L"/>
    </contour>
    <contour>
      <point x="933" y="0" type="move" name="O"/>
    </contour>
    <contour>
      <point x="1079" y="1000" type="move" name="R"/>
    </contour>
    <contour>
      <point x="700" y="1500" type="move" name="U"/>
    </contour>
  </outline>
</glyph>
<glyph name="LtnSmUCircum" format="1">
  <advance width="1079"/>
  <unicode hex="00FB"/>
  <outline>
    <component base="LtnSmU"/>
    <component base="CombCircum" xOffset="1039"/>
    <contour>
      <point x="459" y="0" type="move" name="H"/>
    </contour>
    <contour>
      <point x="442" y="-100" type="move" name="L"/>
    </contour>
    <contour>
      <point x="933" y="0" type="move" name="O"/>
    </contour>
    <contour>
      <point x="1079" y="1000" type="move" name="R"/>
    </contour>
    <contour>
      <point x="700" y="1500" type="move" name="U"/>
    </contour>
  </outline>
</glyph>
<glyph name="LtnSmUDiaer" format="1">
  <advance width="1079"/>
  <unicode hex="00FC"/>
  <outline>
    <component base="LtnSmU"/>
    <component base="CombDiaer" xOffset="1039"/>
    <contour>
      <point x="459" y="0" type="move" name="H"/>
    </contour>
    <contour>
      <point x="442" y="-100" type="move" name="L"/>
    </contour>
    <contour>
      <point x="933" y="0" type="move" name="O"/>
    </contour>
    <contour>
      <point x="1079" y="1000" type="move" name="R"/>
    </contour>
    <contour>
      <point x="700" y="1500" type="move" name="U"/>
    </contour>
  </outline>
</glyph>
<glyph name="LtnSmYAcute" format="1">
  <advance width="1018"/>
  <unicode hex="00FD"/>
  <outline>
    <component base="LtnSmY"/>
    <component base="CombAcute" xOffset="997"/>
    <contour>
      <point x="255" y="-500" type="move" name="L"/>
    </contour>
    <contour>
      <point x="1018" y="1000" type="move" name="R"/>
    </contour>
    <contour>
      <point x="658" y="1500" type="move" name="U"/>
    </contour>
  </outline>
</glyph>
<glyph name="LtnSmThorn" format="2">
  <advance width="1012"/>
  <unicode hex="00FE"/>
  <anchor x="573" y="-100" name="L"/>
  <anchor x="623" y="1540" name="U"/>
  <outline>
    <contour>
      <point x="-197" y="-446" type="line"/>
      <point x="319" y="-446" type="line"/>
      <point x="319" y="-369" type="line"/>
      <point x="190" y="-358" type="line" smooth="yes"/>
      <point x="154" y="-354"/>
      <point x="145" y="-340"/>
      <point x="150" y="-317" type="curve" smooth="yes"/>
      <point x="215" y="12" type="line"/>
      <point x="248" y="-2"/>
      <point x="299" y="-25"/>
      <point x="360" y="-25" type="curve" smooth="yes"/>
      <point x="694" y="-25"/>
      <point x="946" y="297"/>
      <point x="946" y="633" type="curve" smooth="yes"/>
      <point x="946" y="815"/>
      <point x="885" y="1012"/>
      <point x="678" y="1012" type="curve" smooth="yes"/>
      <point x="563" y="1012"/>
      <point x="453" y="930"/>
      <point x="383" y="885" type="curve"/>
      <point x="506" y="1509" type="line"/>
      <point x="426" y="1509" type="line"/>
      <point x="117" y="1448" type="line"/>
      <point x="117" y="1386" type="line"/>
      <point x="289" y="1368" type="line"/>
      <point x="-41" y="-317" type="line" smooth="yes"/>
      <point x="-45" y="-344"/>
      <point x="-63" y="-356"/>
      <point x="-90" y="-358" type="curve" smooth="yes"/>
      <point x="-197" y="-369" type="line"/>
    </contour>
    <contour>
      <point x="401" y="72" type="curve" smooth="yes"/>
      <point x="330" y="72"/>
      <point x="262" y="119"/>
      <point x="238" y="133" type="curve"/>
      <point x="360" y="768" type="line"/>
      <point x="381" y="784"/>
      <point x="485" y="887"/>
      <point x="584" y="887" type="curve" smooth="yes"/>
      <point x="694" y="887"/>
      <point x="743" y="745"/>
      <point x="743" y="625" type="curve" smooth="yes"/>
      <point x="743" y="397"/>
      <point x="625" y="72"/>
    </contour>
  </outline>
</glyph>
<glyph name="LtnSmYDiaer" format="1">
  <advance width="1018"/>
  <unicode hex="00FF"/>
  <outline>
    <component base="LtnSmY"/>
    <component base="CombDiaer" xOffset="997"/>
    <contour>
      <point x="1018" y="1000" type="move" name="R"/>
    </contour>
    <contour>
      <point x="658" y="1500" type="move" name="U"/>
    </contour>
    <contour>
      <point x="255" y="-500" type="move" name="L"/>
    </contour>
  </outline>
</glyph>
<glyph name="LtnCapAMacron" format="1">
  <advance width="1378"/>
  <unicode hex="0100"/>
  <outline>
    <component base="LtnCapA"/>
    <component base="CombMacron" xOffset="1222" yOffset="400"/>
    <contour>
      <point x="572" y="0" type="move" name="H"/>
    </contour>
    <contour>
      <point x="898" y="1870" type="move" name="U"/>
    </contour>
    <contour>
      <point x="551" y="-100" type="move" name="L"/>
    </contour>
    <contour>
      <point x="1175" y="0" type="move" name="O"/>
    </contour>
  </outline>
</glyph>
<glyph name="LtnCapAOgonek" format="1">
  <advance width="1378"/>
  <unicode hex="0104"/>
  <outline>
    <component base="LtnCapA"/>
    <component base="CombOgonek" xOffset="1585"/>
    <contour>
      <point x="572" y="0" type="move" name="H"/>
    </contour>
    <contour>
      <point x="1051" y="-400" type="move" name="L"/>
    </contour>
    <contour>
      <point x="839" y="1500" type="move" name="U"/>
    </contour>
  </outline>
</glyph>
<glyph name="LtnSmAOgonek" format="1">
  <advance width="1067"/>
  <unicode hex="0105"/>
  <outline>
    <component base="LtnSmA"/>
    <component base="CombOgonek" xOffset="1340"/>
    <contour>
      <point x="483" y="0" type="move" name="H"/>
    </contour>
    <contour>
      <point x="806" y="-400" type="move" name="L"/>
    </contour>
    <contour>
      <point x="1067" y="1000" type="move" name="R"/>
    </contour>
    <contour>
      <point x="705" y="1100" type="move" name="U"/>
    </contour>
  </outline>
</glyph>
<glyph name="LtnCapCAcute" format="1">
  <advance width="1290"/>
  <unicode hex="0106"/>
  <outline>
    <component base="LtnCapC"/>
    <component base="CombAcute" xOffset="1285" yOffset="400"/>
    <contour>
      <point x="615" y="0" type="move" name="H"/>
    </contour>
    <contour>
      <point x="946" y="1900" type="move" name="U"/>
    </contour>
    <contour>
      <point x="614" y="-100" type="move" name="L"/>
    </contour>
  </outline>
</glyph>
<glyph name="LtnSmCAcute" format="1">
  <advance width="891"/>
  <unicode hex="0107"/>
  <outline>
    <component base="LtnSmC"/>
    <component base="CombAcute" xOffset="998"/>
    <contour>
      <point x="406" y="0" type="move" name="H"/>
    </contour>
    <contour>
      <point x="380" y="-100" type="move" name="L"/>
    </contour>
    <contour>
      <point x="891" y="1000" type="move" name="R"/>
    </contour>
    <contour>
      <point x="659" y="1500" type="move" name="U"/>
    </contour>
  </outline>
</glyph>
<glyph name="LtnCapCDotAbv" format="1">
  <advance width="1290"/>
  <unicode hex="010A"/>
  <outline>
    <component base="LtnCapC"/>
    <component base="DotAbv" xOffset="669" yOffset="400"/>
    <contour>
      <point x="615" y="0" type="move" name="H"/>
    </contour>
    <contour>
      <point x="946" y="1900" type="move" name="U"/>
    </contour>
    <contour>
      <point x="614" y="-100" type="move" name="L"/>
    </contour>
  </outline>
</glyph>
<glyph name="LtnSmCDotAbv" format="1">
  <advance width="891"/>
  <unicode hex="010B"/>
  <outline>
    <component base="LtnSmC"/>
    <component base="DotAbv" xOffset="382"/>
    <contour>
      <point x="406" y="0" type="move" name="H"/>
    </contour>
    <contour>
      <point x="380" y="-100" type="move" name="L"/>
    </contour>
    <contour>
      <point x="891" y="1000" type="move" name="R"/>
    </contour>
    <contour>
      <point x="659" y="1500" type="move" name="U"/>
    </contour>
  </outline>
</glyph>
<glyph name="LtnCapDCaron" format="1">
  <advance width="1374"/>
  <unicode hex="010E"/>
  <outline>
    <component base="LtnCapD"/>
    <component base="CombCaron" xOffset="1198" yOffset="400"/>
    <contour>
      <point x="527" y="-100" type="move" name="L"/>
    </contour>
    <contour>
      <point x="859" y="1900" type="move" name="U"/>
    </contour>
  </outline>
</glyph>
<glyph name="LtnCapDStrk" format="1">
  <advance width="1374"/>
  <unicode hex="0110"/>
  <outline>
    <contour>
      <point x="59" y="668" type="line"/>
      <point x="711" y="668" type="line"/>
      <point x="711" y="776" type="line"/>
      <point x="59" y="776" type="line"/>
    </contour>
    <component base="LtnCapD"/>
    <contour>
      <point x="820" y="1500" type="move" name="U"/>
    </contour>
    <contour>
      <point x="532" y="-100" type="move" name="L"/>
    </contour>
  </outline>
</glyph>
<glyph name="LtnCapEMacron" format="1">
  <advance width="1143"/>
  <unicode hex="0112"/>
  <outline>
    <component base="LtnCapE"/>
    <component base="CombMacron" xOffset="1117" yOffset="400"/>
    <contour>
      <point x="466" y="0" type="move" name="H"/>
    </contour>
    <contour>
      <point x="1306" y="1200" type="move" name="R"/>
    </contour>
    <contour>
      <point x="793" y="1870" type="move" name="U"/>
    </contour>
    <contour>
      <point x="446" y="-100" type="move" name="L"/>
    </contour>
    <contour>
      <point x="848" y="0" type="move" name="O"/>
    </contour>
  </outline>
</glyph>
<glyph name="LtnCapEBreve" format="1">
  <advance width="1143"/>
  <unicode hex="0114"/>
  <outline>
    <component base="LtnCapE"/>
    <component base="CombBreve" xOffset="1117" yOffset="400"/>
    <contour>
      <point x="466" y="0" type="move" name="H"/>
    </contour>
    <contour>
      <point x="446" y="-100" type="move" name="L"/>
    </contour>
    <contour>
      <point x="848" y="0" type="move" name="O"/>
    </contour>
    <contour>
      <point x="1306" y="1200" type="move" name="R"/>
    </contour>
    <contour>
      <point x="778" y="1900" type="move" name="U"/>
    </contour>
  </outline>
</glyph>
<glyph name="LtnCapEDotAbv" format="1">
  <advance width="1143"/>
  <unicode hex="0116"/>
  <outline>
    <component base="LtnCapE"/>
    <component base="DotAbv" xOffset="501" yOffset="400"/>
    <contour>
      <point x="466" y="0" type="move" name="H"/>
    </contour>
    <contour>
      <point x="446" y="-100" type="move" name="L"/>
    </contour>
    <contour>
      <point x="848" y="0" type="move" name="O"/>
    </contour>
    <contour>
      <point x="1306" y="1200" type="move" name="R"/>
    </contour>
    <contour>
      <point x="778" y="1900" type="move" name="U"/>
    </contour>
  </outline>
</glyph>
<glyph name="LtnSmEDotAbv" format="1">
  <advance width="889"/>
  <unicode hex="0117"/>
  <outline>
    <component base="LtnSmE"/>
    <component base="DotAbv" xOffset="367"/>
    <contour>
      <point x="377" y="0" type="move" name="H"/>
    </contour>
    <contour>
      <point x="889" y="1000" type="move" name="R"/>
    </contour>
    <contour>
      <point x="644" y="1500" type="move" name="U"/>
    </contour>
    <contour>
      <point x="396" y="-100" type="move" name="L"/>
    </contour>
    <contour>
      <point x="569" y="0" type="move" name="O"/>
    </contour>
  </outline>
</glyph>
<glyph name="LtnCapEOgonek" format="1">
  <advance width="1143"/>
  <unicode hex="0118"/>
  <outline>
    <component base="LtnCapE"/>
    <component base="CombOgonek" xOffset="1258"/>
    <contour>
      <point x="466" y="0" type="move" name="H"/>
    </contour>
    <contour>
      <point x="724" y="-400" type="move" name="L"/>
    </contour>
    <contour>
      <point x="1306" y="1200" type="move" name="R"/>
    </contour>
    <contour>
      <point x="734" y="1500" type="move" name="U"/>
    </contour>
  </outline>
</glyph>
<glyph name="LtnSmECaron" format="1">
  <advance width="889"/>
  <unicode hex="011B"/>
  <outline>
    <component base="LtnSmE"/>
    <component base="CombCaron" xOffset="983"/>
    <contour>
      <point x="377" y="0" type="move" name="H"/>
    </contour>
    <contour>
      <point x="889" y="1000" type="move" name="R"/>
    </contour>
    <contour>
      <point x="644" y="1500" type="move" name="U"/>
    </contour>
    <contour>
      <point x="396" y="-100" type="move" name="L"/>
    </contour>
    <contour>
      <point x="569" y="0" type="move" name="O"/>
    </contour>
  </outline>
</glyph>
<glyph name="LtnSmGCircum" format="1">
  <advance width="901"/>
  <unicode hex="011D"/>
  <outline>
    <component base="LtnSmG"/>
    <component base="CombCircum" xOffset="958"/>
    <contour>
      <point x="293" y="-432" type="move" name="H"/>
    </contour>
    <contour>
      <point x="901" y="1000" type="move" name="R"/>
    </contour>
    <contour>
      <point x="619" y="1500" type="move" name="U"/>
    </contour>
    <contour>
      <point x="255" y="-500" type="move" name="L"/>
    </contour>
  </outline>
</glyph>
<glyph name="LtnCapGDotAbv" format="1">
  <advance width="1409"/>
  <unicode hex="0120"/>
  <outline>
    <component base="LtnCapG"/>
    <component base="DotAbv" xOffset="699" yOffset="400"/>
    <contour>
      <point x="664" y="0" type="move" name="H"/>
    </contour>
    <contour>
      <point x="644" y="-100" type="move" name="L"/>
    </contour>
    <contour>
      <point x="976" y="1900" type="move" name="U"/>
    </contour>
  </outline>
</glyph>
<glyph name="LtnSmGDotAbv" format="1">
  <advance width="901"/>
  <unicode hex="0121"/>
  <outline>
    <component base="LtnSmG"/>
    <component base="DotAbv" xOffset="342"/>
    <contour>
      <point x="293" y="-432" type="move" name="H"/>
    </contour>
    <contour>
      <point x="255" y="-500" type="move" name="L"/>
    </contour>
    <contour>
      <point x="901" y="1000" type="move" name="R"/>
    </contour>
    <contour>
      <point x="619" y="1500" type="move" name="U"/>
    </contour>
  </outline>
</glyph>
<glyph name="LtnCapGCedilla" format="1">
  <advance width="1409"/>
  <unicode hex="0122"/>
  <outline>
    <component base="LtnCapG"/>
    <component base="CombCommaBlw" xOffset="1281"/>
    <contour>
      <point x="664" y="0" type="move" name="H"/>
    </contour>
    <contour>
      <point x="568" y="-500" type="move" name="L"/>
    </contour>
    <contour>
      <point x="932" y="1500" type="move" name="U"/>
    </contour>
  </outline>
</glyph>
<glyph name="LtnSmHCircum" format="2">
  <advance width="1073"/>
  <unicode hex="0125"/>
  <anchor x="131" y="0" name="H"/>
  <anchor x="431" y="-100" name="L"/>
  <anchor x="516" y="1940" name="U"/>
  <outline>
    <contour>
      <point x="1069" y="51" type="curve"/>
      <point x="1067" y="123" type="line"/>
      <point x="1020" y="109"/>
      <point x="975" y="84"/>
      <point x="938" y="84" type="curve" smooth="yes"/>
      <point x="913" y="84"/>
      <point x="836" y="106"/>
      <point x="852" y="184" type="curve" smooth="yes"/>
      <point x="965" y="735" type="line" smooth="yes"/>
      <point x="1004" y="920"/>
      <point x="920" y="1012"/>
      <point x="770" y="1012" type="curve" smooth="yes"/>
      <point x="633" y="1012"/>
      <point x="485" y="940"/>
      <point x="401" y="848" type="curve"/>
      <point x="539" y="1509" type="line"/>
      <point x="457" y="1509" type="line"/>
      <point x="137" y="1448" type="line"/>
      <point x="137" y="1386" type="line"/>
      <point x="319" y="1368" type="line"/>
      <point x="37" y="0" type="line"/>
      <point x="225" y="0" type="line"/>
      <point x="375" y="717" type="line"/>
      <point x="465" y="811"/>
      <point x="592" y="877"/>
      <point x="657" y="877" type="curve" smooth="yes"/>
      <point x="702" y="877"/>
      <point x="793" y="821"/>
      <point x="770" y="713" type="curve" smooth="yes"/>
      <point x="645" y="109" type="line" smooth="yes"/>
      <point x="623" y="-2"/>
      <point x="745" y="-25"/>
      <point x="795" y="-25" type="curve" smooth="yes"/>
      <point x="881" y="-25"/>
      <point x="1034" y="39"/>
    </contour>
    <contour>
      <point x="799" y="1568" type="line"/>
      <point x="598" y="1915" type="line"/>
      <point x="437" y="1915" type="line"/>
      <point x="99" y="1568" type="line"/>
      <point x="242" y="1568" type="line"/>
      <point x="488" y="1757" type="line"/>
      <point x="656" y="1568" type="line"/>
    </contour>
  </outline>
</glyph>
<glyph name="LtnCapIMacron" format="1">
  <advance width="1068"/>
  <unicode hex="012A"/>
  <outline>
    <component base="LtnCapI"/>
    <component base="CombMacron.Short" xOffset="158" yOffset="400"/>
    <contour>
      <point x="220" y="0" type="move" name="H"/>
    </contour>
    <contour>
      <point x="200" y="-100" type="move" name="L"/>
    </contour>
    <contour>
      <point x="384" y="0" type="move" name="O"/>
    </contour>
    <contour>
      <point x="767" y="1200" type="move" name="R"/>
    </contour>
    <contour>
      <point x="547" y="1870" type="move" name="U"/>
    </contour>
  </outline>
</glyph>
<glyph name="LtnSmIMacron" format="1">
  <advance width="970"/>
  <unicode hex="012B"/>
  <outline>
    <component base="LtnSmDotlessI"/>
    <component base="CombMacron.Short" xOffset="50"/>
    <contour>
      <point x="194" y="0" type="move" name="H"/>
    </contour>
    <contour>
      <point x="545" y="1000" type="move" name="R"/>
    </contour>
    <contour>
      <point x="439" y="1470" type="move" name="U"/>
    </contour>
    <contour>
      <point x="150" y="-100" type="move" name="L"/>
    </contour>
    <contour>
      <point x="410" y="0" type="move" name="O"/>
    </contour>
  </outline>
</glyph>
<glyph name="LtnCapIBreve" format="1">
  <advance width="643"/>
  <unicode hex="012C"/>
  <outline>
    <component base="LtnCapI"/>
    <component base="CombBreve" xOffset="871" yOffset="400"/>
    <contour>
      <point x="220" y="0" type="move" name="H"/>
    </contour>
    <contour>
      <point x="767" y="1200" type="move" name="R"/>
    </contour>
    <contour>
      <point x="532" y="1900" type="move" name="U"/>
    </contour>
    <contour>
      <point x="200" y="-100" type="move" name="L"/>
    </contour>
    <contour>
      <point x="384" y="0" type="move" name="O"/>
    </contour>
  </outline>
</glyph>
<glyph name="LtnCapIOgonek" format="1">
  <advance width="643"/>
  <unicode hex="012E"/>
  <outline>
    <component base="LtnCapI"/>
    <component base="CombOgonek" xOffset="794"/>
    <contour>
      <point x="220" y="0" type="move" name="H"/>
    </contour>
    <contour>
      <point x="767" y="1200" type="move" name="R"/>
    </contour>
    <contour>
      <point x="488" y="1500" type="move" name="U"/>
    </contour>
    <contour>
      <point x="260" y="-400" type="move" name="L"/>
    </contour>
  </outline>
</glyph>
<glyph name="LtnSmIOgonek" format="1">
  <advance width="545"/>
  <unicode hex="012F"/>
  <outline>
    <component base="LtnSmI"/>
    <component base="CombOgonek" xOffset="818"/>
    <contour>
      <point x="194" y="0" type="move" name="H"/>
    </contour>
    <contour>
      <point x="545" y="1000" type="move" name="R"/>
    </contour>
    <contour>
      <point x="418" y="1100" type="move" name="U"/>
    </contour>
    <contour>
      <point x="284" y="-400" type="move" name="L"/>
    </contour>
  </outline>
</glyph>
<glyph name="LtnCapIDotAbv" format="1">
  <advance width="643"/>
  <unicode hex="0130"/>
  <outline>
    <component base="LtnCapI"/>
    <component base="DotAbv" xOffset="255" yOffset="400"/>
    <contour>
      <point x="220" y="0" type="move" name="H"/>
    </contour>
    <contour>
      <point x="200" y="-100" type="move" name="L"/>
    </contour>
    <contour>
      <point x="384" y="0" type="move" name="O"/>
    </contour>
    <contour>
      <point x="767" y="1200" type="move" name="R"/>
    </contour>
    <contour>
      <point x="532" y="1900" type="move" name="U"/>
    </contour>
  </outline>
</glyph>
<glyph name="LtnCapLigIj" format="1">
  <advance width="1601"/>
  <unicode hex="0132"/>
  <outline>
    <component base="LtnCapI" xOffset="-31"/>
    <component base="LtnCapJ" xOffset="643"/>
    <contour>
      <point x="220" y="0" type="move" name="H"/>
    </contour>
    <contour>
      <point x="915" y="-100" type="move" name="L"/>
    </contour>
    <contour>
      <point x="384" y="0" type="move" name="O"/>
    </contour>
    <contour>
      <point x="1000" y="1500" type="move" name="U"/>
    </contour>
  </outline>
</glyph>
<glyph name="LtnSmLigIj" format="1">
  <advance width="1104"/>
  <unicode hex="0133"/>
  <outline>
    <component base="LtnSmI"/>
    <component base="LtnSmJ" xOffset="545"/>
    <contour>
      <point x="194" y="0" type="move" name="H"/>
    </contour>
    <contour>
      <point x="500" y="-500" type="move" name="L"/>
    </contour>
    <contour>
      <point x="408" y="0" type="move" name="O"/>
    </contour>
    <contour>
      <point x="750" y="1500" type="move" name="U"/>
    </contour>
  </outline>
</glyph>
<glyph name="LtnSmKCedilla" format="1">
  <advance width="1042"/>
  <unicode hex="0137"/>
  <outline>
    <component base="LtnSmK"/>
    <component base="CombCommaBlw" xOffset="1034"/>
    <contour>
      <point x="117" y="0" type="move" name="H"/>
    </contour>
    <contour>
      <point x="1042" y="1000" type="move" name="R"/>
    </contour>
    <contour>
      <point x="713" y="1540" type="move" name="U"/>
    </contour>
    <contour>
      <point x="321" y="-500" type="move" name="L"/>
    </contour>
  </outline>
</glyph>
<glyph name="LtnCapLAcute" format="1">
  <advance width="1061"/>
  <unicode hex="0139"/>
  <outline>
    <component base="LtnCapL"/>
    <component base="CombAcute" xOffset="1077" yOffset="400"/>
    <contour>
      <point x="426" y="0" type="move" name="H"/>
    </contour>
    <contour>
      <point x="406" y="-100" type="move" name="L"/>
    </contour>
    <contour>
      <point x="561" y="1000" type="move" name="R"/>
    </contour>
    <contour>
      <point x="738" y="1900" type="move" name="U"/>
    </contour>
  </outline>
</glyph>
<glyph name="LtnSmLAcute" format="1">
  <advance width="543"/>
  <unicode hex="013A"/>
  <outline>
    <component base="LtnSmL"/>
    <component base="CombAcute" xOffset="869" yOffset="480"/>
    <contour>
      <point x="182" y="0" type="move" name="H"/>
    </contour>
    <contour>
      <point x="162" y="-100" type="move" name="L"/>
    </contour>
    <contour>
      <point x="443" y="1000" type="move" name="R"/>
    </contour>
    <contour>
      <point x="530" y="1980" type="move" name="U"/>
    </contour>
  </outline>
</glyph>
<glyph name="LtnCapLCedilla" format="1">
  <advance width="1061"/>
  <unicode hex="013B"/>
  <outline>
    <component base="LtnCapL"/>
    <component base="CombCommaBlw" xOffset="1043"/>
    <contour>
      <point x="426" y="0" type="move" name="H"/>
    </contour>
    <contour>
      <point x="561" y="1000" type="move" name="R"/>
    </contour>
    <contour>
      <point x="694" y="1500" type="move" name="U"/>
    </contour>
    <contour>
      <point x="330" y="-500" type="move" name="L"/>
    </contour>
  </outline>
</glyph>
<glyph name="LtnSmLCedilla" format="1">
  <advance width="543"/>
  <unicode hex="013C"/>
  <outline>
    <component base="LtnSmL"/>
    <component base="CombCommaBlw" xOffset="799"/>
    <contour>
      <point x="182" y="0" type="move" name="H"/>
    </contour>
    <contour>
      <point x="86" y="-500" type="move" name="L"/>
    </contour>
    <contour>
      <point x="443" y="1000" type="move" name="R"/>
    </contour>
    <contour>
      <point x="486" y="1580" type="move" name="U"/>
    </contour>
  </outline>
</glyph>
<glyph name="LtnCapLCaron" format="2">
  <advance width="1061"/>
  <unicode hex="013D"/>
  <anchor x="426" y="0" name="H"/>
  <anchor x="406" y="-100" name="L"/>
  <anchor x="694" y="1500" name="U"/>
  <outline>
    <contour>
      <point x="-31" y="0" type="line"/>
      <point x="915" y="0" type="line"/>
      <point x="989" y="379" type="line"/>
      <point x="868" y="379" type="line"/>
      <point x="795" y="143" type="line" smooth="yes"/>
      <point x="786" y="119"/>
      <point x="770" y="102"/>
      <point x="743" y="102" type="curve" smooth="yes"/>
      <point x="340" y="102" type="line"/>
      <point x="557" y="1237" type="line" smooth="yes"/>
      <point x="561" y="1257"/>
      <point x="578" y="1276"/>
      <point x="608" y="1278" type="curve" smooth="yes"/>
      <point x="729" y="1288" type="line"/>
      <point x="729" y="1374" type="line"/>
      <point x="197" y="1374" type="line"/>
      <point x="197" y="1288" type="line"/>
      <point x="311" y="1278" type="line" smooth="yes"/>
      <point x="346" y="1276"/>
      <point x="354" y="1260"/>
      <point x="350" y="1237" type="curve" smooth="yes"/>
      <point x="137" y="135" type="line" smooth="yes"/>
      <point x="133" y="111"/>
      <point x="115" y="98"/>
      <point x="88" y="96" type="curve" smooth="yes"/>
      <point x="-31" y="86" type="line"/>
    </contour>
    <contour>
      <point x="788" y="1038" type="line"/>
      <point x="942" y="1067"/>
      <point x="1087" y="1163"/>
      <point x="1087" y="1335" type="curve" smooth="yes"/>
      <point x="1087" y="1409"/>
      <point x="1050" y="1458"/>
      <point x="974" y="1458" type="curve" smooth="yes"/>
      <point x="909" y="1458"/>
      <point x="849" y="1409"/>
      <point x="849" y="1342" type="curve" smooth="yes"/>
      <point x="849" y="1323"/>
      <point x="854" y="1301"/>
      <point x="866" y="1286" type="curve"/>
      <point x="974" y="1286" type="line"/>
      <point x="952" y="1170"/>
      <point x="911" y="1141"/>
      <point x="800" y="1106" type="curve"/>
    </contour>
  </outline>
</glyph>
<glyph name="LtnSmLCaron" format="2">
  <advance width="839"/>
  <unicode hex="013E"/>
  <anchor x="117" y="0" name="H"/>
  <anchor x="96" y="-100" name="L"/>
  <anchor x="420" y="1580" name="U"/>
  <outline>
    <contour>
      <point x="539" y="53" type="curve"/>
      <point x="539" y="131" type="line"/>
      <point x="516" y="125"/>
      <point x="412" y="90"/>
      <point x="373" y="90" type="curve" smooth="yes"/>
      <point x="315" y="90"/>
      <point x="268" y="147"/>
      <point x="279" y="203" type="curve" smooth="yes"/>
      <point x="528" y="1509" type="line"/>
      <point x="449" y="1509" type="line"/>
      <point x="129" y="1448" type="line"/>
      <point x="129" y="1386" type="line"/>
      <point x="311" y="1368" type="line"/>
      <point x="86" y="197" type="line" smooth="yes"/>
      <point x="82" y="170"/>
      <point x="80" y="145"/>
      <point x="80" y="125" type="curve" smooth="yes"/>
      <point x="80" y="37"/>
      <point x="129" y="-25"/>
      <point x="254" y="-25" type="curve" smooth="yes"/>
      <point x="350" y="-25"/>
      <point x="506" y="41"/>
    </contour>
    <contour>
      <point x="874" y="1425" type="curve" smooth="yes"/>
      <point x="874" y="1499"/>
      <point x="837" y="1548"/>
      <point x="761" y="1548" type="curve" smooth="yes"/>
      <point x="696" y="1548"/>
      <point x="636" y="1499"/>
      <point x="636" y="1432" type="curve" smooth="yes"/>
      <point x="636" y="1413"/>
      <point x="641" y="1391"/>
      <point x="653" y="1376" type="curve"/>
      <point x="761" y="1376" type="line"/>
      <point x="739" y="1260"/>
      <point x="698" y="1231"/>
      <point x="587" y="1196" type="curve"/>
      <point x="575" y="1128" type="line"/>
      <point x="729" y="1157"/>
      <point x="874" y="1253"/>
    </contour>
  </outline>
</glyph>
<glyph name="LtnSmLMiddleDot" format="1">
  <advance width="816"/>
  <unicode hex="0140"/>
  <outline>
    <component base="LtnSmL"/>
    <component base="MiddleDot" xOffset="493"/>
    <contour>
      <point x="107" y="0" type="move" name="H"/>
    </contour>
    <contour>
      <point x="86" y="-100" type="move" name="L"/>
    </contour>
    <contour>
      <point x="410" y="1580" type="move" name="U"/>
    </contour>
  </outline>
</glyph>
<glyph name="LtnSmNAcute" format="1">
  <advance width="1085"/>
  <unicode hex="0144"/>
  <outline>
    <component base="LtnSmN"/>
    <component base="CombAcute" xOffset="1033"/>
    <contour>
      <point x="793" y="0" type="move" name="H"/>
    </contour>
    <contour>
      <point x="410" y="-100" type="move" name="L"/>
    </contour>
    <contour>
      <point x="694" y="1500" type="move" name="U"/>
    </contour>
  </outline>
</glyph>
<glyph name="LtnCapNCedilla" format="1">
  <advance width="1456"/>
  <unicode hex="0145"/>
  <outline>
    <component base="LtnCapN"/>
    <component base="CombCommaBlw" xOffset="1235"/>
    <contour>
      <point x="1061" y="0" type="move" name="H"/>
    </contour>
    <contour>
      <point x="522" y="-500" type="move" name="L"/>
    </contour>
    <contour>
      <point x="886" y="1500" type="move" name="U"/>
    </contour>
  </outline>
</glyph>
<glyph name="LtnSmNCedilla" format="1">
  <advance width="1085"/>
  <unicode hex="0146"/>
  <outline>
    <component base="LtnSmN"/>
    <component base="CombCommaBlw" xOffset="1047"/>
    <contour>
      <point x="793" y="0" type="move" name="H"/>
    </contour>
    <contour>
      <point x="650" y="1100" type="move" name="U"/>
    </contour>
    <contour>
      <point x="334" y="-500" type="move" name="L"/>
    </contour>
  </outline>
</glyph>
<glyph name="LtnSmNCaron" format="1">
  <advance width="1085"/>
  <unicode hex="0148"/>
  <outline>
    <component base="LtnSmN"/>
    <component base="CombCaron" xOffset="1033"/>
    <contour>
      <point x="793" y="0" type="move" name="H"/>
    </contour>
    <contour>
      <point x="694" y="1500" type="move" name="U"/>
    </contour>
    <contour>
      <point x="410" y="-100" type="move" name="L"/>
    </contour>
  </outline>
</glyph>
<glyph name="LtnSmEng" format="2">
  <advance width="1057"/>
  <unicode hex="014B"/>
  <anchor x="326" y="-500" name="L"/>
  <anchor x="646" y="1100" name="U"/>
  <outline>
    <contour>
      <point x="977" y="836" type="curve" smooth="yes"/>
      <point x="977" y="958"/>
      <point x="911" y="1012"/>
      <point x="786" y="1012" type="curve" smooth="yes"/>
      <point x="649" y="1012"/>
      <point x="496" y="913"/>
      <point x="406" y="821" type="curve"/>
      <point x="444" y="1012" type="line"/>
      <point x="362" y="1012" type="line"/>
      <point x="53" y="948" type="line"/>
      <point x="53" y="889" type="line"/>
      <point x="225" y="870" type="line"/>
      <point x="47" y="0" type="line"/>
      <point x="238" y="0" type="line"/>
      <point x="379" y="688" type="line"/>
      <point x="469" y="784"/>
      <point x="608" y="866"/>
      <point x="674" y="866" type="curve" smooth="yes"/>
      <point x="742" y="866"/>
      <point x="767" y="815"/>
      <point x="767" y="760" type="curve" smooth="yes"/>
      <point x="767" y="748"/>
      <point x="766" y="736"/>
      <point x="764" y="725" type="curve" smooth="yes"/>
      <point x="614" y="-14" type="line" smooth="yes"/>
      <point x="572" y="-221"/>
      <point x="539" y="-317"/>
      <point x="436" y="-356" type="curve"/>
      <point x="276" y="-236" type="line"/>
      <point x="228" y="-251"/>
      <point x="164" y="-296"/>
      <point x="164" y="-365" type="curve" smooth="yes"/>
      <point x="164" y="-418"/>
      <point x="207" y="-469"/>
      <point x="319" y="-469" type="curve" smooth="yes"/>
      <point x="569" y="-469"/>
      <point x="778" y="-254"/>
      <point x="823" y="-18" type="curve" smooth="yes"/>
      <point x="969" y="750" type="line" smooth="yes"/>
      <point x="975" y="780"/>
      <point x="977" y="811"/>
    </contour>
  </outline>
</glyph>
<glyph name="LtnCapOMacron" format="1">
  <advance width="1454"/>
  <unicode hex="014C"/>
  <outline>
    <component base="LtnCapO"/>
    <component base="CombMacron" xOffset="1276" yOffset="400"/>
    <contour>
      <point x="625" y="0" type="move" name="H"/>
    </contour>
    <contour>
      <point x="1430" y="1250" type="move" name="R"/>
    </contour>
    <contour>
      <point x="952" y="1870" type="move" name="U"/>
    </contour>
    <contour>
      <point x="605" y="-100" type="move" name="L"/>
    </contour>
    <contour>
      <point x="873" y="0" type="move" name="O"/>
    </contour>
  </outline>
</glyph>
<glyph name="LtnSmOMacron" format="1">
  <advance width="1036"/>
  <unicode hex="014D"/>
  <outline>
    <component base="LtnSmO"/>
    <component base="CombMacron" xOffset="1026"/>
    <contour>
      <point x="419" y="0" type="move" name="H"/>
    </contour>
    <contour>
      <point x="996" y="900" type="move" name="R"/>
    </contour>
    <contour>
      <point x="702" y="1470" type="move" name="U"/>
    </contour>
    <contour>
      <point x="399" y="-100" type="move" name="L"/>
    </contour>
    <contour>
      <point x="625" y="0" type="move" name="O"/>
    </contour>
  </outline>
</glyph>
<glyph name="LtnCapOBreve" format="1">
  <advance width="1454"/>
  <unicode hex="014E"/>
  <outline>
    <component base="LtnCapO"/>
    <component base="CombBreve" xOffset="1276" yOffset="400"/>
    <contour>
      <point x="625" y="0" type="move" name="H"/>
    </contour>
    <contour>
      <point x="605" y="-100" type="move" name="L"/>
    </contour>
    <contour>
      <point x="873" y="0" type="move" name="O"/>
    </contour>
    <contour>
      <point x="1430" y="1250" type="move" name="R"/>
    </contour>
    <contour>
      <point x="937" y="1900" type="move" name="U"/>
    </contour>
  </outline>
</glyph>
<glyph name="LtnSmOBreve" format="1">
  <advance width="1036"/>
  <unicode hex="014F"/>
  <outline>
    <component base="LtnSmO"/>
    <component base="CombBreve" xOffset="1026"/>
    <contour>
      <point x="419" y="0" type="move" name="H"/>
    </contour>
    <contour>
      <point x="996" y="900" type="move" name="R"/>
    </contour>
    <contour>
      <point x="687" y="1500" type="move" name="U"/>
    </contour>
    <contour>
      <point x="399" y="-100" type="move" name="L"/>
    </contour>
    <contour>
      <point x="625" y="0" type="move" name="O"/>
    </contour>
  </outline>
</glyph>
<glyph name="LtnCapLigOe" format="2">
  <advance width="2058"/>
  <unicode hex="0152"/>
  <anchor x="925" y="-100" name="L"/>
  <anchor x="1213" y="1500" name="U"/>
  <outline>
    <contour>
      <point x="2103" y="1374" type="line"/>
      <point x="1296" y="1374" type="line"/>
      <point x="1262" y="1184" type="line"/>
      <point x="1188" y="1315"/>
      <point x="1067" y="1407"/>
      <point x="858" y="1407" type="curve" smooth="yes"/>
      <point x="403" y="1407"/>
      <point x="98" y="961"/>
      <point x="98" y="539" type="curve" smooth="yes"/>
      <point x="98" y="178"/>
      <point x="346" y="-33"/>
      <point x="655" y="-33" type="curve" smooth="yes"/>
      <point x="803" y="-33"/>
      <point x="934" y="23"/>
      <point x="1061" y="137" type="curve"/>
      <point x="1032" y="0" type="line"/>
      <point x="1911" y="0" type="line"/>
      <point x="1976" y="340" type="line"/>
      <point x="1851" y="340" type="line"/>
      <point x="1788" y="143" type="line" smooth="yes"/>
      <point x="1780" y="119"/>
      <point x="1765" y="102"/>
      <point x="1739" y="102" type="curve" smooth="yes"/>
      <point x="1255" y="102" type="line"/>
      <point x="1366" y="662" type="line"/>
      <point x="1638" y="662" type="line" smooth="yes"/>
      <point x="1667" y="662"/>
      <point x="1681" y="647"/>
      <point x="1677" y="621" type="curve" smooth="yes"/>
      <point x="1659" y="475" type="line"/>
      <point x="1774" y="475" type="line"/>
      <point x="1866" y="944" type="line"/>
      <point x="1749" y="944" type="line"/>
      <point x="1710" y="807" type="line" smooth="yes"/>
      <point x="1702" y="778"/>
      <point x="1690" y="768"/>
      <point x="1661" y="768" type="curve" smooth="yes"/>
      <point x="1384" y="768" type="line"/>
      <point x="1483" y="1272" type="line"/>
      <point x="1872" y="1272" type="line" smooth="yes"/>
      <point x="1903" y="1272"/>
      <point x="1913" y="1262"/>
      <point x="1913" y="1233" type="curve" smooth="yes"/>
      <point x="1913" y="1067" type="line"/>
      <point x="2044" y="1067" type="line"/>
    </contour>
    <contour>
      <point x="1182" y="854" type="curve" smooth="yes"/>
      <point x="1182" y="492"/>
      <point x="965" y="74"/>
      <point x="670" y="74" type="curve" smooth="yes"/>
      <point x="492" y="74"/>
      <point x="330" y="221"/>
      <point x="330" y="516" type="curve" smooth="yes"/>
      <point x="330" y="887"/>
      <point x="551" y="1305"/>
      <point x="840" y="1305" type="curve" smooth="yes"/>
      <point x="1010" y="1305"/>
      <point x="1182" y="1174"/>
    </contour>
  </outline>
</glyph>
<glyph name="LtnSmRAcute" format="1">
  <advance width="766"/>
  <unicode hex="0155"/>
  <outline>
    <component base="LtnSmR"/>
    <component base="CombAcute" xOffset="883"/>
    <contour>
      <point x="121" y="0" type="move" name="H"/>
    </contour>
    <contour>
      <point x="544" y="1500" type="move" name="U"/>
    </contour>
    <contour>
      <point x="101" y="-100" type="move" name="L"/>
    </contour>
  </outline>
</glyph>
<glyph name="LtnCapRCedilla" format="1">
  <advance width="1313"/>
  <unicode hex="0156"/>
  <outline>
    <component base="LtnCapR"/>
    <component base="CombCommaBlw" xOffset="1115"/>
    <contour>
      <point x="210" y="0" type="move" name="H"/>
    </contour>
    <contour>
      <point x="402" y="-500" type="move" name="L"/>
    </contour>
    <contour>
      <point x="766" y="1500" type="move" name="U"/>
    </contour>
  </outline>
</glyph>
<glyph name="LtnSmRCedilla" format="1">
  <advance width="766"/>
  <unicode hex="0157"/>
  <outline>
    <component base="LtnSmR"/>
    <component base="CombCommaBlw" xOffset="738"/>
    <contour>
      <point x="121" y="0" type="move" name="H"/>
    </contour>
    <contour>
      <point x="25" y="-500" type="move" name="L"/>
    </contour>
    <contour>
      <point x="500" y="1100" type="move" name="U"/>
    </contour>
  </outline>
</glyph>
<glyph name="LtnCapRCaron" format="1">
  <advance width="1313"/>
  <unicode hex="0158"/>
  <outline>
    <component base="LtnCapR"/>
    <component base="CombCaron" xOffset="1149" yOffset="400"/>
    <contour>
      <point x="210" y="0" type="move" name="H"/>
    </contour>
    <contour>
      <point x="810" y="1900" type="move" name="U"/>
    </contour>
    <contour>
      <point x="478" y="-100" type="move" name="L"/>
    </contour>
  </outline>
</glyph>
<glyph name="LtnSmRCaron" format="1">
  <advance width="766"/>
  <unicode hex="0159"/>
  <outline>
    <component base="LtnSmR"/>
    <component base="CombCaron" xOffset="883"/>
    <contour>
      <point x="121" y="0" type="move" name="H"/>
    </contour>
    <contour>
      <point x="101" y="-100" type="move" name="L"/>
    </contour>
    <contour>
      <point x="544" y="1500" type="move" name="U"/>
    </contour>
  </outline>
</glyph>
<glyph name="LtnCapSAcute" format="1">
  <advance width="1067"/>
  <unicode hex="015A"/>
  <outline>
    <component base="LtnCapS"/>
    <component base="CombAcute" xOffset="1110" yOffset="400"/>
    <contour>
      <point x="439" y="0" type="move" name="H"/>
    </contour>
    <contour>
      <point x="419" y="-100" type="move" name="L"/>
    </contour>
    <contour>
      <point x="771" y="1900" type="move" name="U"/>
    </contour>
  </outline>
</glyph>
<glyph name="LtnSmSAcute" format="1">
  <advance width="758"/>
  <unicode hex="015B"/>
  <outline>
    <component base="LtnSmS"/>
    <component base="CombAcute" xOffset="894"/>
    <contour>
      <point x="278" y="0" type="move" name="H"/>
    </contour>
    <contour>
      <point x="555" y="1500" type="move" name="U"/>
    </contour>
    <contour>
      <point x="258" y="-100" type="move" name="L"/>
    </contour>
  </outline>
</glyph>
<glyph name="LtnCapSCircum" format="1">
  <advance width="1067"/>
  <unicode hex="015C"/>
  <outline>
    <component base="LtnCapS"/>
    <component base="CombCircum" xOffset="1110" yOffset="400"/>
    <contour>
      <point x="439" y="0" type="move" name="H"/>
    </contour>
    <contour>
      <point x="771" y="1900" type="move" name="U"/>
    </contour>
    <contour>
      <point x="419" y="-100" type="move" name="L"/>
    </contour>
  </outline>
</glyph>
<glyph name="LtnSmSCircum" format="1">
  <advance width="758"/>
  <unicode hex="015D"/>
  <outline>
    <component base="LtnSmS"/>
    <component base="CombCircum" xOffset="894"/>
    <contour>
      <point x="278" y="0" type="move" name="H"/>
    </contour>
    <contour>
      <point x="555" y="1500" type="move" name="U"/>
    </contour>
    <contour>
      <point x="258" y="-100" type="move" name="L"/>
    </contour>
  </outline>
</glyph>
<glyph name="LtnCapSCedilla" format="1">
  <advance width="1067"/>
  <unicode hex="015E"/>
  <outline>
    <component base="LtnCapS"/>
    <component base="CombCedilla" xOffset="1056"/>
    <contour>
      <point x="323" y="-600" type="move" name="L"/>
    </contour>
    <contour>
      <point x="727" y="1500" type="move" name="U"/>
    </contour>
  </outline>
</glyph>
<glyph name="LtnSmSCedilla" format="1">
  <advance width="758"/>
  <unicode hex="015F"/>
  <outline>
    <component base="LtnSmS"/>
    <component base="CombCedilla" xOffset="895"/>
    <contour>
      <point x="162" y="-600" type="move" name="L"/>
    </contour>
    <contour>
      <point x="511" y="1100" type="move" name="U"/>
    </contour>
  </outline>
</glyph>
<glyph name="LtnCapSCaron" format="1">
  <advance width="1067"/>
  <unicode hex="0160"/>
  <outline>
    <component base="LtnCapS"/>
    <component base="CombCaron" xOffset="1110" yOffset="400"/>
    <contour>
      <point x="439" y="0" type="move" name="H"/>
    </contour>
    <contour>
      <point x="419" y="-100" type="move" name="L"/>
    </contour>
    <contour>
      <point x="771" y="1900" type="move" name="U"/>
    </contour>
  </outline>
</glyph>
<glyph name="LtnSmSCaron" format="1">
  <advance width="758"/>
  <unicode hex="0161"/>
  <outline>
    <component base="LtnSmS"/>
    <component base="CombCaron" xOffset="894"/>
    <contour>
      <point x="278" y="0" type="move" name="H"/>
    </contour>
    <contour>
      <point x="258" y="-100" type="move" name="L"/>
    </contour>
    <contour>
      <point x="555" y="1500" type="move" name="U"/>
    </contour>
  </outline>
</glyph>
<glyph name="LtnSmTCedilla" format="1">
  <advance width="614"/>
  <unicode hex="0163"/>
  <outline>
    <component base="LtnSmT"/>
    <component base="CombCedilla" xOffset="873"/>
    <contour>
      <point x="614" y="1000" type="move" name="R"/>
    </contour>
    <contour>
      <point x="487" y="1363" type="move" name="U"/>
    </contour>
    <contour>
      <point x="140" y="-600" type="move" name="L"/>
    </contour>
  </outline>
</glyph>
<glyph name="LtnCapTCaron" format="1">
  <advance width="1200"/>
  <unicode hex="0164"/>
  <outline>
    <component base="LtnCapT"/>
    <component base="CombCaron" xOffset="1151" yOffset="400"/>
    <contour>
      <point x="500" y="0" type="move" name="H"/>
    </contour>
    <contour>
      <point x="812" y="1900" type="move" name="U"/>
    </contour>
    <contour>
      <point x="480" y="-100" type="move" name="L"/>
    </contour>
  </outline>
</glyph>
<glyph name="LtnSmTStrk" format="2">
  <advance width="614"/>
  <unicode hex="0167"/>
  <anchor x="231" y="-100" name="L"/>
  <anchor x="494" y="1363" name="U"/>
  <outline>
    <contour>
      <point x="715" y="858" type="line"/>
      <point x="715" y="952" type="line"/>
      <point x="432" y="952" type="line"/>
      <point x="473" y="1186" type="line"/>
      <point x="348" y="1186" type="line"/>
      <point x="248" y="981" type="line"/>
      <point x="94" y="913" type="line"/>
      <point x="94" y="846" type="line"/>
      <point x="223" y="858" type="line"/>
      <point x="98" y="236" type="line" smooth="yes"/>
      <point x="92" y="207"/>
      <point x="90" y="178"/>
      <point x="90" y="152" type="curve" smooth="yes"/>
      <point x="90" y="51"/>
      <point x="135" y="-25"/>
      <point x="283" y="-25" type="curve" smooth="yes"/>
      <point x="401" y="-25"/>
      <point x="582" y="53"/>
      <point x="616" y="68" type="curve"/>
      <point x="616" y="150" type="line"/>
      <point x="573" y="135"/>
      <point x="481" y="100"/>
      <point x="403" y="100" type="curve" smooth="yes"/>
      <point x="334" y="100"/>
      <point x="270" y="143"/>
      <point x="285" y="215" type="curve" smooth="yes"/>
      <point x="414" y="858" type="line"/>
    </contour>
    <contour>
      <point x="634" y="455" type="line"/>
      <point x="634" y="568" type="line"/>
      <point x="15" y="568" type="line"/>
      <point x="15" y="455" type="line"/>
    </contour>
  </outline>
</glyph>
<glyph name="LtnSmUTilde" format="1">
  <advance width="1079"/>
  <unicode hex="0169"/>
  <outline>
    <component base="LtnSmU"/>
    <component base="SmTilde" xOffset="173"/>
    <contour>
      <point x="459" y="0" type="move" name="H"/>
    </contour>
    <contour>
      <point x="442" y="-100" type="move" name="L"/>
    </contour>
    <contour>
      <point x="933" y="0" type="move" name="O"/>
    </contour>
    <contour>
      <point x="1079" y="1000" type="move" name="R"/>
    </contour>
    <contour>
      <point x="700" y="1500" type="move" name="U"/>
    </contour>
  </outline>
</glyph>
<glyph name="LtnCapUMacron" format="1">
  <advance width="1448"/>
  <unicode hex="016A"/>
  <outline>
    <component base="LtnCapU"/>
    <component base="CombMacron" xOffset="1283" yOffset="400"/>
    <contour>
      <point x="615" y="0" type="move" name="H"/>
    </contour>
    <contour>
      <point x="612" y="-100" type="move" name="L"/>
    </contour>
    <contour>
      <point x="908" y="0" type="move" name="O"/>
    </contour>
    <contour>
      <point x="1540" y="1350" type="move" name="R"/>
    </contour>
    <contour>
      <point x="959" y="1870" type="move" name="U"/>
    </contour>
  </outline>
</glyph>
<glyph name="LtnCapURingAbv" format="1">
  <advance width="1448"/>
  <unicode hex="016E"/>
  <outline>
    <component base="LtnCapU"/>
    <component base="RingAbv" xOffset="544" yOffset="400"/>
    <contour>
      <point x="615" y="0" type="move" name="H"/>
    </contour>
    <contour>
      <point x="1540" y="1350" type="move" name="R"/>
    </contour>
    <contour>
      <point x="974" y="2060" type="move" name="U"/>
    </contour>
    <contour>
      <point x="612" y="-100" type="move" name="L"/>
    </contour>
    <contour>
      <point x="908" y="0" type="move" name="O"/>
    </contour>
  </outline>
</glyph>
<glyph name="LtnSmURingAbv" format="1">
  <advance width="1079"/>
  <unicode hex="016F"/>
  <outline>
    <component base="LtnSmU"/>
    <component base="RingAbv" xOffset="300"/>
    <contour>
      <point x="459" y="0" type="move" name="H"/>
    </contour>
    <contour>
      <point x="442" y="-100" type="move" name="L"/>
    </contour>
    <contour>
      <point x="933" y="0" type="move" name="O"/>
    </contour>
    <contour>
      <point x="1079" y="1000" type="move" name="R"/>
    </contour>
    <contour>
      <point x="730" y="1660" type="move" name="U"/>
    </contour>
  </outline>
</glyph>
<glyph name="LtnSmUDblAcute" format="1">
  <advance width="1079"/>
  <unicode hex="0171"/>
  <outline>
    <component base="LtnSmU"/>
    <component base="DblAcuteAccent" xOffset="192"/>
    <contour>
      <point x="459" y="0" type="move" name="H"/>
    </contour>
    <contour>
      <point x="442" y="-100" type="move" name="L"/>
    </contour>
    <contour>
      <point x="933" y="0" type="move" name="O"/>
    </contour>
    <contour>
      <point x="1079" y="1000" type="move" name="R"/>
    </contour>
    <contour>
      <point x="700" y="1500" type="move" name="U"/>
    </contour>
  </outline>
</glyph>
<glyph name="LtnCapUOgonek" format="1">
  <advance width="1448"/>
  <unicode hex="0172"/>
  <outline>
    <component base="LtnCapU"/>
    <component base="CombOgonek" xOffset="1211"/>
    <contour>
      <point x="615" y="0" type="move" name="H"/>
    </contour>
    <contour>
      <point x="574" y="-400" type="move" name="L"/>
    </contour>
    <contour>
      <point x="1448" y="1000" type="move" name="R"/>
    </contour>
    <contour>
      <point x="900" y="1500" type="move" name="U"/>
    </contour>
  </outline>
</glyph>
<glyph name="LtnSmUOgonek" format="1">
  <advance width="1079"/>
  <unicode hex="0173"/>
  <outline>
    <component base="LtnSmU"/>
    <component base="CombOgonek" xOffset="1319"/>
    <contour>
      <point x="686" y="1100" type="move" name="U"/>
    </contour>
    <contour>
      <point x="395" y="-400" type="move" name="L"/>
    </contour>
  </outline>
</glyph>
<glyph name="LtnCapWCircum" format="1">
  <advance width="1898"/>
  <unicode hex="0174"/>
  <outline>
    <component base="LtnCapW"/>
    <component base="CombCircum" xOffset="1536" yOffset="400"/>
    <contour>
      <point x="1197" y="1900" type="move" name="U"/>
    </contour>
    <contour>
      <point x="855" y="-100" type="move" name="L"/>
    </contour>
  </outline>
</glyph>
<glyph name="LtnSmWCircum" format="1">
  <advance width="1438"/>
  <unicode hex="0175"/>
  <outline>
    <component base="LtnSmW"/>
    <component base="CombCircum" xOffset="1174"/>
    <contour>
      <point x="835" y="1500" type="move" name="U"/>
    </contour>
    <contour>
      <point x="521" y="-100" type="move" name="L"/>
    </contour>
  </outline>
</glyph>
<glyph name="LtnCapYCircum" format="1">
  <advance width="1309"/>
  <unicode hex="0176"/>
  <outline>
    <component base="LtnCapY"/>
    <component base="CombCircum" xOffset="1211" yOffset="400"/>
    <contour>
      <point x="872" y="1900" type="move" name="U"/>
    </contour>
    <contour>
      <point x="540" y="-100" type="move" name="L"/>
    </contour>
  </outline>
</glyph>
<glyph name="LtnSmYCircum" format="1">
  <advance width="1018"/>
  <unicode hex="0177"/>
  <outline>
    <component base="LtnSmY"/>
    <component base="CombCircum" xOffset="997"/>
    <contour>
      <point x="1018" y="1000" type="move" name="R"/>
    </contour>
    <contour>
      <point x="658" y="1500" type="move" name="U"/>
    </contour>
    <contour>
      <point x="255" y="-500" type="move" name="L"/>
    </contour>
  </outline>
</glyph>
<glyph name="LtnCapZAcute" format="1">
  <advance width="1153"/>
  <unicode hex="0179"/>
  <outline>
    <component base="LtnCapZ"/>
    <component base="CombAcute" xOffset="1137" yOffset="400"/>
    <contour>
      <point x="466" y="-100" type="move" name="L"/>
    </contour>
    <contour>
      <point x="798" y="1900" type="move" name="U"/>
    </contour>
  </outline>
</glyph>
<glyph name="LtnSmZAcute" format="1">
  <advance width="911"/>
  <unicode hex="017A"/>
  <outline>
    <component base="LtnSmZ"/>
    <component base="CombAcute" xOffset="943"/>
    <contour>
      <point x="368" y="0" type="move" name="H"/>
    </contour>
    <contour>
      <point x="604" y="1500" type="move" name="U"/>
    </contour>
    <contour>
      <point x="348" y="-100" type="move" name="L"/>
    </contour>
  </outline>
</glyph>
<glyph name="LtnSmZDotAbv" format="1">
  <advance width="911"/>
  <unicode hex="017C"/>
  <outline>
    <component base="LtnSmZ"/>
    <component base="DotAbv" xOffset="327"/>
    <contour>
      <point x="368" y="0" type="move" name="H"/>
    </contour>
    <contour>
      <point x="348" y="-100" type="move" name="L"/>
    </contour>
    <contour>
      <point x="604" y="1500" type="move" name="U"/>
    </contour>
  </outline>
</glyph>
<glyph name="LtnCapZCaron" format="1">
  <advance width="1153"/>
  <unicode hex="017D"/>
  <outline>
    <component base="LtnCapZ"/>
    <component base="CombCaron" xOffset="1137" yOffset="400"/>
    <contour>
      <point x="466" y="-100" type="move" name="L"/>
    </contour>
    <contour>
      <point x="798" y="1900" type="move" name="U"/>
    </contour>
  </outline>
</glyph>
<glyph name="LtnSmZCaron" format="1">
  <advance width="911"/>
  <unicode hex="017E"/>
  <outline>
    <component base="LtnSmZ"/>
    <component base="CombCaron" xOffset="943"/>
    <contour>
      <point x="368" y="0" type="move" name="H"/>
    </contour>
    <contour>
      <point x="604" y="1500" type="move" name="U"/>
    </contour>
    <contour>
      <point x="348" y="-100" type="move" name="L"/>
    </contour>
  </outline>
</glyph>
<glyph name="LtnSmBBarredStem" format="2">
  <advance width="1008"/>
  <unicode hex="0180"/>
  <anchor x="352" y="-100" name="L"/>
  <anchor x="668" y="1540" name="U"/>
  <outline>
    <contour>
      <point x="942" y="635" type="curve" smooth="yes"/>
      <point x="942" y="805"/>
      <point x="870" y="1012"/>
      <point x="659" y="1012" type="curve" smooth="yes"/>
      <point x="561" y="1012"/>
      <point x="455" y="956"/>
      <point x="381" y="889" type="curve"/>
      <point x="418" y="1096" type="line"/>
      <point x="682" y="1096" type="line"/>
      <point x="707" y="1208" type="line"/>
      <point x="438" y="1208" type="line"/>
      <point x="498" y="1509" type="line"/>
      <point x="416" y="1509" type="line"/>
      <point x="96" y="1448" type="line"/>
      <point x="96" y="1386" type="line"/>
      <point x="279" y="1368" type="line"/>
      <point x="250" y="1208" type="line"/>
      <point x="98" y="1208" type="line"/>
      <point x="78" y="1096" type="line"/>
      <point x="227" y="1096" type="line"/>
      <point x="37" y="70" type="line"/>
      <point x="133" y="8"/>
      <point x="250" y="-25"/>
      <point x="365" y="-25" type="curve" smooth="yes"/>
      <point x="780" y="-25"/>
      <point x="942" y="381"/>
    </contour>
    <contour>
      <point x="739" y="627" type="curve" smooth="yes"/>
      <point x="739" y="381"/>
      <point x="598" y="72"/>
      <point x="410" y="72" type="curve" smooth="yes"/>
      <point x="336" y="72"/>
      <point x="268" y="111"/>
      <point x="242" y="152" type="curve"/>
      <point x="358" y="772" type="line"/>
      <point x="426" y="831"/>
      <point x="526" y="877"/>
      <point x="592" y="877" type="curve" smooth="yes"/>
      <point x="641" y="877"/>
      <point x="739" y="811"/>
    </contour>
  </outline>
</glyph>
<glyph name="LtnSmBTopbar" format="2">
  <advance width="1067"/>
  <unicode hex="0183"/>
  <anchor x="393" y="-100" name="L"/>
  <anchor x="709" y="1540" name="U"/>
  <outline>
    <contour>
      <point x="365" y="-25" type="curve" smooth="yes"/>
      <point x="780" y="-25"/>
      <point x="942" y="381"/>
      <point x="942" y="635" type="curve" smooth="yes"/>
      <point x="942" y="805"/>
      <point x="870" y="1012"/>
      <point x="659" y="1012" type="curve" smooth="yes"/>
      <point x="561" y="1012"/>
      <point x="453" y="956"/>
      <point x="379" y="889" type="curve"/>
      <point x="470" y="1370" type="line"/>
      <point x="474" y="1386"/>
      <point x="493" y="1413"/>
      <point x="521" y="1413" type="curve" smooth="yes"/>
      <point x="806" y="1413" type="line" smooth="yes"/>
      <point x="827" y="1413"/>
      <point x="835" y="1392"/>
      <point x="833" y="1374" type="curve"/>
      <point x="825" y="1190" type="line"/>
      <point x="937" y="1190" type="line"/>
      <point x="1001" y="1509" type="line"/>
      <point x="306" y="1509" type="line"/>
      <point x="37" y="70" type="line"/>
      <point x="133" y="8"/>
      <point x="250" y="-25"/>
    </contour>
    <contour>
      <point x="410" y="72" type="curve" smooth="yes"/>
      <point x="336" y="72"/>
      <point x="268" y="113"/>
      <point x="242" y="152" type="curve"/>
      <point x="356" y="772" type="line"/>
      <point x="426" y="831"/>
      <point x="526" y="877"/>
      <point x="592" y="877" type="curve" smooth="yes"/>
      <point x="641" y="877"/>
      <point x="739" y="811"/>
      <point x="739" y="627" type="curve" smooth="yes"/>
      <point x="739" y="381"/>
      <point x="598" y="72"/>
    </contour>
  </outline>
</glyph>
<glyph name="LtnCapTnSix" format="1">
  <advance width="1202"/>
  <unicode hex="0184"/>
  <outline>
    <contour>
      <point x="128" y="959" type="line"/>
      <point x="264" y="793" type="line"/>
      <point x="137" y="139" type="line"/>
      <point x="135" y="123"/>
      <point x="115" y="98"/>
      <point x="86" y="96" type="curve" smooth="yes"/>
      <point x="-57" y="88" type="line"/>
      <point x="-57" y="0" type="line"/>
      <point x="432" y="0" type="line" smooth="yes"/>
      <point x="802" y="0"/>
      <point x="1135" y="55"/>
      <point x="1135" y="459" type="curve" smooth="yes"/>
      <point x="1135" y="686"/>
      <point x="885" y="764"/>
      <point x="617" y="764" type="curve" smooth="yes"/>
      <point x="558" y="764"/>
      <point x="465" y="754"/>
      <point x="465" y="754" type="curve"/>
      <point x="589" y="1401" type="line"/>
    </contour>
    <contour>
      <point x="911" y="438" type="curve" smooth="yes"/>
      <point x="911" y="194"/>
      <point x="731" y="94"/>
      <point x="438" y="94" type="curve" smooth="yes"/>
      <point x="387" y="94"/>
      <point x="336" y="98"/>
      <point x="336" y="98" type="curve"/>
      <point x="445" y="656" type="line"/>
      <point x="445" y="656"/>
      <point x="535" y="666"/>
      <point x="578" y="666" type="curve" smooth="yes"/>
      <point x="793" y="666"/>
      <point x="911" y="604"/>
    </contour>
    <contour>
      <point x="761" y="1500" type="move" name="U"/>
    </contour>
    <contour>
      <point x="473" y="-100" type="move" name="L"/>
    </contour>
  </outline>
</glyph>
<glyph name="LtnSmTnSix" format="2">
  <advance width="1008"/>
  <unicode hex="0185"/>
  <anchor x="298" y="-100" name="L"/>
  <anchor x="614" y="1540" name="U"/>
  <outline>
    <contour>
      <point x="942" y="635" type="curve" smooth="yes"/>
      <point x="942" y="805"/>
      <point x="870" y="1012"/>
      <point x="659" y="1012" type="curve" smooth="yes"/>
      <point x="561" y="1012"/>
      <point x="453" y="956"/>
      <point x="379" y="889" type="curve"/>
      <point x="506" y="1566" type="line"/>
      <point x="37" y="1121" type="line"/>
      <point x="201" y="951" type="line"/>
      <point x="37" y="70" type="line"/>
      <point x="133" y="8"/>
      <point x="250" y="-25"/>
      <point x="365" y="-25" type="curve" smooth="yes"/>
      <point x="780" y="-25"/>
      <point x="942" y="381"/>
    </contour>
    <contour>
      <point x="739" y="627" type="curve" smooth="yes"/>
      <point x="739" y="381"/>
      <point x="598" y="72"/>
      <point x="410" y="72" type="curve" smooth="yes"/>
      <point x="336" y="72"/>
      <point x="268" y="113"/>
      <point x="242" y="152" type="curve"/>
      <point x="356" y="772" type="line"/>
      <point x="426" y="831"/>
      <point x="526" y="877"/>
      <point x="592" y="877" type="curve" smooth="yes"/>
      <point x="641" y="877"/>
      <point x="739" y="811"/>
    </contour>
  </outline>
</glyph>
<glyph name="LtnCapOpnO" format="2">
  <advance width="1290"/>
  <unicode hex="0186"/>
  <anchor x="509" y="-100" name="L"/>
  <anchor x="797" y="1500" name="U"/>
  <outline>
    <contour>
      <point x="1249" y="827" type="curve" smooth="yes"/>
      <point x="1249" y="1118"/>
      <point x="1085" y="1407"/>
      <point x="680" y="1407" type="curve" smooth="yes"/>
      <point x="501" y="1407"/>
      <point x="305" y="1343"/>
      <point x="258" y="1325" type="curve"/>
      <point x="203" y="993" type="line"/>
      <point x="322" y="993" type="line"/>
      <point x="412" y="1227" type="line" smooth="yes"/>
      <point x="419" y="1245"/>
      <point x="444" y="1262"/>
      <point x="459" y="1270" type="curve" smooth="yes"/>
      <point x="470" y="1276"/>
      <point x="524" y="1303"/>
      <point x="612" y="1303" type="curve" smooth="yes"/>
      <point x="842" y="1303"/>
      <point x="1030" y="1157"/>
      <point x="1030" y="850" type="curve" smooth="yes"/>
      <point x="1030" y="377"/>
      <point x="729" y="72"/>
      <point x="416" y="72" type="curve" smooth="yes"/>
      <point x="317" y="72"/>
      <point x="252" y="116"/>
      <point x="242" y="123" type="curve" smooth="yes"/>
      <point x="226" y="134"/>
      <point x="205" y="156"/>
      <point x="205" y="178" type="curve" smooth="yes"/>
      <point x="205" y="369" type="line"/>
      <point x="84" y="369" type="line"/>
      <point x="29" y="47" type="line"/>
      <point x="184" y="-2"/>
      <point x="293" y="-33"/>
      <point x="426" y="-33" type="curve" smooth="yes"/>
      <point x="913" y="-33"/>
      <point x="1249" y="391"/>
    </contour>
  </outline>
</glyph>
<glyph name="LtnCapAfricanD" format="1">
  <advance width="1374"/>
  <unicode hex="0189"/>
  <outline>
    <contour>
      <point x="59" y="668" type="line"/>
      <point x="711" y="668" type="line"/>
      <point x="711" y="776" type="line"/>
      <point x="59" y="776" type="line"/>
    </contour>
    <component base="LtnCapD"/>
    <contour>
      <point x="820" y="1500" type="move" name="U"/>
    </contour>
    <contour>
      <point x="532" y="-100" type="move" name="L"/>
    </contour>
  </outline>
</glyph>
<glyph name="LtnSmTrndDelta" format="2">
  <advance width="1029"/>
  <unicode hex="018D"/>
  <anchor x="290" y="-500" name="L"/>
  <anchor x="650" y="1100" name="U"/>
  <outline>
    <contour>
      <point x="322" y="-525" type="curve" smooth="yes"/>
      <point x="475" y="-525"/>
      <point x="677" y="-425"/>
      <point x="677" y="-246" type="curve" smooth="yes"/>
      <point x="677" y="-46"/>
      <point x="282" y="117"/>
      <point x="282" y="452" type="curve" smooth="yes"/>
      <point x="282" y="691"/>
      <point x="423" y="920"/>
      <point x="597" y="920" type="curve" smooth="yes"/>
      <point x="699" y="920"/>
      <point x="759" y="842"/>
      <point x="759" y="673" type="curve" smooth="yes"/>
      <point x="759" y="391"/>
      <point x="496" y="171"/>
      <point x="311" y="124" type="curve"/>
      <point x="290" y="43" type="line"/>
      <point x="575" y="117"/>
      <point x="966" y="290"/>
      <point x="966" y="688" type="curve" smooth="yes"/>
      <point x="966" y="921"/>
      <point x="795" y="1012"/>
      <point x="603" y="1012" type="curve" smooth="yes"/>
      <point x="383" y="1012"/>
      <point x="75" y="804"/>
      <point x="75" y="434" type="curve" smooth="yes"/>
      <point x="75" y="47"/>
      <point x="516" y="-116"/>
      <point x="516" y="-293" type="curve" smooth="yes"/>
      <point x="516" y="-386"/>
      <point x="420" y="-409"/>
      <point x="348" y="-409" type="curve" smooth="yes"/>
      <point x="283" y="-409"/>
      <point x="249" y="-396"/>
      <point x="204" y="-344" type="curve"/>
      <point x="197" y="-181" type="line"/>
      <point x="180" y="-164"/>
      <point x="139" y="-156"/>
      <point x="118" y="-156" type="curve" smooth="yes"/>
      <point x="35" y="-156"/>
      <point x="-25" y="-233"/>
      <point x="-25" y="-303" type="curve" smooth="yes"/>
      <point x="-25" y="-395"/>
      <point x="100" y="-525"/>
    </contour>
  </outline>
</glyph>
<glyph name="LtnCapRevE" format="2">
  <advance width="1158"/>
  <unicode hex="018E"/>
  <anchor x="462" y="-100" name="L"/>
  <anchor x="744" y="1500" name="U"/>
  <outline>
    <contour>
      <point x="292" y="1374" type="line"/>
      <point x="233" y="1069" type="line"/>
      <point x="354" y="1069" type="line"/>
      <point x="416" y="1237" type="line"/>
      <point x="422" y="1257"/>
      <point x="442" y="1276"/>
      <point x="461" y="1276" type="curve" smooth="yes"/>
      <point x="896" y="1276" type="line"/>
      <point x="799" y="766" type="line"/>
      <point x="498" y="766" type="line" smooth="yes"/>
      <point x="479" y="766"/>
      <point x="465" y="786"/>
      <point x="468" y="801" type="curve"/>
      <point x="474" y="942" type="line"/>
      <point x="372" y="942" type="line"/>
      <point x="285" y="485" type="line"/>
      <point x="387" y="485" type="line"/>
      <point x="435" y="626" type="line"/>
      <point x="438" y="641"/>
      <point x="461" y="663"/>
      <point x="478" y="663" type="curve" smooth="yes"/>
      <point x="779" y="663" type="line"/>
      <point x="672" y="100" type="line"/>
      <point x="164" y="100" type="line" smooth="yes"/>
      <point x="147" y="100"/>
      <point x="134" y="125"/>
      <point x="135" y="139" type="curve" smooth="yes"/>
      <point x="137" y="342" type="line"/>
      <point x="30" y="342" type="line"/>
      <point x="-35" y="0" type="line"/>
      <point x="1021" y="0" type="line"/>
      <point x="1021" y="88" type="line"/>
      <point x="920" y="96" type="line" smooth="yes"/>
      <point x="891" y="98"/>
      <point x="880" y="121"/>
      <point x="883" y="141" type="curve" smooth="yes"/>
      <point x="1092" y="1233" type="line" smooth="yes"/>
      <point x="1096" y="1253"/>
      <point x="1116" y="1276"/>
      <point x="1145" y="1278" type="curve" smooth="yes"/>
      <point x="1250" y="1286" type="line"/>
      <point x="1250" y="1374" type="line"/>
    </contour>
  </outline>
</glyph>
<glyph name="LtnCapFHook" format="2">
  <advance width="1053"/>
  <unicode hex="0191"/>
  <anchor x="542" y="-100" name="L"/>
  <anchor x="694" y="1500" name="U"/>
  <outline>
    <contour>
      <point x="-231" y="-469" type="curve" smooth="yes"/>
      <point x="66" y="-469"/>
      <point x="252" y="-338"/>
      <point x="305" y="-66" type="curve" smooth="yes"/>
      <point x="442" y="641" type="line"/>
      <point x="702" y="641" type="line" smooth="yes"/>
      <point x="731" y="641"/>
      <point x="748" y="627"/>
      <point x="743" y="600" type="curve" smooth="yes"/>
      <point x="723" y="457" type="line"/>
      <point x="840" y="457" type="line"/>
      <point x="930" y="924" type="line"/>
      <point x="813" y="924" type="line"/>
      <point x="774" y="784" type="line"/>
      <point x="768" y="756"/>
      <point x="754" y="745"/>
      <point x="725" y="745" type="curve" smooth="yes"/>
      <point x="463" y="745" type="line"/>
      <point x="563" y="1272" type="line"/>
      <point x="930" y="1272" type="line" smooth="yes"/>
      <point x="961" y="1272"/>
      <point x="971" y="1262"/>
      <point x="971" y="1233" type="curve" smooth="yes"/>
      <point x="971" y="1044" type="line"/>
      <point x="1102" y="1044" type="line"/>
      <point x="1165" y="1374" type="line"/>
      <point x="195" y="1374" type="line"/>
      <point x="195" y="1288" type="line"/>
      <point x="309" y="1278" type="line" smooth="yes"/>
      <point x="346" y="1276"/>
      <point x="354" y="1260"/>
      <point x="350" y="1237" type="curve" smooth="yes"/>
      <point x="100" y="-57" type="line" smooth="yes"/>
      <point x="74" y="-188"/>
      <point x="39" y="-279"/>
      <point x="0" y="-311" type="curve" smooth="yes"/>
      <point x="-35" y="-342"/>
      <point x="-70" y="-348"/>
      <point x="-113" y="-356" type="curve"/>
      <point x="-252" y="-182" type="line"/>
      <point x="-309" y="-182"/>
      <point x="-391" y="-266"/>
      <point x="-391" y="-336" type="curve" smooth="yes"/>
      <point x="-391" y="-414"/>
      <point x="-309" y="-469"/>
    </contour>
  </outline>
</glyph>
<glyph name="LtnCapGamma" format="2">
  <advance width="1366"/>
  <unicode hex="0194"/>
  <anchor x="605" y="-100" name="L"/>
  <anchor x="893" y="1500" name="U"/>
  <outline>
    <contour>
      <point x="1495" y="1294" type="line"/>
      <point x="1495" y="1374" type="line"/>
      <point x="1065" y="1374" type="line"/>
      <point x="1065" y="1294" type="line"/>
      <point x="1155" y="1288" type="line" smooth="yes"/>
      <point x="1200" y="1284"/>
      <point x="1208" y="1266"/>
      <point x="1192" y="1243" type="curve"/>
      <point x="1192" y="1243"/>
      <point x="788" y="719"/>
      <point x="748" y="664" type="curve"/>
      <point x="731" y="713"/>
      <point x="559" y="1237"/>
      <point x="559" y="1237" type="curve"/>
      <point x="551" y="1266"/>
      <point x="565" y="1286"/>
      <point x="602" y="1288" type="curve" smooth="yes"/>
      <point x="711" y="1294" type="line"/>
      <point x="711" y="1374" type="line"/>
      <point x="170" y="1374" type="line"/>
      <point x="170" y="1294" type="line"/>
      <point x="311" y="1284" type="line"/>
      <point x="586" y="451" type="line"/>
      <point x="559" y="418"/>
      <point x="375" y="207"/>
      <point x="375" y="133" type="curve" smooth="yes"/>
      <point x="375" y="14"/>
      <point x="487" y="-33"/>
      <point x="592" y="-33" type="curve" smooth="yes"/>
      <point x="725" y="-33"/>
      <point x="879" y="76"/>
      <point x="879" y="219" type="curve" smooth="yes"/>
      <point x="879" y="291"/>
      <point x="805" y="481"/>
      <point x="786" y="537" type="curve"/>
      <point x="1354" y="1282" type="line"/>
    </contour>
    <contour>
      <point x="672" y="166" type="curve" smooth="yes"/>
      <point x="672" y="115"/>
      <point x="627" y="86"/>
      <point x="580" y="86" type="curve" smooth="yes"/>
      <point x="543" y="86"/>
      <point x="510" y="106"/>
      <point x="510" y="145" type="curve" smooth="yes"/>
      <point x="510" y="190"/>
      <point x="598" y="291"/>
      <point x="627" y="326" type="curve"/>
      <point x="637" y="293"/>
      <point x="672" y="197"/>
    </contour>
  </outline>
</glyph>
<glyph name="LtnSmHv" format="2">
  <advance width="1710"/>
  <unicode hex="0195"/>
  <anchor x="675" y="-100" name="L"/>
  <anchor x="919" y="1100" name="U"/>
  <outline>
    <contour>
      <point x="683" y="300" type="line"/>
      <point x="635" y="66"/>
      <point x="738" y="-25"/>
      <point x="928" y="-25" type="curve" smooth="yes"/>
      <point x="1151" y="-25"/>
      <point x="1404" y="118"/>
      <point x="1451" y="342" type="curve" smooth="yes"/>
      <point x="1585" y="987" type="line"/>
      <point x="1394" y="987" type="line"/>
      <point x="1254" y="306" type="line" smooth="yes"/>
      <point x="1223" y="152"/>
      <point x="1094" y="102"/>
      <point x="996" y="102" type="curve" smooth="yes"/>
      <point x="943" y="102"/>
      <point x="834" y="108"/>
      <point x="876" y="308" type="curve"/>
      <point x="965" y="735" type="line" smooth="yes"/>
      <point x="1004" y="920"/>
      <point x="920" y="1012"/>
      <point x="770" y="1012" type="curve" smooth="yes"/>
      <point x="633" y="1012"/>
      <point x="485" y="940"/>
      <point x="401" y="848" type="curve"/>
      <point x="539" y="1509" type="line"/>
      <point x="457" y="1509" type="line"/>
      <point x="137" y="1448" type="line"/>
      <point x="137" y="1386" type="line"/>
      <point x="319" y="1368" type="line"/>
      <point x="37" y="0" type="line"/>
      <point x="225" y="0" type="line"/>
      <point x="375" y="717" type="line"/>
      <point x="465" y="811"/>
      <point x="592" y="877"/>
      <point x="657" y="877" type="curve" smooth="yes"/>
      <point x="702" y="877"/>
      <point x="793" y="821"/>
      <point x="770" y="713" type="curve" smooth="yes"/>
    </contour>
  </outline>
</glyph>
<glyph name="LtnCapIota" format="2">
  <advance width="836"/>
  <unicode hex="0196"/>
  <anchor x="332" y="-100" name="L"/>
  <anchor x="539" y="1500" name="U"/>
  <outline>
    <contour>
      <point x="432" y="-33" type="curve" smooth="yes"/>
      <point x="553" y="-33"/>
      <point x="801" y="33"/>
      <point x="801" y="186" type="curve" smooth="yes"/>
      <point x="801" y="254"/>
      <point x="735" y="330"/>
      <point x="668" y="336" type="curve"/>
      <point x="539" y="94" type="line"/>
      <point x="432" y="94"/>
      <point x="375" y="150"/>
      <point x="375" y="254" type="curve" smooth="yes"/>
      <point x="375" y="279"/>
      <point x="379" y="305"/>
      <point x="383" y="330" type="curve" smooth="yes"/>
      <point x="586" y="1374" type="line"/>
      <point x="197" y="1374" type="line"/>
      <point x="197" y="1288" type="line"/>
      <point x="311" y="1278" type="line" smooth="yes"/>
      <point x="346" y="1276"/>
      <point x="354" y="1260"/>
      <point x="350" y="1237" type="curve" smooth="yes"/>
      <point x="168" y="285" type="line" smooth="yes"/>
      <point x="162" y="254"/>
      <point x="158" y="223"/>
      <point x="158" y="193" type="curve" smooth="yes"/>
      <point x="158" y="20"/>
      <point x="279" y="-33"/>
    </contour>
  </outline>
</glyph>
<glyph name="LtnCapIStrk" format="2">
  <advance width="643"/>
  <unicode hex="0197"/>
  <anchor x="207" y="-100" name="L"/>
  <anchor x="495" y="1500" name="U"/>
  <outline>
    <contour>
      <point x="-31" y="0" type="line"/>
      <point x="504" y="0" type="line"/>
      <point x="504" y="86" type="line"/>
      <point x="385" y="96" type="line" smooth="yes"/>
      <point x="348" y="98"/>
      <point x="340" y="115"/>
      <point x="344" y="135" type="curve" smooth="yes"/>
      <point x="451" y="684" type="line"/>
      <point x="670" y="684" type="line"/>
      <point x="670" y="786" type="line"/>
      <point x="471" y="786" type="line"/>
      <point x="557" y="1237" type="line" smooth="yes"/>
      <point x="563" y="1264"/>
      <point x="571" y="1276"/>
      <point x="598" y="1278" type="curve" smooth="yes"/>
      <point x="729" y="1288" type="line"/>
      <point x="729" y="1374" type="line"/>
      <point x="197" y="1374" type="line"/>
      <point x="197" y="1288" type="line"/>
      <point x="311" y="1278" type="line" smooth="yes"/>
      <point x="346" y="1276"/>
      <point x="354" y="1260"/>
      <point x="350" y="1237" type="curve" smooth="yes"/>
      <point x="264" y="786" type="line"/>
      <point x="63" y="786" type="line"/>
      <point x="63" y="684" type="line"/>
      <point x="244" y="684" type="line"/>
      <point x="137" y="135" type="line" smooth="yes"/>
      <point x="133" y="111"/>
      <point x="123" y="98"/>
      <point x="98" y="96" type="curve" smooth="yes"/>
      <point x="-31" y="86" type="line"/>
    </contour>
  </outline>
</glyph>
<glyph name="LtnCapKHook" format="2">
  <advance width="1343"/>
  <unicode hex="0198"/>
  <anchor x="595" y="-100" name="L"/>
  <anchor x="883" y="1500" name="U"/>
  <outline>
    <contour>
      <point x="1049" y="-33" type="curve" smooth="yes"/>
      <point x="1102" y="-33"/>
      <point x="1178" y="-18"/>
      <point x="1241" y="0" type="curve"/>
      <point x="1241" y="86" type="line"/>
      <point x="1208" y="84"/>
      <point x="1180" y="82"/>
      <point x="1155" y="82" type="curve" smooth="yes"/>
      <point x="1083" y="82"/>
      <point x="1044" y="102"/>
      <point x="993" y="203" type="curve" smooth="yes"/>
      <point x="709" y="754" type="line"/>
      <point x="1135" y="1243" type="line" smooth="yes"/>
      <point x="1171" y="1286"/>
      <point x="1204" y="1313"/>
      <point x="1239" y="1313" type="curve" smooth="yes"/>
      <point x="1272" y="1313"/>
      <point x="1296" y="1298"/>
      <point x="1311" y="1284" type="curve"/>
      <point x="1311" y="1081" type="line"/>
      <point x="1319" y="1077"/>
      <point x="1362" y="1053"/>
      <point x="1405" y="1055" type="curve"/>
      <point x="1479" y="1055"/>
      <point x="1522" y="1145"/>
      <point x="1522" y="1210" type="curve" smooth="yes"/>
      <point x="1522" y="1335"/>
      <point x="1350" y="1407"/>
      <point x="1239" y="1407" type="curve" smooth="yes"/>
      <point x="1169" y="1407"/>
      <point x="1071" y="1374"/>
      <point x="1006" y="1298" type="curve" smooth="yes"/>
      <point x="487" y="700" type="line"/>
      <point x="455" y="700" type="line"/>
      <point x="557" y="1237" type="line" smooth="yes"/>
      <point x="563" y="1264"/>
      <point x="582" y="1276"/>
      <point x="608" y="1278" type="curve" smooth="yes"/>
      <point x="729" y="1288" type="line"/>
      <point x="729" y="1374" type="line"/>
      <point x="197" y="1374" type="line"/>
      <point x="197" y="1288" type="line"/>
      <point x="311" y="1278" type="line" smooth="yes"/>
      <point x="346" y="1276"/>
      <point x="354" y="1260"/>
      <point x="350" y="1237" type="curve" smooth="yes"/>
      <point x="135" y="135" type="line" smooth="yes"/>
      <point x="131" y="111"/>
      <point x="113" y="98"/>
      <point x="86" y="96" type="curve" smooth="yes"/>
      <point x="-33" y="86" type="line"/>
      <point x="-33" y="0" type="line"/>
      <point x="502" y="0" type="line"/>
      <point x="502" y="86" type="line"/>
      <point x="383" y="96" type="line" smooth="yes"/>
      <point x="348" y="98"/>
      <point x="338" y="115"/>
      <point x="342" y="135" type="curve" smooth="yes"/>
      <point x="434" y="604" type="line"/>
      <point x="551" y="604" type="line"/>
      <point x="803" y="119" type="line" smooth="yes"/>
      <point x="864" y="0"/>
      <point x="930" y="-33"/>
    </contour>
  </outline>
</glyph>
<glyph name="LtnCapOHorn" format="2">
  <advance width="1567"/>
  <unicode hex="01A0"/>
  <anchor x="574" y="-100" name="L"/>
  <anchor x="862" y="1500" name="U"/>
  <outline>
    <contour>
      <point x="1677" y="1483" type="curve" smooth="yes"/>
      <point x="1677" y="1610"/>
      <point x="1595" y="1688"/>
      <point x="1485" y="1688" type="curve" smooth="yes"/>
      <point x="1384" y="1688"/>
      <point x="1286" y="1614"/>
      <point x="1286" y="1505" type="curve" smooth="yes"/>
      <point x="1286" y="1446"/>
      <point x="1321" y="1395"/>
      <point x="1321" y="1395" type="curve"/>
      <point x="1499" y="1395" type="line"/>
      <point x="1477" y="1282"/>
      <point x="1440" y="1180"/>
      <point x="1354" y="1122" type="curve"/>
      <point x="1268" y="1292"/>
      <point x="1092" y="1407"/>
      <point x="860" y="1407" type="curve" smooth="yes"/>
      <point x="410" y="1407"/>
      <point x="98" y="977"/>
      <point x="98" y="537" type="curve" smooth="yes"/>
      <point x="98" y="193"/>
      <point x="328" y="-33"/>
      <point x="655" y="-33" type="curve" smooth="yes"/>
      <point x="1137" y="-33"/>
      <point x="1415" y="422"/>
      <point x="1415" y="854" type="curve" smooth="yes"/>
      <point x="1415" y="915"/>
      <point x="1407" y="975"/>
      <point x="1391" y="1030" type="curve"/>
      <point x="1559" y="1122"/>
      <point x="1677" y="1303"/>
    </contour>
    <contour>
      <point x="1182" y="854" type="curve" smooth="yes"/>
      <point x="1182" y="504"/>
      <point x="969" y="74"/>
      <point x="670" y="74" type="curve" smooth="yes"/>
      <point x="479" y="74"/>
      <point x="330" y="244"/>
      <point x="330" y="520" type="curve" smooth="yes"/>
      <point x="330" y="883"/>
      <point x="543" y="1305"/>
      <point x="842" y="1305" type="curve" smooth="yes"/>
      <point x="1038" y="1305"/>
      <point x="1182" y="1126"/>
    </contour>
  </outline>
</glyph>
<glyph name="LtnCapOi" format="2">
  <advance width="1889"/>
  <unicode hex="01A2"/>
  <anchor x="830" y="-100" name="L"/>
  <anchor x="1118" y="1500" name="U"/>
  <outline>
    <contour>
      <point x="1635" y="-360" type="line"/>
      <point x="1516" y="-350" type="line" smooth="yes"/>
      <point x="1479" y="-347"/>
      <point x="1471" y="-331"/>
      <point x="1475" y="-311" type="curve"/>
      <point x="1806" y="1407" type="line"/>
      <point x="1699" y="1407" type="line"/>
      <point x="1623" y="1347"/>
      <point x="1556" y="1322"/>
      <point x="1456" y="1322" type="curve" smooth="yes"/>
      <point x="1265" y="1322"/>
      <point x="1255" y="1407"/>
      <point x="905" y="1407" type="curve" smooth="yes"/>
      <point x="455" y="1407"/>
      <point x="98" y="997"/>
      <point x="98" y="537" type="curve" smooth="yes"/>
      <point x="98" y="205"/>
      <point x="318" y="-33"/>
      <point x="656" y="-33" type="curve" smooth="yes"/>
      <point x="936" y="-33"/>
      <point x="1129" y="133"/>
      <point x="1166" y="329" type="curve" smooth="yes"/>
      <point x="1325" y="1160" type="line"/>
      <point x="1377" y="1151"/>
      <point x="1495" y="1155"/>
      <point x="1549" y="1167" type="curve"/>
      <point x="1263" y="-311" type="line" smooth="yes"/>
      <point x="1259" y="-331"/>
      <point x="1253" y="-348"/>
      <point x="1225" y="-350" type="curve" smooth="yes"/>
      <point x="1095" y="-360" type="line"/>
      <point x="1095" y="-446" type="line"/>
      <point x="1635" y="-446" type="line"/>
    </contour>
    <contour>
      <point x="961" y="364" type="line"/>
      <point x="919" y="143"/>
      <point x="816" y="74"/>
      <point x="670" y="74" type="curve" smooth="yes"/>
      <point x="478" y="74"/>
      <point x="330" y="245"/>
      <point x="330" y="520" type="curve" smooth="yes"/>
      <point x="330" y="884"/>
      <point x="537" y="1290"/>
      <point x="885" y="1290" type="curve" smooth="yes"/>
      <point x="996" y="1290"/>
      <point x="1027" y="1279"/>
      <point x="1124" y="1219" type="curve"/>
    </contour>
  </outline>
</glyph>
<glyph name="LtnSmOi" format="2">
  <advance width="1444"/>
  <unicode hex="01A3"/>
  <anchor x="658" y="-100" name="L"/>
  <anchor x="902" y="1100" name="U"/>
  <outline>
    <contour>
      <point x="774" y="-446" type="line"/>
      <point x="1292" y="-446" type="line"/>
      <point x="1292" y="-368" type="line"/>
      <point x="1165" y="-358" type="line" smooth="yes"/>
      <point x="1139" y="-356"/>
      <point x="1120" y="-346"/>
      <point x="1126" y="-317" type="curve" smooth="yes"/>
      <point x="1381" y="987" type="line"/>
      <point x="1297" y="987" type="line"/>
      <point x="1209" y="949"/>
      <point x="1137" y="939"/>
      <point x="1076" y="939" type="curve" smooth="yes"/>
      <point x="962" y="939"/>
      <point x="839" y="1012"/>
      <point x="635" y="1012" type="curve" smooth="yes"/>
      <point x="285" y="1012"/>
      <point x="63" y="694"/>
      <point x="63" y="362" type="curve" smooth="yes"/>
      <point x="63" y="125"/>
      <point x="194" y="-25"/>
      <point x="456" y="-25" type="curve" smooth="yes"/>
      <point x="623" y="-25"/>
      <point x="810" y="76"/>
      <point x="841" y="230" type="curve" smooth="yes"/>
      <point x="961" y="807" type="line"/>
      <point x="1009" y="797"/>
      <point x="1100" y="787"/>
      <point x="1151" y="797" type="curve"/>
      <point x="930" y="-319" type="line"/>
      <point x="925" y="-344"/>
      <point x="905" y="-356"/>
      <point x="881" y="-358" type="curve" smooth="yes"/>
      <point x="774" y="-368" type="line"/>
    </contour>
    <contour>
      <point x="459" y="68" type="curve" smooth="yes"/>
      <point x="342" y="68"/>
      <point x="270" y="172"/>
      <point x="270" y="373" type="curve" smooth="yes"/>
      <point x="270" y="615"/>
      <point x="391" y="920"/>
      <point x="615" y="920" type="curve" smooth="yes"/>
      <point x="675" y="920"/>
      <point x="711" y="916"/>
      <point x="780" y="870" type="curve"/>
      <point x="659" y="287" type="line"/>
      <point x="630" y="145"/>
      <point x="576" y="68"/>
    </contour>
  </outline>
</glyph>
<glyph name="LtnYr" format="2">
  <advance width="1214"/>
  <unicode hex="01A6"/>
  <anchor x="531" y="-100" name="L"/>
  <anchor x="819" y="1500" name="U"/>
  <outline>
    <contour>
      <point x="1000" y="-139" type="curve" smooth="yes"/>
      <point x="1071" y="-139"/>
      <point x="1116" y="-128"/>
      <point x="1161" y="-112" type="curve"/>
      <point x="1161" y="-22" type="line"/>
      <point x="1146" y="-25"/>
      <point x="1131" y="-27"/>
      <point x="1117" y="-27" type="curve" smooth="yes"/>
      <point x="999" y="-27"/>
      <point x="952" y="103"/>
      <point x="907" y="248" type="curve" smooth="yes"/>
      <point x="864" y="386"/>
      <point x="822" y="536"/>
      <point x="721" y="601" type="curve"/>
      <point x="904" y="629"/>
      <point x="1091" y="754"/>
      <point x="1091" y="937" type="curve" smooth="yes"/>
      <point x="1091" y="1126"/>
      <point x="933" y="1188"/>
      <point x="675" y="1188" type="curve" smooth="yes"/>
      <point x="548" y="1188" type="line"/>
      <point x="557" y="1237" type="line" smooth="yes"/>
      <point x="563" y="1270"/>
      <point x="576" y="1276"/>
      <point x="601" y="1278" type="curve" smooth="yes"/>
      <point x="729" y="1288" type="line"/>
      <point x="729" y="1374" type="line"/>
      <point x="197" y="1374" type="line"/>
      <point x="197" y="1288" type="line"/>
      <point x="319" y="1277" type="line" smooth="yes"/>
      <point x="348" y="1274"/>
      <point x="354" y="1257"/>
      <point x="350" y="1237" type="curve" smooth="yes"/>
      <point x="137" y="135" type="line" smooth="yes"/>
      <point x="133" y="115"/>
      <point x="125" y="98"/>
      <point x="96" y="96" type="curve" smooth="yes"/>
      <point x="-31" y="86" type="line"/>
      <point x="-31" y="0" type="line"/>
      <point x="504" y="0" type="line"/>
      <point x="504" y="88" type="line"/>
      <point x="375" y="98" type="line" smooth="yes"/>
      <point x="348" y="100"/>
      <point x="340" y="115"/>
      <point x="344" y="135" type="curve" smooth="yes"/>
      <point x="432" y="588" type="line"/>
      <point x="478" y="588" type="line"/>
      <point x="590" y="588"/>
      <point x="637" y="402"/>
      <point x="699" y="218" type="curve" smooth="yes"/>
      <point x="759" y="38"/>
      <point x="834" y="-139"/>
    </contour>
    <contour>
      <point x="538" y="691" type="curve" smooth="yes"/>
      <point x="488" y="691"/>
      <point x="475" y="693"/>
      <point x="452" y="695" type="curve"/>
      <point x="529" y="1090" type="line"/>
      <point x="595" y="1090" type="line" smooth="yes"/>
      <point x="761" y="1090"/>
      <point x="866" y="1041"/>
      <point x="866" y="920" type="curve" smooth="yes"/>
      <point x="866" y="745"/>
      <point x="717" y="691"/>
    </contour>
  </outline>
</glyph>
<glyph name="LtnSmTHook" format="1">
  <advance width="653"/>
  <unicode hex="01AD"/>
  <outline>
    <contour>
      <point x="864" y="1380" type="curve" smooth="yes"/>
      <point x="864" y="1427"/>
      <point x="831" y="1509"/>
      <point x="698" y="1509" type="curve" smooth="yes"/>
      <point x="442" y="1509"/>
      <point x="301" y="1227"/>
      <point x="248" y="981" type="curve"/>
      <point x="94" y="913" type="line"/>
      <point x="94" y="846" type="line"/>
      <point x="223" y="858" type="line"/>
      <point x="98" y="236" type="line" smooth="yes"/>
      <point x="92" y="207"/>
      <point x="90" y="178"/>
      <point x="90" y="152" type="curve" smooth="yes"/>
      <point x="90" y="51"/>
      <point x="135" y="-25"/>
      <point x="283" y="-25" type="curve" smooth="yes"/>
      <point x="401" y="-25"/>
      <point x="582" y="53"/>
      <point x="616" y="68" type="curve"/>
      <point x="616" y="150" type="line"/>
      <point x="573" y="135"/>
      <point x="481" y="100"/>
      <point x="403" y="100" type="curve" smooth="yes"/>
      <point x="334" y="100"/>
      <point x="270" y="143"/>
      <point x="285" y="215" type="curve" smooth="yes"/>
      <point x="414" y="858" type="line"/>
      <point x="715" y="858" type="line"/>
      <point x="715" y="952" type="line"/>
      <point x="432" y="952" type="line"/>
      <point x="471" y="1128" type="line" smooth="yes"/>
      <point x="514" y="1319"/>
      <point x="561" y="1358"/>
      <point x="604" y="1397" type="curve"/>
      <point x="766" y="1268" type="line"/>
      <point x="780" y="1272"/>
      <point x="864" y="1298"/>
    </contour>
    <contour>
      <point x="236" y="-100" type="move" name="L"/>
    </contour>
    <contour>
      <point x="552" y="1540" type="move" name="U"/>
    </contour>
  </outline>
</glyph>
<glyph name="LtnSmUHorn" format="2">
  <advance width="1323"/>
  <unicode hex="01B0"/>
  <anchor x="409" y="-100" name="L"/>
  <anchor x="653" y="1100" name="U"/>
  <outline>
    <contour>
      <point x="1323" y="1126" type="curve" smooth="yes"/>
      <point x="1323" y="1235"/>
      <point x="1266" y="1303"/>
      <point x="1171" y="1303" type="curve" smooth="yes"/>
      <point x="1094" y="1303"/>
      <point x="1010" y="1245"/>
      <point x="1010" y="1159" type="curve" smooth="yes"/>
      <point x="1010" y="1110"/>
      <point x="1036" y="1065"/>
      <point x="1036" y="1065" type="curve"/>
      <point x="1180" y="1065" type="line"/>
      <point x="1157" y="967"/>
      <point x="1100" y="883"/>
      <point x="987" y="838" type="curve"/>
      <point x="1018" y="987" type="line"/>
      <point x="827" y="987" type="line"/>
      <point x="672" y="233" type="line"/>
      <point x="594" y="162"/>
      <point x="487" y="102"/>
      <point x="389" y="102" type="curve" smooth="yes"/>
      <point x="336" y="102"/>
      <point x="269" y="162"/>
      <point x="283" y="231" type="curve" smooth="yes"/>
      <point x="446" y="1012" type="line"/>
      <point x="362" y="1012" type="line"/>
      <point x="53" y="948" type="line"/>
      <point x="53" y="889" type="line"/>
      <point x="225" y="870" type="line"/>
      <point x="92" y="231" type="line" smooth="yes"/>
      <point x="70" y="125"/>
      <point x="111" y="-25"/>
      <point x="301" y="-25" type="curve" smooth="yes"/>
      <point x="438" y="-25"/>
      <point x="555" y="27"/>
      <point x="662" y="129" type="curve"/>
      <point x="662" y="96"/>
      <point x="641" y="-25"/>
      <point x="795" y="-25" type="curve" smooth="yes"/>
      <point x="883" y="-25"/>
      <point x="1022" y="20"/>
      <point x="1073" y="49" type="curve"/>
      <point x="1073" y="121" type="line"/>
      <point x="1016" y="88"/>
      <point x="971" y="84"/>
      <point x="944" y="84" type="curve" smooth="yes"/>
      <point x="899" y="84"/>
      <point x="836" y="115"/>
      <point x="854" y="199" type="curve" smooth="yes"/>
      <point x="967" y="739" type="line"/>
      <point x="1147" y="793"/>
      <point x="1323" y="954"/>
    </contour>
  </outline>
</glyph>
<glyph name="LtnCapEzh" format="2">
  <advance width="1174"/>
  <unicode hex="01B7"/>
  <anchor x="362" y="-500" name="L"/>
  <anchor x="726" y="1500" name="U"/>
  <outline>
    <contour>
      <point x="1174" y="1233" type="line"/>
      <point x="1174" y="1374" type="line"/>
      <point x="223" y="1374" type="line"/>
      <point x="139" y="938" type="line"/>
      <point x="264" y="938" type="line"/>
      <point x="334" y="1145" type="line" smooth="yes"/>
      <point x="340" y="1167"/>
      <point x="369" y="1180"/>
      <point x="383" y="1180" type="curve" smooth="yes"/>
      <point x="938" y="1180" type="line"/>
      <point x="295" y="541" type="line"/>
      <point x="354" y="455" type="line"/>
      <point x="379" y="473"/>
      <point x="406" y="487"/>
      <point x="451" y="487" type="curve" smooth="yes"/>
      <point x="561" y="487"/>
      <point x="788" y="397"/>
      <point x="788" y="188" type="curve" smooth="yes"/>
      <point x="788" y="-63"/>
      <point x="584" y="-332"/>
      <point x="342" y="-332" type="curve" smooth="yes"/>
      <point x="270" y="-332"/>
      <point x="215" y="-313"/>
      <point x="160" y="-272" type="curve"/>
      <point x="133" y="-43" type="line"/>
      <point x="115" y="-25"/>
      <point x="51" y="-25"/>
      <point x="37" y="-25" type="curve" smooth="yes"/>
      <point x="-68" y="-25"/>
      <point x="-133" y="-123"/>
      <point x="-133" y="-213" type="curve" smooth="yes"/>
      <point x="-133" y="-305"/>
      <point x="-20" y="-469"/>
      <point x="299" y="-469" type="curve" smooth="yes"/>
      <point x="705" y="-469"/>
      <point x="1040" y="-131"/>
      <point x="1040" y="193" type="curve" smooth="yes"/>
      <point x="1040" y="430"/>
      <point x="780" y="600"/>
      <point x="547" y="600" type="curve"/>
    </contour>
  </outline>
</glyph>
<glyph name="LtnCapEzhRev" format="2">
  <advance width="1205"/>
  <unicode hex="01B8"/>
  <anchor x="455" y="-500" name="L"/>
  <anchor x="819" y="1500" name="U"/>
  <outline>
    <contour>
      <point x="1271" y="1374" type="line"/>
      <point x="315" y="1374" type="line"/>
      <point x="287" y="1227" type="line"/>
      <point x="646" y="614" type="line"/>
      <point x="331" y="614"/>
      <point x="0" y="376"/>
      <point x="0" y="37" type="curve" smooth="yes"/>
      <point x="0" y="-232"/>
      <point x="229" y="-469"/>
      <point x="530" y="-469" type="curve" smooth="yes"/>
      <point x="841" y="-469"/>
      <point x="1086" y="-299"/>
      <point x="1086" y="-159" type="curve" smooth="yes"/>
      <point x="1086" y="-59"/>
      <point x="1034" y="-20"/>
      <point x="944" y="-20" type="curve" smooth="yes"/>
      <point x="906" y="-20"/>
      <point x="877" y="-26"/>
      <point x="841" y="-50" type="curve"/>
      <point x="786" y="-268" type="line"/>
      <point x="733" y="-312"/>
      <point x="623" y="-332"/>
      <point x="550" y="-332" type="curve" smooth="yes"/>
      <point x="359" y="-332"/>
      <point x="234" y="-128"/>
      <point x="234" y="64" type="curve" smooth="yes"/>
      <point x="234" y="380"/>
      <point x="528" y="512"/>
      <point x="694" y="512" type="curve" smooth="yes"/>
      <point x="746" y="512"/>
      <point x="768" y="494"/>
      <point x="778" y="483" type="curve"/>
      <point x="853" y="555" type="line"/>
      <point x="481" y="1180" type="line"/>
      <point x="1052" y="1180" type="line" smooth="yes"/>
      <point x="1071" y="1180"/>
      <point x="1087" y="1154"/>
      <point x="1087" y="1132" type="curve"/>
      <point x="1070" y="938" type="line"/>
      <point x="1185" y="938" type="line"/>
    </contour>
  </outline>
</glyph>
<glyph name="LtnCapTnFive" format="2">
  <advance width="1116"/>
  <unicode hex="01BC"/>
  <anchor x="421" y="-100" name="L"/>
  <anchor x="709" y="1500" name="U"/>
  <outline>
    <contour>
      <point x="508" y="1225" type="line"/>
      <point x="511" y="1241"/>
      <point x="530" y="1268"/>
      <point x="559" y="1268" type="curve" smooth="yes"/>
      <point x="1003" y="1268" type="line" smooth="yes"/>
      <point x="1021" y="1268"/>
      <point x="1032" y="1250"/>
      <point x="1031" y="1229" type="curve" smooth="yes"/>
      <point x="1021" y="1055" type="line"/>
      <point x="1132" y="1055" type="line"/>
      <point x="1193" y="1374" type="line"/>
      <point x="204" y="1374" type="line"/>
      <point x="187" y="1276" type="line"/>
      <point x="291" y="1268" type="line"/>
      <point x="319" y="1264"/>
      <point x="328" y="1241"/>
      <point x="325" y="1225" type="curve" smooth="yes"/>
      <point x="237" y="774" type="line"/>
      <point x="566" y="774"/>
      <point x="808" y="661"/>
      <point x="808" y="435" type="curve" smooth="yes"/>
      <point x="808" y="248"/>
      <point x="626" y="70"/>
      <point x="444" y="70" type="curve" smooth="yes"/>
      <point x="368" y="70"/>
      <point x="288" y="97"/>
      <point x="262" y="128" type="curve"/>
      <point x="230" y="315" type="line"/>
      <point x="223" y="317"/>
      <point x="190" y="325"/>
      <point x="168" y="325" type="curve" smooth="yes"/>
      <point x="95" y="325"/>
      <point x="29" y="276"/>
      <point x="29" y="209" type="curve" smooth="yes"/>
      <point x="29" y="78"/>
      <point x="166" y="-33"/>
      <point x="374" y="-33" type="curve" smooth="yes"/>
      <point x="744" y="-33"/>
      <point x="1022" y="161"/>
      <point x="1022" y="484" type="curve" smooth="yes"/>
      <point x="1022" y="811"/>
      <point x="693" y="941"/>
      <point x="452" y="941" type="curve"/>
    </contour>
  </outline>
</glyph>
<glyph name="LtnSmTnFive" format="2">
  <advance width="833"/>
  <unicode hex="01BD"/>
  <anchor x="295" y="-100" name="L"/>
  <anchor x="539" y="1100" name="U"/>
  <outline>
    <contour>
      <point x="280" y="-24" type="curve" smooth="yes"/>
      <point x="506" y="-24"/>
      <point x="753" y="109"/>
      <point x="753" y="349" type="curve" smooth="yes"/>
      <point x="753" y="554"/>
      <point x="556" y="670"/>
      <point x="375" y="686" type="curve"/>
      <point x="411" y="852" type="line"/>
      <point x="414" y="864"/>
      <point x="428" y="883"/>
      <point x="446" y="883" type="curve" smooth="yes"/>
      <point x="711" y="883" type="line" smooth="yes"/>
      <point x="724" y="883"/>
      <point x="730" y="870"/>
      <point x="729" y="855" type="curve" smooth="yes"/>
      <point x="722" y="748" type="line"/>
      <point x="806" y="748" type="line"/>
      <point x="854" y="987" type="line"/>
      <point x="141" y="987" type="line"/>
      <point x="124" y="889" type="line"/>
      <point x="214" y="883" type="line"/>
      <point x="232" y="880"/>
      <point x="238" y="864"/>
      <point x="235" y="852" type="curve" smooth="yes"/>
      <point x="173" y="556" type="line"/>
      <point x="399" y="556"/>
      <point x="559" y="446"/>
      <point x="559" y="314" type="curve" smooth="yes"/>
      <point x="559" y="140"/>
      <point x="415" y="68"/>
      <point x="313" y="68" type="curve" smooth="yes"/>
      <point x="282" y="68"/>
      <point x="229" y="84"/>
      <point x="211" y="106" type="curve"/>
      <point x="186" y="279" type="line"/>
      <point x="181" y="281"/>
      <point x="148" y="288"/>
      <point x="133" y="288" type="curve" smooth="yes"/>
      <point x="83" y="288"/>
      <point x="14" y="231"/>
      <point x="14" y="165" type="curve" smooth="yes"/>
      <point x="14" y="47"/>
      <point x="135" y="-24"/>
    </contour>
  </outline>
</glyph>
<glyph name="LtnDentalClick" format="2">
  <advance width="453"/>
  <unicode hex="01C0"/>
  <anchor x="28" y="-500" name="L"/>
  <anchor x="425" y="1570" name="U"/>
  <outline>
    <contour>
      <point x="105" y="-440" type="line"/>
      <point x="476" y="1507" type="line"/>
      <point x="361" y="1507" type="line"/>
      <point x="-10" y="-440" type="line"/>
    </contour>
  </outline>
</glyph>
<glyph name="LtnDentalClick" format="1">
  <advance width="453"/>
  <unicode hex="01C0"/>
  <outline>
    <contour>
      <point x="105" y="-440" type="line"/>
      <point x="476" y="1507" type="line"/>
      <point x="361" y="1507" type="line"/>
      <point x="-10" y="-440" type="line"/>
    </contour>
    <contour>
      <point x="420" y="1540" type="move" name="U"/>
    </contour>
    <contour>
      <point x="28" y="-500" type="move" name="L"/>
    </contour>
  </outline>
</glyph>
<glyph name="LtnLateralClick" format="1">
  <advance width="713"/>
  <unicode hex="01C1"/>
  <outline>
    <contour>
      <point x="365" y="-440" type="line"/>
      <point x="736" y="1507" type="line"/>
      <point x="621" y="1507" type="line"/>
      <point x="250" y="-440" type="line"/>
    </contour>
    <contour>
      <point x="105" y="-440" type="line"/>
      <point x="476" y="1507" type="line"/>
      <point x="361" y="1507" type="line"/>
      <point x="-10" y="-440" type="line"/>
    </contour>
    <contour>
      <point x="158" y="-500" type="move" name="L"/>
    </contour>
    <contour>
      <point x="550" y="1540" type="move" name="U"/>
    </contour>
  </outline>
</glyph>
<glyph name="LtnAlveolarClick" format="1">
  <advance width="893"/>
  <unicode hex="01C2"/>
  <outline>
    <contour>
      <point x="100" y="619" type="line"/>
      <point x="853" y="619" type="line"/>
      <point x="853" y="723" type="line"/>
      <point x="100" y="723" type="line"/>
    </contour>
    <contour>
      <point x="40" y="343" type="line"/>
      <point x="793" y="343" type="line"/>
      <point x="793" y="447" type="line"/>
      <point x="40" y="447" type="line"/>
    </contour>
    <component base="LtnDentalClick" xOffset="200"/>
    <contour>
      <point x="634" y="1540" type="move" name="U"/>
    </contour>
    <contour>
      <point x="242" y="-500" type="move" name="L"/>
    </contour>
  </outline>
</glyph>
<glyph name="LtnRetrClick" format="2">
  <advance width="532"/>
  <unicode hex="01C3"/>
  <anchor x="136" y="-100" name="L"/>
  <anchor x="452" y="1540" name="U"/>
  <outline>
    <contour>
      <point x="528" y="1294" type="line"/>
      <point x="528" y="1364"/>
      <point x="495" y="1399"/>
      <point x="426" y="1399" type="curve" smooth="yes"/>
      <point x="313" y="1399"/>
      <point x="278" y="1335"/>
      <point x="262" y="1231" type="curve"/>
      <point x="158" y="346" type="line"/>
      <point x="287" y="346" type="line"/>
    </contour>
    <contour>
      <point x="321" y="100" type="curve" smooth="yes"/>
      <point x="321" y="174"/>
      <point x="258" y="223"/>
      <point x="186" y="223" type="curve" smooth="yes"/>
      <point x="113" y="223"/>
      <point x="55" y="172"/>
      <point x="55" y="100" type="curve" smooth="yes"/>
      <point x="55" y="23"/>
      <point x="127" y="-18"/>
      <point x="186" y="-18" type="curve" smooth="yes"/>
      <point x="268" y="-18"/>
      <point x="321" y="35"/>
    </contour>
  </outline>
</glyph>
<glyph name="LtnCapDzCaron" format="1">
  <advance width="2527"/>
  <unicode hex="01C4"/>
  <outline>
    <component base="LtnCapD"/>
    <component base="LtnCapZ" xOffset="1374"/>
    <component base="CombCaron" xOffset="2511" yOffset="400"/>
    <contour>
      <point x="1840" y="-100" type="move" name="L"/>
    </contour>
    <contour>
      <point x="2172" y="1900" type="move" name="U"/>
    </contour>
  </outline>
</glyph>
<glyph name="LtnCapDSmZCaron" format="1">
  <advance width="2285"/>
  <unicode hex="01C5"/>
  <outline>
    <component base="LtnCapD"/>
    <component base="LtnSmZ" xOffset="1374"/>
    <component base="CombCaron" xOffset="2317"/>
    <contour>
      <point x="1742" y="0" type="move" name="H"/>
    </contour>
    <contour>
      <point x="1978" y="1500" type="move" name="U"/>
    </contour>
    <contour>
      <point x="1722" y="-100" type="move" name="L"/>
    </contour>
  </outline>
</glyph>
<glyph name="LtnSmDzCaron" format="1">
  <advance width="1988"/>
  <unicode hex="01C6"/>
  <outline>
    <component base="LtnSmD"/>
    <component base="LtnSmZ" xOffset="1077"/>
    <component base="CombCaron" xOffset="2052"/>
    <contour>
      <point x="1445" y="0" type="move" name="H"/>
    </contour>
    <contour>
      <point x="1425" y="-100" type="move" name="L"/>
    </contour>
    <contour>
      <point x="1713" y="1500" type="move" name="U"/>
    </contour>
  </outline>
</glyph>
<glyph name="LtnCapLj" format="1">
  <advance width="2019"/>
  <unicode hex="01C7"/>
  <outline>
    <component base="LtnCapL"/>
    <component base="LtnCapJ" xOffset="1061"/>
    <contour>
      <point x="426" y="0" type="move" name="H"/>
    </contour>
    <contour>
      <point x="1333" y="-100" type="move" name="L"/>
    </contour>
    <contour>
      <point x="1871" y="1500" type="move" name="U"/>
    </contour>
  </outline>
</glyph>
<glyph name="LtnCapLSmJ" format="1">
  <advance width="1620"/>
  <unicode hex="01C8"/>
  <outline>
    <component base="LtnCapL"/>
    <component base="LtnSmJ" xOffset="1061"/>
    <contour>
      <point x="426" y="0" type="move" name="H"/>
    </contour>
    <contour>
      <point x="1016" y="-500" type="move" name="L"/>
    </contour>
    <contour>
      <point x="1530" y="1500" type="move" name="U"/>
    </contour>
  </outline>
</glyph>
<glyph name="LtnSmLj" format="1">
  <advance width="1102"/>
  <unicode hex="01C9"/>
  <outline>
    <component base="LtnSmL"/>
    <component base="LtnSmJ" xOffset="543"/>
    <contour>
      <point x="182" y="0" type="move" name="H"/>
    </contour>
    <contour>
      <point x="498" y="-500" type="move" name="L"/>
    </contour>
    <contour>
      <point x="1007" y="1515" type="move" name="U"/>
    </contour>
  </outline>
</glyph>
<glyph name="LtnCapNj" format="1">
  <advance width="2414"/>
  <unicode hex="01CA"/>
  <outline>
    <component base="LtnCapN"/>
    <component base="LtnCapJ" xOffset="1456"/>
    <contour>
      <point x="1061" y="0" type="move" name="H"/>
    </contour>
    <contour>
      <point x="2266" y="1500" type="move" name="U"/>
    </contour>
    <contour>
      <point x="1728" y="-100" type="move" name="L"/>
    </contour>
  </outline>
</glyph>
<glyph name="LtnCapNSmJ" format="1">
  <advance width="2015"/>
  <unicode hex="01CB"/>
  <outline>
    <component base="LtnCapN"/>
    <component base="LtnSmJ" xOffset="1456"/>
    <contour>
      <point x="618" y="0" type="move" name="H"/>
    </contour>
    <contour>
      <point x="1411" y="-500" type="move" name="L"/>
    </contour>
    <contour>
      <point x="1930" y="1500" type="move" name="U"/>
    </contour>
  </outline>
</glyph>
<glyph name="LtnSmNj" format="1">
  <advance width="1644"/>
  <unicode hex="01CC"/>
  <outline>
    <component base="LtnSmN"/>
    <component base="LtnSmJ" xOffset="1085"/>
    <contour>
      <point x="793" y="0" type="move" name="H"/>
    </contour>
    <contour>
      <point x="1040" y="-500" type="move" name="L"/>
    </contour>
    <contour>
      <point x="1550" y="1500" type="move" name="U"/>
    </contour>
  </outline>
</glyph>
<glyph name="LtnSmICaron" format="1">
  <advance width="545"/>
  <unicode hex="01D0"/>
  <outline>
    <component base="LtnSmDotlessI"/>
    <component base="CombCaron" xOffset="763"/>
    <contour>
      <point x="194" y="0" type="move" name="H"/>
    </contour>
    <contour>
      <point x="545" y="1000" type="move" name="R"/>
    </contour>
    <contour>
      <point x="424" y="1500" type="move" name="U"/>
    </contour>
    <contour>
      <point x="150" y="-100" type="move" name="L"/>
    </contour>
    <contour>
      <point x="410" y="0" type="move" name="O"/>
    </contour>
  </outline>
</glyph>
<glyph name="LtnSmOCaron" format="1">
  <advance width="1036"/>
  <unicode hex="01D2"/>
  <outline>
    <component base="LtnSmO"/>
    <component base="CombCaron" xOffset="1026"/>
    <contour>
      <point x="419" y="0" type="move" name="H"/>
    </contour>
    <contour>
      <point x="399" y="-100" type="move" name="L"/>
    </contour>
    <contour>
      <point x="625" y="0" type="move" name="O"/>
    </contour>
    <contour>
      <point x="996" y="900" type="move" name="R"/>
    </contour>
    <contour>
      <point x="687" y="1500" type="move" name="U"/>
    </contour>
  </outline>
</glyph>
<glyph name="LtnCapUDiaerMacron" format="1">
  <advance width="1448"/>
  <unicode hex="01D5"/>
  <outline>
    <component base="LtnCapU"/>
    <component base="CombDiaer" xOffset="1283" yOffset="400"/>
    <component base="CombMacron" xOffset="1327" yOffset="800"/>
    <contour>
      <point x="615" y="0" type="move" name="H"/>
    </contour>
    <contour>
      <point x="612" y="-100" type="move" name="L"/>
    </contour>
    <contour>
      <point x="908" y="0" type="move" name="O"/>
    </contour>
    <contour>
      <point x="1540" y="1350" type="move" name="R"/>
    </contour>
    <contour>
      <point x="1003" y="2270" type="move" name="U"/>
    </contour>
  </outline>
</glyph>
<glyph name="LtnSmUDiaerAcute" format="1">
  <advance width="1079"/>
  <unicode hex="01D8"/>
  <outline>
    <component base="LtnSmU"/>
    <component base="CombDiaer" xOffset="1039"/>
    <component base="CombAcute" xOffset="1083" yOffset="400"/>
    <contour>
      <point x="459" y="0" type="move" name="H"/>
    </contour>
    <contour>
      <point x="1079" y="1000" type="move" name="R"/>
    </contour>
    <contour>
      <point x="744" y="1900" type="move" name="U"/>
    </contour>
    <contour>
      <point x="442" y="-100" type="move" name="L"/>
    </contour>
    <contour>
      <point x="933" y="0" type="move" name="O"/>
    </contour>
  </outline>
</glyph>
<glyph name="LtnSmUDiaerCaron" format="1">
  <advance width="1079"/>
  <unicode hex="01DA"/>
  <outline>
    <component base="LtnSmU"/>
    <component base="CombDiaer" xOffset="1039"/>
    <component base="CombCaron" xOffset="1083" yOffset="400"/>
    <contour>
      <point x="459" y="0" type="move" name="H"/>
    </contour>
    <contour>
      <point x="442" y="-100" type="move" name="L"/>
    </contour>
    <contour>
      <point x="933" y="0" type="move" name="O"/>
    </contour>
    <contour>
      <point x="1079" y="1000" type="move" name="R"/>
    </contour>
    <contour>
      <point x="744" y="1900" type="move" name="U"/>
    </contour>
  </outline>
</glyph>
<glyph name="LtnSmTurnedE" format="1">
  <advance width="889"/>
  <unicode hex="01DD"/>
  <outline>
    <component base="LtnSmSchwa"/>
    <contour>
      <point x="272" y="-100" type="move" name="L"/>
    </contour>
    <contour>
      <point x="512" y="1100" type="move" name="U"/>
    </contour>
  </outline>
</glyph>
<glyph name="LtnCapADiaerMacron" format="1">
  <advance width="1378"/>
  <unicode hex="01DE"/>
  <outline>
    <component base="LtnCapA"/>
    <component base="CombDiaer" xOffset="1222" yOffset="400"/>
    <component base="CombMacron" xOffset="1266" yOffset="800"/>
    <contour>
      <point x="572" y="0" type="move" name="H"/>
    </contour>
    <contour>
      <point x="551" y="-100" type="move" name="L"/>
    </contour>
    <contour>
      <point x="1175" y="0" type="move" name="O"/>
    </contour>
    <contour>
      <point x="942" y="2270" type="move" name="U"/>
    </contour>
  </outline>
</glyph>
<glyph name="LtnCapADotAbvMacron" format="1">
  <advance width="1378"/>
  <unicode hex="01E0"/>
  <outline>
    <component base="LtnCapA"/>
    <component base="CombMacron" xOffset="1266" yOffset="800"/>
    <component base="DotAbv" xOffset="606" yOffset="400"/>
    <contour>
      <point x="942" y="2270" type="move" name="U"/>
    </contour>
    <contour>
      <point x="551" y="-100" type="move" name="L"/>
    </contour>
    <contour>
      <point x="1175" y="0" type="move" name="O"/>
    </contour>
    <contour>
      <point x="1012" y="0" type="move" name="H"/>
    </contour>
  </outline>
</glyph>
<glyph name="LtnSmADotAbvMacron" format="1">
  <advance width="1067"/>
  <unicode hex="01E1"/>
  <outline>
    <component base="LtnSmA"/>
    <component base="CombMacron" xOffset="1172" yOffset="400"/>
    <component base="DotAbv" xOffset="472"/>
    <contour>
      <point x="767" y="0" type="move" name="H"/>
    </contour>
    <contour>
      <point x="461" y="-100" type="move" name="L"/>
    </contour>
    <contour>
      <point x="930" y="0" type="move" name="O"/>
    </contour>
    <contour>
      <point x="1067" y="1000" type="move" name="R"/>
    </contour>
    <contour>
      <point x="848" y="1870" type="move" name="U"/>
    </contour>
  </outline>
</glyph>
<glyph name="LtnCapAeMacron" format="1">
  <advance width="1917"/>
  <unicode hex="01E2"/>
  <outline>
    <component base="LtnCapAe"/>
    <component base="CombMacron" xOffset="1652" yOffset="400"/>
    <contour>
      <point x="981" y="-100" type="move" name="L"/>
    </contour>
    <contour>
      <point x="1328" y="1870" type="move" name="U"/>
    </contour>
  </outline>
</glyph>
<glyph name="LtnSmAeMacron" format="1">
  <advance width="1526"/>
  <unicode hex="01E3"/>
  <outline>
    <component base="LtnSmAe"/>
    <component base="CombMacron" xOffset="1318"/>
    <contour>
      <point x="711" y="0" type="move" name="H"/>
    </contour>
    <contour>
      <point x="691" y="-100" type="move" name="L"/>
    </contour>
    <contour>
      <point x="734" y="0" type="move" name="O"/>
    </contour>
    <contour>
      <point x="1526" y="1000" type="move" name="R"/>
    </contour>
    <contour>
      <point x="997" y="1500" type="move" name="U"/>
    </contour>
  </outline>
</glyph>
<glyph name="LtnSmGCaron" format="1">
  <advance width="901"/>
  <unicode hex="01E7"/>
  <outline>
    <component base="LtnSmG"/>
    <component base="CombCaron" xOffset="958"/>
    <contour>
      <point x="293" y="-432" type="move" name="H"/>
    </contour>
    <contour>
      <point x="901" y="1000" type="move" name="R"/>
    </contour>
    <contour>
      <point x="619" y="1500" type="move" name="U"/>
    </contour>
    <contour>
      <point x="255" y="-500" type="move" name="L"/>
    </contour>
  </outline>
</glyph>
<glyph name="LtnCapKCaron" format="1">
  <advance width="1343"/>
  <unicode hex="01E8"/>
  <outline>
    <component base="LtnCapK"/>
    <component base="CombCaron" xOffset="1239" yOffset="400"/>
    <contour>
      <point x="203" y="0" type="move" name="H"/>
    </contour>
    <contour>
      <point x="568" y="-100" type="move" name="L"/>
    </contour>
    <contour>
      <point x="900" y="1900" type="move" name="U"/>
    </contour>
  </outline>
</glyph>
<glyph name="LtnSmKCaron" format="1">
  <advance width="1042"/>
  <unicode hex="01E9"/>
  <outline>
    <component base="LtnSmK"/>
    <component base="CombCaron" xOffset="1096" yOffset="440"/>
    <contour>
      <point x="117" y="0" type="move" name="H"/>
    </contour>
    <contour>
      <point x="1042" y="1000" type="move" name="R"/>
    </contour>
    <contour>
      <point x="757" y="1940" type="move" name="U"/>
    </contour>
    <contour>
      <point x="397" y="-100" type="move" name="L"/>
    </contour>
  </outline>
</glyph>
<glyph name="LtnCapOOgonek" format="1">
  <advance width="1454"/>
  <unicode hex="01EA"/>
  <outline>
    <component base="LtnCapO"/>
    <component base="CombOgonek" xOffset="1283"/>
    <contour>
      <point x="625" y="0" type="move" name="H"/>
    </contour>
    <contour>
      <point x="1430" y="1250" type="move" name="R"/>
    </contour>
    <contour>
      <point x="893" y="1500" type="move" name="U"/>
    </contour>
    <contour>
      <point x="749" y="-400" type="move" name="L"/>
    </contour>
  </outline>
</glyph>
<glyph name="LtnCapOOgonekMacron" format="1">
  <advance width="1454"/>
  <unicode hex="01EC"/>
  <outline>
    <component base="LtnCapO"/>
    <component base="CombMacron" xOffset="1276" yOffset="400"/>
    <component base="CombOgonek" xOffset="1283"/>
    <contour>
      <point x="625" y="0" type="move" name="H"/>
    </contour>
    <contour>
      <point x="1430" y="1250" type="move" name="R"/>
    </contour>
    <contour>
      <point x="952" y="1870" type="move" name="U"/>
    </contour>
    <contour>
      <point x="749" y="-400" type="move" name="L"/>
    </contour>
  </outline>
</glyph>
<glyph name="LtnCapEzhCaron" format="1">
  <advance width="1174"/>
  <unicode hex="01EE"/>
  <outline>
    <component base="LtnCapEzh"/>
    <component base="CombCaron" xOffset="1109" yOffset="400"/>
    <contour>
      <point x="770" y="1900" type="move" name="U"/>
    </contour>
    <contour>
      <point x="362" y="-500" type="move" name="L"/>
    </contour>
  </outline>
</glyph>
<glyph name="LtnCapDz" format="1">
  <advance width="2527"/>
  <unicode hex="01F1"/>
  <outline>
    <component base="LtnCapD"/>
    <component base="LtnCapZ" xOffset="1374"/>
    <contour>
      <point x="2128" y="1500" type="move" name="U"/>
    </contour>
    <contour>
      <point x="1840" y="-100" type="move" name="L"/>
    </contour>
  </outline>
</glyph>
<glyph name="LtnCapGAcute" format="1">
  <advance width="1409"/>
  <unicode hex="01F4"/>
  <outline>
    <component base="LtnCapG"/>
    <component base="CombAcute" xOffset="1315" yOffset="400"/>
    <contour>
      <point x="664" y="0" type="move" name="H"/>
    </contour>
    <contour>
      <point x="976" y="1900" type="move" name="U"/>
    </contour>
    <contour>
      <point x="644" y="-100" type="move" name="L"/>
    </contour>
  </outline>
</glyph>
<glyph name="LtnSmGAcute" format="1">
  <advance width="901"/>
  <unicode hex="01F5"/>
  <outline>
    <component base="LtnSmG"/>
    <component base="CombAcute" xOffset="958"/>
    <contour>
      <point x="293" y="-432" type="move" name="H"/>
    </contour>
    <contour>
      <point x="901" y="1000" type="move" name="R"/>
    </contour>
    <contour>
      <point x="619" y="1500" type="move" name="U"/>
    </contour>
    <contour>
      <point x="255" y="-500" type="move" name="L"/>
    </contour>
  </outline>
</glyph>
<glyph name="LtnCapWynn" format="2">
  <advance width="1131"/>
  <unicode hex="01F7"/>
  <anchor x="90" y="-500" name="L"/>
  <anchor x="694" y="1500" name="U"/>
  <outline>
    <contour>
      <point x="-150" y="-446" type="line"/>
      <point x="383" y="-446" type="line"/>
      <point x="383" y="-360" type="line"/>
      <point x="266" y="-350" type="line"/>
      <point x="229" y="-348"/>
      <point x="221" y="-331"/>
      <point x="225" y="-311" type="curve" smooth="yes"/>
      <point x="297" y="50" type="line"/>
      <point x="630" y="200"/>
      <point x="1151" y="616"/>
      <point x="1151" y="1017" type="curve" smooth="yes"/>
      <point x="1151" y="1217"/>
      <point x="1050" y="1394"/>
      <point x="817" y="1394" type="curve" smooth="yes"/>
      <point x="734" y="1394"/>
      <point x="605" y="1320"/>
      <point x="528" y="1254" type="curve"/>
      <point x="550" y="1374" type="line"/>
      <point x="457" y="1374" type="line"/>
      <point x="137" y="1313" type="line"/>
      <point x="137" y="1251" type="line"/>
      <point x="319" y="1233" type="line"/>
      <point x="18" y="-311" type="line"/>
      <point x="12" y="-335"/>
      <point x="-6" y="-348"/>
      <point x="-31" y="-350" type="curve" smooth="yes"/>
      <point x="-150" y="-360" type="line"/>
    </contour>
    <contour>
      <point x="324" y="195" type="curve"/>
      <point x="499" y="1097" type="line"/>
      <point x="593" y="1181"/>
      <point x="686" y="1227"/>
      <point x="754" y="1227" type="curve" smooth="yes"/>
      <point x="846" y="1227"/>
      <point x="928" y="1149"/>
      <point x="928" y="982" type="curve" smooth="yes"/>
      <point x="928" y="682"/>
      <point x="592" y="353"/>
    </contour>
  </outline>
</glyph>
<glyph name="LtnSmNGrave" format="1">
  <advance width="1085"/>
  <unicode hex="01F9"/>
  <outline>
    <component base="LtnSmN"/>
    <component base="CombGrave" xOffset="1033"/>
    <contour>
      <point x="793" y="0" type="move" name="H"/>
    </contour>
    <contour>
      <point x="694" y="1500" type="move" name="U"/>
    </contour>
    <contour>
      <point x="410" y="-100" type="move" name="L"/>
    </contour>
  </outline>
</glyph>
<glyph name="LtnCapARingAbvAcute" format="1">
  <advance width="1378"/>
  <unicode hex="01FA"/>
  <outline>
    <component base="LtnCapA"/>
    <component base="RingAbv" xOffset="483" yOffset="400"/>
    <component base="CombAcute" xOffset="1296" yOffset="960"/>
    <contour>
      <point x="572" y="0" type="move" name="H"/>
    </contour>
    <contour>
      <point x="957" y="2460" type="move" name="U"/>
    </contour>
    <contour>
      <point x="551" y="-100" type="move" name="L"/>
    </contour>
    <contour>
      <point x="1175" y="0" type="move" name="O"/>
    </contour>
  </outline>
</glyph>
<glyph name="LtnSmARingAbvAcute" format="1">
  <advance width="1067"/>
  <unicode hex="01FB"/>
  <outline>
    <component base="LtnSmA"/>
    <component base="RingAbv" xOffset="349"/>
    <component base="CombAcute" xOffset="1162" yOffset="560"/>
    <contour>
      <point x="483" y="0" type="move" name="H"/>
    </contour>
    <contour>
      <point x="1067" y="1000" type="move" name="R"/>
    </contour>
    <contour>
      <point x="823" y="2060" type="move" name="U"/>
    </contour>
    <contour>
      <point x="461" y="-100" type="move" name="L"/>
    </contour>
    <contour>
      <point x="930" y="0" type="move" name="O"/>
    </contour>
  </outline>
</glyph>
<glyph name="LtnCapAeAcute" format="1">
  <advance width="1917"/>
  <unicode hex="01FC"/>
  <outline>
    <component base="LtnCapAe"/>
    <component base="CombAcute" xOffset="1652" yOffset="400"/>
    <contour>
      <point x="1313" y="1900" type="move" name="U"/>
    </contour>
    <contour>
      <point x="981" y="-100" type="move" name="L"/>
    </contour>
  </outline>
</glyph>
<glyph name="LtnSmAeAcute" format="1">
  <advance width="1526"/>
  <unicode hex="01FD"/>
  <outline>
    <component base="LtnSmAe"/>
    <component base="CombAcute" xOffset="1318"/>
    <contour>
      <point x="711" y="0" type="move" name="H"/>
    </contour>
    <contour>
      <point x="1526" y="1000" type="move" name="R"/>
    </contour>
    <contour>
      <point x="979" y="1500" type="move" name="U"/>
    </contour>
    <contour>
      <point x="691" y="-100" type="move" name="L"/>
    </contour>
    <contour>
      <point x="1183" y="0" type="move" name="O"/>
    </contour>
  </outline>
</glyph>
<glyph name="LtnSmOStrkAcute" format="1">
  <advance width="1036"/>
  <unicode hex="01FF"/>
  <outline>
    <component base="LtnSmOStrk"/>
    <component base="CombAcute" xOffset="1026"/>
    <contour>
      <point x="419" y="0" type="move" name="H"/>
    </contour>
    <contour>
      <point x="399" y="-100" type="move" name="L"/>
    </contour>
    <contour>
      <point x="630" y="0" type="move" name="O"/>
    </contour>
    <contour>
      <point x="1036" y="1000" type="move" name="R"/>
    </contour>
    <contour>
      <point x="687" y="1500" type="move" name="U"/>
    </contour>
  </outline>
</glyph>
<glyph name="LtnCapAInvBreve" format="1">
  <advance width="1378"/>
  <unicode hex="0202"/>
  <outline>
    <component base="LtnCapA"/>
    <component base="CombInvBreve" xOffset="1222" yOffset="400"/>
    <contour>
      <point x="572" y="0" type="move" name="H"/>
    </contour>
    <contour>
      <point x="551" y="-100" type="move" name="L"/>
    </contour>
    <contour>
      <point x="1175" y="0" type="move" name="O"/>
    </contour>
    <contour>
      <point x="883" y="1900" type="move" name="U"/>
    </contour>
  </outline>
</glyph>
<glyph name="LtnCapODblGrave" format="1">
  <advance width="1454"/>
  <unicode hex="020C"/>
  <outline>
    <component base="LtnCapO"/>
    <component base="CombDblGrave" xOffset="1276" yOffset="400"/>
    <contour>
      <point x="625" y="0" type="move" name="H"/>
    </contour>
    <contour>
      <point x="605" y="-100" type="move" name="L"/>
    </contour>
    <contour>
      <point x="873" y="0" type="move" name="O"/>
    </contour>
    <contour>
      <point x="1430" y="1250" type="move" name="R"/>
    </contour>
    <contour>
      <point x="937" y="1900" type="move" name="U"/>
    </contour>
  </outline>
</glyph>
<glyph name="LtnSmOInvBreve" format="1">
  <advance width="1036"/>
  <unicode hex="020F"/>
  <outline>
    <component base="LtnSmO"/>
    <component base="CombInvBreve" xOffset="1026"/>
    <contour>
      <point x="419" y="0" type="move" name="H"/>
    </contour>
    <contour>
      <point x="399" y="-100" type="move" name="L"/>
    </contour>
    <contour>
      <point x="625" y="0" type="move" name="O"/>
    </contour>
    <contour>
      <point x="996" y="900" type="move" name="R"/>
    </contour>
    <contour>
      <point x="687" y="1500" type="move" name="U"/>
    </contour>
  </outline>
</glyph>
<glyph name="LtnCapRInvBreve" format="1">
  <advance width="1313"/>
  <unicode hex="0212"/>
  <outline>
    <component base="LtnCapR"/>
    <component base="CombInvBreve" xOffset="1149" yOffset="400"/>
    <contour>
      <point x="210" y="0" type="move" name="H"/>
    </contour>
    <contour>
      <point x="810" y="1900" type="move" name="U"/>
    </contour>
    <contour>
      <point x="478" y="-100" type="move" name="L"/>
    </contour>
  </outline>
</glyph>
<glyph name="LtnCapSCommaBlw" format="1">
  <advance width="1067"/>
  <unicode hex="0218"/>
  <outline>
    <component base="LtnCapS"/>
    <component base="CombCommaBlw" xOffset="1056"/>
    <contour>
      <point x="439" y="0" type="move" name="H"/>
    </contour>
    <contour>
      <point x="343" y="-500" type="move" name="L"/>
    </contour>
    <contour>
      <point x="727" y="1500" type="move" name="U"/>
    </contour>
  </outline>
</glyph>
<glyph name="LtnSmSCommaBlw" format="1">
  <advance width="758"/>
  <unicode hex="0219"/>
  <outline>
    <component base="LtnSmS"/>
    <component base="CombCommaBlw" xOffset="895"/>
    <contour>
      <point x="278" y="0" type="move" name="H"/>
    </contour>
    <contour>
      <point x="182" y="-500" type="move" name="L"/>
    </contour>
    <contour>
      <point x="511" y="1100" type="move" name="U"/>
    </contour>
  </outline>
</glyph>
<glyph name="LtnSmTCommaBlw" format="1">
  <advance width="614"/>
  <unicode hex="021B"/>
  <outline>
    <component base="LtnSmT"/>
    <component base="CombCommaBlw" xOffset="873"/>
    <contour>
      <point x="256" y="0" type="move" name="H"/>
    </contour>
    <contour>
      <point x="160" y="-500" type="move" name="L"/>
    </contour>
    <contour>
      <point x="614" y="1000" type="move" name="R"/>
    </contour>
    <contour>
      <point x="487" y="1363" type="move" name="U"/>
    </contour>
  </outline>
</glyph>
<glyph name="LtnCapYogh" format="2">
  <advance width="1059"/>
  <unicode hex="021C"/>
  <anchor x="386" y="-220" name="L"/>
  <anchor x="699" y="1500" name="U"/>
  <outline>
    <contour>
      <point x="1051" y="1065" type="curve" smooth="yes"/>
      <point x="1051" y="1315"/>
      <point x="873" y="1407"/>
      <point x="679" y="1407" type="curve" smooth="yes"/>
      <point x="548" y="1407"/>
      <point x="416" y="1391"/>
      <point x="228" y="1305" type="curve"/>
      <point x="169" y="1020" type="line"/>
      <point x="290" y="1020" type="line"/>
      <point x="367" y="1205" type="line"/>
      <point x="426" y="1269"/>
      <point x="523" y="1303"/>
      <point x="613" y="1303" type="curve" smooth="yes"/>
      <point x="725" y="1303"/>
      <point x="834" y="1245"/>
      <point x="834" y="1069" type="curve" smooth="yes"/>
      <point x="834" y="834"/>
      <point x="525" y="667"/>
      <point x="267" y="586" type="curve"/>
      <point x="244" y="465" type="line"/>
      <point x="722" y="612"/>
      <point x="1051" y="798"/>
    </contour>
    <contour>
      <point x="520" y="577" type="line"/>
      <point x="632" y="577"/>
      <point x="723" y="494"/>
      <point x="723" y="344" type="curve" smooth="yes"/>
      <point x="723" y="88"/>
      <point x="329" y="-112"/>
      <point x="-15" y="-208" type="curve"/>
      <point x="-38" y="-329" type="line"/>
      <point x="407" y="-233"/>
      <point x="947" y="31"/>
      <point x="947" y="339" type="curve" smooth="yes"/>
      <point x="947" y="578"/>
      <point x="779" y="681"/>
      <point x="585" y="681" type="curve"/>
    </contour>
  </outline>
</glyph>
<glyph name="LtnSmYogh" format="2">
  <advance width="794"/>
  <unicode hex="021D"/>
  <anchor x="206" y="-500" name="L"/>
  <anchor x="526" y="1100" name="U"/>
  <outline>
    <contour>
      <point x="-81" y="-469" type="line"/>
      <point x="281" y="-338"/>
      <point x="669" y="-106"/>
      <point x="669" y="146" type="curve" smooth="yes"/>
      <point x="669" y="327"/>
      <point x="538" y="400"/>
      <point x="381" y="400" type="curve"/>
      <point x="329" y="310" type="line"/>
      <point x="398" y="310"/>
      <point x="476" y="264"/>
      <point x="476" y="125" type="curve" smooth="yes"/>
      <point x="476" y="-36"/>
      <point x="261" y="-222"/>
      <point x="-59" y="-363" type="curve"/>
    </contour>
    <contour>
      <point x="137" y="219" type="line"/>
      <point x="445" y="330"/>
      <point x="767" y="512"/>
      <point x="767" y="764" type="curve" smooth="yes"/>
      <point x="767" y="935"/>
      <point x="634" y="1012"/>
      <point x="486" y="1012" type="curve" smooth="yes"/>
      <point x="389" y="1012"/>
      <point x="290" y="999"/>
      <point x="149" y="938" type="curve"/>
      <point x="104" y="715" type="line"/>
      <point x="195" y="715" type="line"/>
      <point x="242" y="834" type="line"/>
      <point x="281" y="874"/>
      <point x="359" y="922"/>
      <point x="434" y="922" type="curve" smooth="yes"/>
      <point x="505" y="922"/>
      <point x="573" y="874"/>
      <point x="573" y="743" type="curve" smooth="yes"/>
      <point x="573" y="597"/>
      <point x="431" y="449"/>
      <point x="159" y="325" type="curve"/>
    </contour>
  </outline>
</glyph>
<glyph name="LtnCapHCaron" format="1">
  <advance width="1485"/>
  <unicode hex="021E"/>
  <outline>
    <component base="LtnCapH"/>
    <component base="CombCaron" xOffset="1291" yOffset="400"/>
    <contour>
      <point x="209" y="0" type="move" name="H"/>
    </contour>
    <contour>
      <point x="952" y="1900" type="move" name="U"/>
    </contour>
    <contour>
      <point x="620" y="-100" type="move" name="L"/>
    </contour>
  </outline>
</glyph>
<glyph name="LtnSmHCaron" format="1">
  <advance width="1073"/>
  <unicode hex="021F"/>
  <outline>
    <component base="LtnSmH"/>
    <component base="CombCaron" xOffset="1130" yOffset="440"/>
    <contour>
      <point x="131" y="0" type="move" name="H"/>
    </contour>
    <contour>
      <point x="431" y="-100" type="move" name="L"/>
    </contour>
    <contour>
      <point x="791" y="1940" type="move" name="U"/>
    </contour>
  </outline>
</glyph>
<glyph name="LtnCapNLngRtLeg" format="2">
  <advance width="1484"/>
  <unicode hex="0220"/>
  <anchor x="442" y="-100" name="L"/>
  <anchor x="936" y="1500" name="U"/>
  <outline>
    <contour>
      <point x="781" y="-473" type="line"/>
      <point x="1312" y="-473" type="line"/>
      <point x="1312" y="-387" type="line"/>
      <point x="1197" y="-377" type="line" smooth="yes"/>
      <point x="1162" y="-374"/>
      <point x="1152" y="-358"/>
      <point x="1156" y="-338" type="curve" smooth="yes"/>
      <point x="1405" y="979" type="line"/>
      <point x="1409" y="1004"/>
      <point x="1411" y="1026"/>
      <point x="1411" y="1049" type="curve" smooth="yes"/>
      <point x="1411" y="1264"/>
      <point x="1214" y="1407"/>
      <point x="1030" y="1407" type="curve" smooth="yes"/>
      <point x="838" y="1407"/>
      <point x="670" y="1309"/>
      <point x="537" y="1128" type="curve"/>
      <point x="584" y="1374" type="line"/>
      <point x="195" y="1374" type="line"/>
      <point x="195" y="1288" type="line"/>
      <point x="309" y="1278" type="line"/>
      <point x="346" y="1276"/>
      <point x="354" y="1260"/>
      <point x="350" y="1237" type="curve" smooth="yes"/>
      <point x="137" y="135" type="line"/>
      <point x="133" y="111"/>
      <point x="115" y="98"/>
      <point x="88" y="96" type="curve" smooth="yes"/>
      <point x="-31" y="86" type="line"/>
      <point x="-31" y="0" type="line"/>
      <point x="504" y="0" type="line"/>
      <point x="504" y="86" type="line"/>
      <point x="385" y="96" type="line" smooth="yes"/>
      <point x="350" y="99"/>
      <point x="341" y="115"/>
      <point x="345" y="135" type="curve"/>
      <point x="504" y="948" type="line"/>
      <point x="555" y="1038"/>
      <point x="782" y="1257"/>
      <point x="940" y="1257" type="curve" smooth="yes"/>
      <point x="1096" y="1257"/>
      <point x="1227" y="1143"/>
      <point x="1196" y="979" type="curve" smooth="yes"/>
      <point x="949" y="-338" type="line" smooth="yes"/>
      <point x="945" y="-362"/>
      <point x="927" y="-375"/>
      <point x="900" y="-377" type="curve" smooth="yes"/>
      <point x="781" y="-387" type="line"/>
    </contour>
  </outline>
</glyph>
